<mxfile host="Electron" modified="2023-08-04T10:14:39.529Z" agent="Mozilla/5.0 (Macintosh; Intel Mac OS X 10_15_7) AppleWebKit/537.36 (KHTML, like Gecko) draw.io/21.6.5 Chrome/114.0.5735.243 Electron/25.3.1 Safari/537.36" etag="VCJ0ZmXrnbDs_zhNDGvs" version="21.6.5" type="device">
  <diagram id="Q5cPggwwnG9wdrlnX69O" name="Page-1">
    <mxGraphModel dx="4292" dy="942" grid="1" gridSize="10" guides="1" tooltips="1" connect="1" arrows="1" fold="1" page="0" pageScale="1" pageWidth="827" pageHeight="1169" math="0" shadow="0">
      <root>
        <mxCell id="0" />
        <mxCell id="1" parent="0" />
        <mxCell id="oPM9_PaR-ZuRVS3DKRVu-40" value="PC-2 - Greengrass Edge Device (Ubuntu Linux)" style="sketch=0;pointerEvents=1;shadow=0;dashed=0;html=1;strokeColor=none;fillColor=#787878;labelPosition=center;verticalLabelPosition=bottom;verticalAlign=top;align=center;outlineConnect=0;shape=mxgraph.vvd.laptop;" vertex="1" parent="1">
          <mxGeometry x="-809" y="950.6099999999999" width="354" height="337.79" as="geometry" />
        </mxCell>
        <mxCell id="eTe72fofeXkGTEq4qpj7-242" value="AWS Cloud" style="sketch=0;outlineConnect=0;html=1;whiteSpace=wrap;fontSize=12;fontStyle=0;shape=mxgraph.aws4.group;grIcon=mxgraph.aws4.group_aws_cloud;strokeColor=#899394;fillColor=none;verticalAlign=top;align=left;spacingLeft=30;fontColor=#899394;dashed=1;strokeWidth=2;" parent="1" vertex="1">
          <mxGeometry x="-383" y="810" width="733" height="510" as="geometry" />
        </mxCell>
        <mxCell id="eTe72fofeXkGTEq4qpj7-124" value="Factory" style="whiteSpace=wrap;html=1;fontColor=#647687;dashed=1;perimeterSpacing=0;strokeWidth=2;fillColor=none;strokeColor=#647687;verticalAlign=top;align=left;spacingLeft=30;" parent="1" vertex="1">
          <mxGeometry x="-1210" y="810" width="740" height="510" as="geometry" />
        </mxCell>
        <mxCell id="eTe72fofeXkGTEq4qpj7-227" style="edgeStyle=orthogonalEdgeStyle;rounded=0;orthogonalLoop=1;jettySize=auto;html=1;labelBackgroundColor=none;fontFamily=Helvetica;fontSize=14;fontColor=default;" parent="1" source="eTe72fofeXkGTEq4qpj7-11" target="eTe72fofeXkGTEq4qpj7-21" edge="1">
          <mxGeometry relative="1" as="geometry" />
        </mxCell>
        <mxCell id="pNtP3JIQBP6ETmEKg21v-3" style="edgeStyle=orthogonalEdgeStyle;rounded=0;orthogonalLoop=1;jettySize=auto;html=1;entryX=0;entryY=0.5;entryDx=0;entryDy=0;entryPerimeter=0;" parent="1" source="eTe72fofeXkGTEq4qpj7-11" target="eTe72fofeXkGTEq4qpj7-225" edge="1">
          <mxGeometry relative="1" as="geometry">
            <Array as="points">
              <mxPoint x="-126" y="1067" />
              <mxPoint x="-126" y="1156" />
            </Array>
          </mxGeometry>
        </mxCell>
        <mxCell id="eTe72fofeXkGTEq4qpj7-11" value="AWS IoT&lt;br&gt;SiteWise" style="sketch=0;points=[[0,0,0],[0.25,0,0],[0.5,0,0],[0.75,0,0],[1,0,0],[0,1,0],[0.25,1,0],[0.5,1,0],[0.75,1,0],[1,1,0],[0,0.25,0],[0,0.5,0],[0,0.75,0],[1,0.25,0],[1,0.5,0],[1,0.75,0]];outlineConnect=0;fontColor=default;gradientColor=#60A337;gradientDirection=north;fillColor=#277116;strokeColor=#ffffff;dashed=0;verticalLabelPosition=bottom;verticalAlign=top;align=center;html=1;fontSize=12;fontStyle=0;aspect=fixed;shape=mxgraph.aws4.resourceIcon;resIcon=mxgraph.aws4.iot_sitewise;" parent="1" vertex="1">
          <mxGeometry x="-330" y="1013" width="78" height="78" as="geometry" />
        </mxCell>
        <mxCell id="pNtP3JIQBP6ETmEKg21v-4" style="edgeStyle=orthogonalEdgeStyle;rounded=0;orthogonalLoop=1;jettySize=auto;html=1;dashed=1;dashPattern=1 1;" parent="1" source="eTe72fofeXkGTEq4qpj7-21" target="eTe72fofeXkGTEq4qpj7-272" edge="1">
          <mxGeometry relative="1" as="geometry" />
        </mxCell>
        <mxCell id="eTe72fofeXkGTEq4qpj7-21" value="SiteWise Monitor&#xa;(Operational Dashboard)" style="shape=image;verticalLabelPosition=top;labelBackgroundColor=none;verticalAlign=bottom;aspect=fixed;imageAspect=0;image=data:image/svg+xml,PHN2ZyB4bWxucz0iaHR0cDovL3d3dy53My5vcmcvMjAwMC9zdmciIGlkPSJMYXllcl8xIiBkYXRhLW5hbWU9IkxheWVyIDEiIHZpZXdCb3g9IjAgMCAyMDAgMjAwIj48ZGVmcz48c3R5bGU+LmNscy0xe2ZpbGw6bm9uZTtzdHJva2U6I2ZmZjtzdHJva2UtbGluZWpvaW46cm91bmQ7c3Ryb2tlLXdpZHRoOjJweDt9LmNscy0ye2ZpbGw6I2ZmZjt9PC9zdHlsZT48L2RlZnM+PGxpbmUgY2xhc3M9ImNscy0xIiB4MT0iNTIuNDQiIHkxPSIxNTMuNzIiIHgyPSI1Mi4xMiIgeTI9IjY1Ljc1Ii8+PGNpcmNsZSBjbGFzcz0iY2xzLTIiIGN4PSIzOC4wMSIgY3k9IjU2LjE1IiByPSIzLjAyIi8+PGNpcmNsZSBjbGFzcz0iY2xzLTIiIGN4PSI0OC4wNiIgY3k9IjU2LjExIiByPSIzLjAyIi8+PGNpcmNsZSBjbGFzcz0iY2xzLTIiIGN4PSI1OC4xMSIgY3k9IjU2LjA4IiByPSIzLjAyIi8+PGxpbmUgY2xhc3M9ImNscy0xIiB4MT0iMjguMTQiIHkxPSI2NS43NSIgeDI9IjE3MS45NSIgeTI9IjY1Ljc1Ii8+PGxpbmUgY2xhc3M9ImNscy0xIiB4MT0iMzQuODMiIHkxPSI4OC43NyIgeDI9IjQ1IiB5Mj0iODguNzciLz48bGluZSBjbGFzcz0iY2xzLTEiIHgxPSIzNC44MyIgeTE9IjEwMS40NSIgeDI9IjQ1IiB5Mj0iMTAxLjQ1Ii8+PGxpbmUgY2xhc3M9ImNscy0xIiB4MT0iMzQuODMiIHkxPSIxMTQuMTMiIHgyPSI0NSIgeTI9IjExNC4xMyIvPjxyZWN0IGNsYXNzPSJjbHMtMSIgeD0iNjQuMDIiIHk9Ijg2LjcyIiB3aWR0aD0iOTMuODkiIGhlaWdodD0iNDMuODEiLz48cG9seWxpbmUgY2xhc3M9ImNscy0xIiBwb2ludHM9IjEwMS42MyAxMDkuMjEgMTA1LjEgOTMuNjMgMTA4Ljg3IDExMy44MiAxMTIuMDYgOTcuODggMTE0LjY3IDEwNy4wMiAxMTkuMjggMTAzLjE1Ii8+PGxpbmUgY2xhc3M9ImNscy0xIiB4MT0iMTAxLjYzIiB5MT0iMTIxLjk1IiB4Mj0iMTE2Ljc4IiB5Mj0iMTIxLjk1Ii8+PGxpbmUgY2xhc3M9ImNscy0xIiB4MT0iNzEuNDciIHkxPSIxMjEuOTUiIHgyPSI4Ni42MiIgeTI9IjEyMS45NSIvPjxwb2x5bGluZSBjbGFzcz0iY2xzLTEiIHBvaW50cz0iMTMxLjMzIDEwOS4yMSAxMzQuODEgOTMuNjMgMTM4LjU3IDExMy44MiAxNDEuNzYgOTcuODggMTQ0LjM3IDEwNy4wMiAxNDguOTkgMTAzLjE1Ii8+PGxpbmUgY2xhc3M9ImNscy0xIiB4MT0iMTMxLjMzIiB5MT0iMTIxLjk1IiB4Mj0iMTQ2LjQ4IiB5Mj0iMTIxLjk1Ii8+PHBvbHlsaW5lIGNsYXNzPSJjbHMtMSIgcG9pbnRzPSI3MS40NyAxMDkuMjEgNzQuOTQgOTMuNjMgNzguNzEgMTEzLjgyIDgxLjkgOTcuODggODQuNTEgMTA3LjAyIDg5LjEzIDEwMy4xNSIvPjxsaW5lIGNsYXNzPSJjbHMtMSIgeDE9IjEzNi42NiIgeTE9IjE1My43MiIgeDI9IjExNy45MSIgeTI9IjE1My43MiIvPjxsaW5lIGNsYXNzPSJjbHMtMSIgeDE9IjExMi4yIiB5MT0iMTUzLjcyIiB4Mj0iMTAxLjQxIiB5Mj0iMTUzLjcyIi8+PHBhdGggY2xhc3M9ImNscy0xIiBkPSJNOTQuNjYsMTUzLjcyLDMxLDE1My4zYTMsMywwLDAsMS0zLTNsLjA4LTEwMWEzLDMsMCwwLDEsMy0zSDE2OWEzLDMsMCwwLDEsMywzdjEwMWEzLDMsMCwwLDEtMywzSDE0NS4xNiIvPjwvc3ZnPg==;labelPosition=center;align=center;imageBackground=none;imageBorder=none;" parent="1" vertex="1">
          <mxGeometry x="187" y="993" width="120" height="120" as="geometry" />
        </mxCell>
        <mxCell id="eTe72fofeXkGTEq4qpj7-125" value="Office building" style="sketch=0;outlineConnect=0;fontColor=#232F3E;gradientColor=none;strokeColor=default;fillColor=#647687;dashed=0;verticalLabelPosition=bottom;verticalAlign=top;align=center;html=1;fontSize=12;fontStyle=0;aspect=fixed;shape=mxgraph.aws4.resourceIcon;resIcon=mxgraph.aws4.office_building;labelBackgroundColor=none;fontFamily=Helvetica;" parent="1" vertex="1">
          <mxGeometry x="-1210" y="810" width="24" height="24" as="geometry" />
        </mxCell>
        <mxCell id="eTe72fofeXkGTEq4qpj7-215" value="&lt;font style=&quot;font-size: 16px&quot;&gt;&lt;span style=&quot;font-size: 16px&quot;&gt;3&lt;br&gt;&lt;/span&gt;&lt;/font&gt;" style="rounded=1;whiteSpace=wrap;html=1;labelBackgroundColor=none;fontColor=default;strokeColor=none;strokeWidth=2;fillColor=#006EAF;gradientColor=none;fontStyle=1;fontFamily=Helvetica;fontSize=16;" parent="1" vertex="1">
          <mxGeometry x="-170" y="1080" width="30" height="30" as="geometry" />
        </mxCell>
        <mxCell id="eTe72fofeXkGTEq4qpj7-230" style="edgeStyle=orthogonalEdgeStyle;rounded=0;orthogonalLoop=1;jettySize=auto;html=1;labelBackgroundColor=none;fontFamily=Helvetica;fontSize=12;fontColor=default;" parent="1" source="eTe72fofeXkGTEq4qpj7-225" target="eTe72fofeXkGTEq4qpj7-229" edge="1">
          <mxGeometry relative="1" as="geometry">
            <mxPoint x="154.00085302882098" y="1156" as="targetPoint" />
          </mxGeometry>
        </mxCell>
        <mxCell id="eTe72fofeXkGTEq4qpj7-225" value="AWS IoT&lt;br&gt;Events" style="sketch=0;points=[[0,0,0],[0.25,0,0],[0.5,0,0],[0.75,0,0],[1,0,0],[0,1,0],[0.25,1,0],[0.5,1,0],[0.75,1,0],[1,1,0],[0,0.25,0],[0,0.5,0],[0,0.75,0],[1,0.25,0],[1,0.5,0],[1,0.75,0]];outlineConnect=0;fontColor=default;gradientColor=#60A337;gradientDirection=north;fillColor=#277116;strokeColor=#ffffff;dashed=0;verticalLabelPosition=bottom;verticalAlign=top;align=center;html=1;fontSize=12;fontStyle=0;aspect=fixed;shape=mxgraph.aws4.resourceIcon;resIcon=mxgraph.aws4.iot_events;labelBackgroundColor=none;fontFamily=Helvetica;" parent="1" vertex="1">
          <mxGeometry x="-87" y="1117" width="78" height="78" as="geometry" />
        </mxCell>
        <mxCell id="eTe72fofeXkGTEq4qpj7-273" style="edgeStyle=orthogonalEdgeStyle;rounded=0;orthogonalLoop=1;jettySize=auto;html=1;fontSize=12;fontColor=default;dashed=1;dashPattern=1 1;" parent="1" source="eTe72fofeXkGTEq4qpj7-229" target="eTe72fofeXkGTEq4qpj7-272" edge="1">
          <mxGeometry relative="1" as="geometry" />
        </mxCell>
        <mxCell id="eTe72fofeXkGTEq4qpj7-274" value="SMS&lt;br&gt;E-Mail" style="edgeLabel;html=1;align=center;verticalAlign=middle;resizable=0;points=[];fontSize=12;fontColor=default;" parent="eTe72fofeXkGTEq4qpj7-273" vertex="1" connectable="0">
          <mxGeometry x="0.4489" y="3" relative="1" as="geometry">
            <mxPoint as="offset" />
          </mxGeometry>
        </mxCell>
        <mxCell id="eTe72fofeXkGTEq4qpj7-229" value="Amazon SNS" style="outlineConnect=0;fontColor=default;gradientColor=#F34482;gradientDirection=north;fillColor=#BC1356;strokeColor=#ffffff;dashed=0;verticalLabelPosition=bottom;verticalAlign=top;align=center;html=1;fontSize=12;fontStyle=0;aspect=fixed;shape=mxgraph.aws4.resourceIcon;resIcon=mxgraph.aws4.sns;labelBackgroundColor=none;" parent="1" vertex="1">
          <mxGeometry x="66" y="1117" width="78" height="78" as="geometry" />
        </mxCell>
        <mxCell id="eTe72fofeXkGTEq4qpj7-235" value="&lt;font style=&quot;font-size: 16px&quot;&gt;&lt;span style=&quot;font-size: 16px&quot;&gt;4&lt;/span&gt;&lt;/font&gt;" style="rounded=1;whiteSpace=wrap;html=1;labelBackgroundColor=none;fontColor=default;strokeColor=none;strokeWidth=2;fillColor=#006EAF;gradientColor=none;fontStyle=1;fontFamily=Helvetica;fontSize=16;arcSize=0;" parent="1" vertex="1">
          <mxGeometry x="139" y="1013" width="29" height="30" as="geometry" />
        </mxCell>
        <mxCell id="eTe72fofeXkGTEq4qpj7-240" value="&lt;font style=&quot;font-size: 16px&quot;&gt;&lt;span style=&quot;font-size: 16px&quot;&gt;5&lt;/span&gt;&lt;/font&gt;" style="rounded=1;whiteSpace=wrap;html=1;labelBackgroundColor=none;fontColor=default;strokeColor=none;strokeWidth=2;fillColor=#006EAF;gradientColor=none;fontStyle=1;fontFamily=Helvetica;fontSize=16;" parent="1" vertex="1">
          <mxGeometry x="20" y="1080" width="30" height="30" as="geometry" />
        </mxCell>
        <mxCell id="eTe72fofeXkGTEq4qpj7-272" value="operators" style="sketch=0;outlineConnect=0;gradientColor=none;fontColor=default;strokeColor=none;fillColor=#879196;dashed=0;verticalLabelPosition=bottom;verticalAlign=top;align=center;html=1;fontSize=12;fontStyle=0;aspect=fixed;shape=mxgraph.aws4.illustration_users;pointerEvents=1;" parent="1" vertex="1">
          <mxGeometry x="382" y="1118.5" width="75" height="75" as="geometry" />
        </mxCell>
        <mxCell id="oPM9_PaR-ZuRVS3DKRVu-1" value="&lt;font style=&quot;font-size: 16px&quot;&gt;&lt;span style=&quot;font-size: 16px&quot;&gt;2&lt;br&gt;&lt;/span&gt;&lt;/font&gt;" style="rounded=1;whiteSpace=wrap;html=1;labelBackgroundColor=none;fontColor=default;strokeColor=none;strokeWidth=2;fillColor=#006EAF;gradientColor=none;fontStyle=1;fontFamily=Helvetica;fontSize=16;" vertex="1" parent="1">
          <mxGeometry x="-340" y="950" width="30" height="30" as="geometry" />
        </mxCell>
        <mxCell id="oPM9_PaR-ZuRVS3DKRVu-19" value="PC-1 - Matlab Simulation &amp;amp; OPC UA Server&lt;br&gt;(Windows Server &amp;amp; WSL)" style="sketch=0;pointerEvents=1;shadow=0;dashed=0;html=1;strokeColor=none;fillColor=#787878;labelPosition=center;verticalLabelPosition=bottom;verticalAlign=top;align=center;outlineConnect=0;shape=mxgraph.vvd.laptop;" vertex="1" parent="1">
          <mxGeometry x="-1225" y="875" width="464" height="334.08" as="geometry" />
        </mxCell>
        <mxCell id="oPM9_PaR-ZuRVS3DKRVu-21" value="AWS IoT Greengrass" style="whiteSpace=wrap;html=1;fontColor=#277116;dashed=1;perimeterSpacing=0;strokeWidth=2;fillColor=none;strokeColor=#277116;verticalAlign=top;align=left;spacingLeft=30;" vertex="1" parent="1">
          <mxGeometry x="-765" y="961" width="260" height="264" as="geometry" />
        </mxCell>
        <mxCell id="oPM9_PaR-ZuRVS3DKRVu-22" style="edgeStyle=orthogonalEdgeStyle;rounded=0;orthogonalLoop=1;jettySize=auto;html=1;entryX=0;entryY=0.25;entryDx=0;entryDy=0;entryPerimeter=0;fontColor=default;fillOpacity=100;strokeOpacity=50;" edge="1" parent="1" source="oPM9_PaR-ZuRVS3DKRVu-23" target="oPM9_PaR-ZuRVS3DKRVu-28">
          <mxGeometry relative="1" as="geometry" />
        </mxCell>
        <mxCell id="oPM9_PaR-ZuRVS3DKRVu-23" value="power&lt;br&gt;speed (rpm)" style="sketch=0;outlineConnect=0;fontColor=default;gradientColor=none;fillColor=#3F8624;strokeColor=none;dashed=0;verticalLabelPosition=bottom;verticalAlign=top;align=center;html=1;fontSize=12;fontStyle=0;aspect=fixed;pointerEvents=1;shape=mxgraph.aws4.windfarm;strokeOpacity=20;fillOpacity=20;textOpacity=25;" vertex="1" parent="1">
          <mxGeometry x="-959" y="898" width="78" height="78" as="geometry" />
        </mxCell>
        <mxCell id="oPM9_PaR-ZuRVS3DKRVu-24" style="edgeStyle=orthogonalEdgeStyle;rounded=0;orthogonalLoop=1;jettySize=auto;html=1;entryX=0;entryY=0.75;entryDx=0;entryDy=0;entryPerimeter=0;fontColor=default;strokeOpacity=50;" edge="1" parent="1" source="oPM9_PaR-ZuRVS3DKRVu-25" target="oPM9_PaR-ZuRVS3DKRVu-28">
          <mxGeometry relative="1" as="geometry" />
        </mxCell>
        <mxCell id="oPM9_PaR-ZuRVS3DKRVu-25" value="wind direction&lt;br&gt;wind speed" style="sketch=0;outlineConnect=0;fontColor=default;gradientColor=none;fillColor=#3F8624;strokeColor=none;dashed=0;verticalLabelPosition=bottom;verticalAlign=top;align=center;html=1;fontSize=12;fontStyle=0;aspect=fixed;pointerEvents=1;shape=mxgraph.aws4.iot_thing_temperature_humidity_sensor;strokeOpacity=20;fillOpacity=20;textOpacity=25;" vertex="1" parent="1">
          <mxGeometry x="-959" y="1061" width="78" height="78" as="geometry" />
        </mxCell>
        <mxCell id="oPM9_PaR-ZuRVS3DKRVu-41" style="edgeStyle=orthogonalEdgeStyle;rounded=0;orthogonalLoop=1;jettySize=auto;html=1;entryX=0;entryY=0.5;entryDx=0;entryDy=0;entryPerimeter=0;" edge="1" parent="1" source="oPM9_PaR-ZuRVS3DKRVu-26" target="eTe72fofeXkGTEq4qpj7-11">
          <mxGeometry relative="1" as="geometry" />
        </mxCell>
        <mxCell id="oPM9_PaR-ZuRVS3DKRVu-26" value="AWS IoT SiteWise&lt;br&gt;Publisher" style="sketch=0;points=[[0,0,0],[0.25,0,0],[0.5,0,0],[0.75,0,0],[1,0,0],[0,1,0],[0.25,1,0],[0.5,1,0],[0.75,1,0],[1,1,0],[0,0.25,0],[0,0.5,0],[0,0.75,0],[1,0.25,0],[1,0.5,0],[1,0.75,0]];outlineConnect=0;fontColor=default;gradientColor=#60A337;gradientDirection=north;fillColor=#277116;strokeColor=#ffffff;dashed=0;verticalLabelPosition=bottom;verticalAlign=top;align=center;html=1;fontSize=12;fontStyle=0;aspect=fixed;shape=mxgraph.aws4.resourceIcon;resIcon=mxgraph.aws4.iot_sitewise;labelBackgroundColor=none;" vertex="1" parent="1">
          <mxGeometry x="-595" y="981" width="78" height="78" as="geometry" />
        </mxCell>
        <mxCell id="oPM9_PaR-ZuRVS3DKRVu-27" style="edgeStyle=orthogonalEdgeStyle;rounded=0;orthogonalLoop=1;jettySize=auto;html=1;labelBackgroundColor=none;fontFamily=Helvetica;fontSize=14;fontColor=#277116;" edge="1" parent="1" source="oPM9_PaR-ZuRVS3DKRVu-28" target="oPM9_PaR-ZuRVS3DKRVu-26">
          <mxGeometry relative="1" as="geometry" />
        </mxCell>
        <mxCell id="oPM9_PaR-ZuRVS3DKRVu-28" value="AWS IoT SiteWise&lt;br&gt;OPC-UA Collector" style="sketch=0;points=[[0,0,0],[0.25,0,0],[0.5,0,0],[0.75,0,0],[1,0,0],[0,1,0],[0.25,1,0],[0.5,1,0],[0.75,1,0],[1,1,0],[0,0.25,0],[0,0.5,0],[0,0.75,0],[1,0.25,0],[1,0.5,0],[1,0.75,0]];outlineConnect=0;fontColor=default;gradientColor=#60A337;gradientDirection=north;fillColor=#277116;strokeColor=#ffffff;dashed=0;verticalLabelPosition=bottom;verticalAlign=top;align=center;html=1;fontSize=12;fontStyle=0;aspect=fixed;shape=mxgraph.aws4.resourceIcon;resIcon=mxgraph.aws4.greengrass;labelBackgroundColor=none;" vertex="1" parent="1">
          <mxGeometry x="-735" y="981" width="78" height="78" as="geometry" />
        </mxCell>
        <mxCell id="oPM9_PaR-ZuRVS3DKRVu-29" value="&lt;font style=&quot;font-size: 16px;&quot;&gt;&lt;span style=&quot;font-size: 16px;&quot;&gt;1&lt;/span&gt;&lt;/font&gt;" style="rounded=1;whiteSpace=wrap;html=1;labelBackgroundColor=none;fontColor=default;strokeColor=none;strokeWidth=2;fillColor=#006EAF;gradientColor=none;fontStyle=1;fontFamily=Helvetica;fontSize=16;" vertex="1" parent="1">
          <mxGeometry x="-525" y="870" width="30" height="30" as="geometry" />
        </mxCell>
        <mxCell id="oPM9_PaR-ZuRVS3DKRVu-31" value="" style="sketch=0;points=[[0,0,0],[0.25,0,0],[0.5,0,0],[0.75,0,0],[1,0,0],[0,1,0],[0.25,1,0],[0.5,1,0],[0.75,1,0],[1,1,0],[0,0.25,0],[0,0.5,0],[0,0.75,0],[1,0.25,0],[1,0.5,0],[1,0.75,0]];outlineConnect=0;fontColor=default;gradientColor=#60A337;gradientDirection=north;fillColor=#277116;strokeColor=#ffffff;dashed=0;verticalLabelPosition=bottom;verticalAlign=top;align=center;html=1;fontSize=12;fontStyle=0;aspect=fixed;shape=mxgraph.aws4.resourceIcon;resIcon=mxgraph.aws4.greengrass;labelBackgroundColor=none;" vertex="1" parent="1">
          <mxGeometry x="-765" y="961" width="24" height="24" as="geometry" />
        </mxCell>
        <mxCell id="oPM9_PaR-ZuRVS3DKRVu-36" value="Greengrass core" style="sketch=0;points=[[0,0,0],[0.25,0,0],[0.5,0,0],[0.75,0,0],[1,0,0],[0,1,0],[0.25,1,0],[0.5,1,0],[0.75,1,0],[1,1,0],[0,0.25,0],[0,0.5,0],[0,0.75,0],[1,0.25,0],[1,0.5,0],[1,0.75,0]];outlineConnect=0;fontColor=#FFFFFF;gradientColor=#60A337;gradientDirection=north;fillColor=#277116;strokeColor=#ffffff;dashed=0;verticalLabelPosition=bottom;verticalAlign=top;align=center;html=1;fontSize=12;fontStyle=0;aspect=fixed;shape=mxgraph.aws4.resourceIcon;resIcon=mxgraph.aws4.greengrass;" vertex="1" parent="1">
          <mxGeometry x="-735" y="1124" width="78" height="78" as="geometry" />
        </mxCell>
        <mxCell id="oPM9_PaR-ZuRVS3DKRVu-38" value="http://www.open62541.org" style="shape=image;verticalLabelPosition=bottom;labelBackgroundColor=default;verticalAlign=top;aspect=fixed;imageAspect=0;image=data:image/png,iVBORw0KGgoAAAANSUhEUgAAAlkAAABwCAYAAAAtxGWQAAAAAXNSR0IArs4c6QAAAERlWElmTU0AKgAAAAgAAYdpAAQAAAABAAAAGgAAAAAAA6ABAAMAAAABAAEAAKACAAQAAAABAAACWaADAAQAAAABAAAAcAAAAACUQ4wVAABAAElEQVR4Ae1dB5gUxda9CyxBJSsKKKwEyYpiQFBJKgIGDCDB/Mw+eeb8y2LG8MwBwzOigAqoYEKCAQyICRVBBQRFFGGXsGnS/ud0T8/0zPbM9Mz0xK37fWe7u7rq1q07s92n762uKaiurpa0iNd9huzY9L00bfNVWvpTnSgPKA8oDygPKA8oDygPZNADdRzu+9/Qt6yGTq/7bCnb/KxUls6X1UsOqnFeFSgPKA8oDygPKA8oDygP5JkHnCZZC+Gf+0J8pBOsp6V8Sx0p29JMKra8L0unKqIV4iR1oDygPKA8oDygPKA8kG8eKEhputBMsMq3iFSUCqJZ2G4tlartR8uQ65bmm0PVeJQHlAeUB5QHlAeUB5QH6AGnI1lBr0YmWAKC1Qx4X2ZepiJaQY+pPeUB5QHlAeUB5QHlgTzyQCoiWfURrmor20pXIkVYCJgjWCRYOlxlIu6KlSIlPWTUDG8e+VQNRXlAeUB5QHlAeUB5QHnA8UjWDfDpTyIN14BcnQZ4TCnCcIK1SVyuUYpgqW+h8oDygPKA8oDygPJAPnrA6UhWOzipMzBfc9b3b42Wqq1TMQerXlgEiwRriIx/dnk+OlWNSXlAeUB5QHlAeUB5QHnAaZJV06OLHx0tldungmTVEz1FqAhWTS+pEuUB5QHlAeUB5QHlgTzzgJMT3+tK6Zr2NfzT/5IZIFjjQbA8mIOlCFYNB6kC5QHlAeUB5QHlAeWBfPSAU5GsurJ59XNICx6NJRoGS6dBP9Rw1ozzkTqs/FFOf+H7GudUgfKA8oDygPKA8oDygPJAnnnACZJlEKzTpHIrJ7f/LZ4dg2W/sTWJlj3n7YZqeAVRKu1VV7WUB5QHlAeUB5QHlAeUB7LPA4mkC/fHMDr6hxJOsEiyWkn5tgWy6N6eCQ73c7RbZNm2ZF1/y3JVqDygPKA8oDygPKA8oDyQZR5IhGT9D2N4BLAiWP5lGna0ElfFfJl7YyJE62nofqaGn7asK0Y68hNZ8zGXiVCiPKA8oDygPKA8oDygPJDVHkgkXbg3RuTFHKzbQXqMFGFwDayqHSKucoCLjVb+La6qIXLq48nNwyLBqtw6UUtHVm6D7m03Su8xd2S1Z+Mxrqqqs/jKn5TystOk5Z5/xNNU1VUeUB7IGg+0hCW9gO7AnkBboA3QHGgENAQMKcEOp0RUAPitMW2KxBpszfgTx9WAEuUB5YHUeKAIancCfgbcgONCktUHWr+MS/OOv3FZABfQ52BFIFi4dniqROrVFznyRpHGu8fVRaByBeZ5lazT+yLBMlaMb7OvSLuDA9Vydqca11DDj16PSDNcm+sW5uxwlOG1wgP4xxY8SYkP2AT849+ux5YXq1XACoDH+SrMAuwHHAEMAA4F9gCcFJKwn4AvAE6j4JZ+zfVfyHgTYzgOyLQsgwEHOmTE+dAzxSFdyappCwUbklVisz0zS7fbrJvOaiAL2v8jiIil8H/2vwAfYvj/xDU+bwEeBxyVetDGiyW/bPalWlpK5baiAOHRiI85goVxkWB5cI3YpdUOadiEF15ekOOT8pI2Uvp760AEyyBYLvS1ah6eAbf8IV2O2Rif0iyqXV3dAGPrAj8WBqJ/ZZurpHWPlVLYyJ1FlqbKFD5BdAUKUtVBmF7+Q/Gmxe98NgmeGCSXmHUD2EtQGL2JJIzEkBwsAd4FlgO5LHhilMHAicDxwB5AKoWRr95+8CZO2Q7woRgXQJkD5LpPMQQlOeyBsVlqexPYdSzwqoV9Q1F2M/AfgCSM/1NIvclDQF3gEcAxSSRdqHf+45yzQbSeBkGoIyEpQhPB8no+kuo6w7FsAwdgV3jxdsmWdUwPBlOEZoLFVKSWksS90lN1o5zy2B12lae5HlMGDwIkEVcBqwFdmCL0li1EWrVtgGAFxlT+s3jdg2S/UQgX5pXQDwcAR/nRH1vjZo3dtAjYvywGPgB4o/oKiP8BAI0cFH7OTCvluzCyxSjGiwDJV64IHwTOBc4Adssyo9fAHpKtt4APAReQ7cLvgIpkpe5TagvVG1KnPqC5G/Z+DBxl384bMGlkmFm8B30LkICdA/QE+PDNe1Ff4HWAJGwL4Igw5B2vMJx2k3Q/9lms5H6uuHb4AiTBHUawGrhGxEmwaMuX4nOvsEmwGC27XV4+41/xDsKB+o2hYwlwUhRdE/3n+eR7f6BeVIIFH7orO4O4LpRPn+A/Sz5IDwyCRJg3BD6F3wkwIpBugoUutT7ZN+1ZCqwFJgNM/ShJrQf2gvpLgM8AXpwnADsD2SpHwjCS8RXAlUC2ESyYJHsDlwLvA5m4DqJbJbXUA+OzfNzDYF/LMBs74pgEdJ2//HlsGdVqDfD6xP+jgYBjUicBTR60IUT6XQCiVQaiVebDau6MKpH0IMOJCBYJ1qgZO7R68f0Byap+EyTrV0TKgnOwmCIMjWDpffncq6TS/U58XdSoXUf+XrN7jdLoBYU4zTAjmXEkMY8fg4HEJFjwI33pruiMNzQXyoLbc5VoNcJoLwS+Ab4HrgfaA9km/Me6BjDs5A1rl2wzMg/t4VMwo7y/AXwY4UNLtshwGML5T/OAIdlilA07MvHQYsMsVSVPPTA6y8dVH/adEmYjp0iVmsqmYH8uwOjWEoDnOI3FMUmEZPEmdFfAgqE3PwtCcC4Ils9PsD5OgmBR7dmYLH+NlJcPQiryV23eV1SC5Rkk57xCZpqoFMiW1Y+Je+sXsuqTDnEoYThxKPB6lDa34NxDwMPAFXEQLJ1AkmhVuRbKnJuSI1rbNhTLP6vJ1tMhrdBJMbAOeBzIpQgRI278vJi+IwFoByhJrQf4pFkMrAY4R6IukCkh8ZsD8KJ7UKaMSKJfRbKScJ5qGpcHDkbtznG1yEzl8GjbLzCjCDCuM09in9EtPlh3AQ4BmG1xTOo4ounEB58FwToXEaxFIFjDE4xghZrS8+j14gHRcu/4NXIEyxGC9bhUbLsAy1G0E3fpQln6codQQ5I6KkFr3jgmgGA1izwHKxC90qNYjAa6AUYGvZi75cHcrVcvSoxokWC5KibCh5Nkzef/l9RoojduhtN3A0ZkYtfo1bP6bBNYx1QW/yEfAUgclaTWA/y+PAB8BDj5P2jHaqYs7weWAyPsNMjSOg2z1C5lVv55YGyODOkw2FlkspVZuGkAgw7L/KjG9lngKAA3Xu3lKGyckTrOqIGWsc89K6dNHewIwTKMOujs9VJRNghzvkC0ynXSQQKipQhtESyGBpmKeA7oCZiFESyDYBlpyXb4SaCF8sn9Dl/kK9uDYC0C0bGY5B6FYGnpVxItN9bR8i2UVy6Ij7gECBZ8p/mv/BZZMfdGsxMc2GdI9jKAhORqIJ8u9IUYzyX+sZGg8masJLUe6Af13wBnpbabgPYjsUdyxe+w8XQbOJljOyqSlWMfWI6aS94wKkdsL4Cd4YSQWQpeyy8C2gBnA4xmkWSdDzgqzpEszSwu+uSwHH3jekR1BiGi86uejnSvlEpbBIuGnAYUA2cCswBDCrCY6mP+CJZBsPSta0c7ELuFMvd6O0RrXyjk3KNo0gu8Y1cQrKWBFwQCbxHaIlgkWSCWrmVSr4SRMbPwosove83URjjBcoNoca6Xq/I2+eqlG8xKktjnDZG5bEYBmPbJV2mMgd0C/AgMzddBZtG46G8+Wf4XSBXx4QMYpz28D+wN5IMokpUPn2L2j2EATEwss5KZsZ0e1i15ylXAtQCDArx3vQAcD+BG6aw4TLKcNS6g7YT71mNu0hCQjXfEXTUwjjlYjEQYwosqRSdYldsuRIownGDpER9XGVKHmHT++sXRiNae0MUn7uuoNIKQ3JGEfClN2n6INzHf0IkWPkdPHATL65om9bAa/KgZ3rB+/ofjGcDnwImBc5EIlvZyAolWxe3y0SPR7A6oirDDiYG8AX4MdI1QJx+LOUfrXYB+b5aPA8yyMV0Oe14HnCYP/N9dBPAiyyfdfBGn/ZQvflHjcNYDY5xVl3JtnGu5n0UvjGA/CNwLLAJSIrlBsjj0cU//JuNfHC5nzdgYhydeRN3HgXnAeK3dlrVP463FaARLj/i4K9uBjCyQF87gjdVK/kAhic0Uq5P+smOw1S/ideocL1sbjpaq8jccIljsoo+/H/ZxqLYfi2Bpby5WIjpWeafMu4M3mXilNxqQXPIGmDvfn3hHGb3+2Tj9PXB49GrqrAMeOAE6XgXMD0zJqD0AjflQ0j8ZJVnaVpGsLP1g8sgs/h+enIPj0e//GTA832+SYBNyMXA0sETzb0Xp8igRLINg+Sedu/8Qz9bwFJ2mBn8YcnwD2GAUWGwZZfIAjEC9LD16uMS3dTSiZG9oqTstsgQTjUnuwTlYeoowcgTL6IosnLpJ+J4RuwQr0E/lXTLnumsMZTa2p6MO/djZRt18r9IWA5wPTMj3gWbB+I6DDS8ByUadqOcjgPMw8lEUycrHTzW7xsR7KdNruSYkWamaehDVF/lOsmoOvm3vB7DQ5+Xa0hBcRV5bHgLpO+0HrZFKMwiP171EXNuPkXPeQKWEZRZaMjWxF/CUpqXHKJfUr6sTLfNbhAHi47ZLsKiOUTrOX2kHgjVWf4uQYwGMOVhGitCIYAX6wYR6bR9E6/VL/k1lUYRPLw8DLwCx5qBFUZN3p+gXEl0SAOWX1H68o6H+piS64OTXmUA+v7ygSFYSXxDV1JYH+H+Ui8IHqyMyYXhtIFkcI+cQBaXHCBCt7ZenjGC5XL3wu4p9/R3+he2fwc6xR6LV7G8QrUqkDg2ygy0nuGuIOAcrRI3/oEK2bbwxMYKl9VmAPh+Sl88630o5ykgeeHOKRcQiNK8VxXxKegdoUitGm7lBFqPr4Ql0fxracOqAMS8zARU50USRrJz4mHLWSE4SZzQ4V4XX6bRL9pCsHX92k7+/391hD3A+1VqA0SguLxCUQ89/ACk7EK2y8BRhchEsl6sbloF4X6rKPpBNP0dmzj2KXVLiGo23JnWilRjB0sfjKv8K0auq+CJYJlLnYZir+uegcwJ7JA0kD8cGStROJA/wjRumD1tGqqDKk/YAr1dPA83j0MS3b58DMpIqiMNOJ6ryJqhEeSBVHjgeinP5QZLXgrRnHLKDZG3f0FXKts7H0gkfyor3Wjv4DaFTmarjOG+soffIG0G0Ki8HqvWFP5NMEeoEawGI2x4gPDsjWva2rPkoMtEaBaJVjsnwXvcbCUSwOJyjgO9k1w4XSt2CM5EirAzO9QJvipgiDCFYyC36jpVxzy8M8w9vZAsAkgcl9jxwIKp9CLSyV13VSsADvD7cY7Mdv7svALWBYNElKpJFLyhJlQfGpEpxmvSSICYSCU/KvHSRLE5Y5cWOpCdUSLDKty3AbxW2BrpghfeFsuylSESLLHQiQOJkR5ahks9fcallg5H3PwCCdQVIzuKk5mCFEix9jpdGtCrfluVvRidaPqQOva4JsrL9+BrLNJSs6y9/r3pHNv2wi4X996KsF3Cs7N6zB1KGJ4JYVQbfXsSkeiMd6QWxCuy79bSkhxO3LAkW/fwW0AdQEp8HeqA6fZfPc3/i84jztc+BykNiqO2O87OB2hTdUSQrxpdCnU7YAyQofFs+1yXtKcN0kaz6+GT29iP4IYUSLGPNqi5SUbJQPr7Dimh1QWNOfmUEx44sQqWDgdEAQ53WMvbZB2TPP7D+VtRJ7nz1mwsXPglwsnlQXK6uSBEaESyDYPknoFfsjAjT27L0mShEa4ZLxj77sBQXG4RQ173lt36Isr0DcnSMVFS8Iz8sCidam4JGyD/SY/i74i0fqREtYwI/iVV8BItP/ZzI3d+kW+3G5wF+52YA+T4HKD6vOFebD223RFHH/5NXgdq2lpkiWVG+FOpUUh44Ca3TnmpLymLrxiNQ3ML6VGpKC6qrq9tD9dDUqI+i1VO5h2xZdyUIVRNEsAyC5V91HQGWat9fcsC4+6R5e5wMEd64PCEl6Tm4Ad3QVxRGKuZoez7fHrD/Skyib6LNieIcL2NFdy1dh7SdB+PxVFXJXgc/LHv1+VlrF+tP5fYOmND+H6xy31CLQJEoScHPsmefh6WwAQ8ovIkMBrYAHwE6SVu3tLus/vhikK1CS4Ll87pk35Mfke7DV6JNuAxCQa6HhcPHlKnj6eh4gY3OJ6NObSMENtwSswofXD4Oq0UCRoJ7Slh5bTj8AYPsmQMDfRM2ZsMEamY6mOJ3Qvji0BQnFDmgoy10bHBAj1nFezg42lyQw/v8rJ5Kl/0kWfyy80ufPvGBI21eiwXsN+PnGC0IlkFUGjbFco8TwJ+xzUbhrwgZ9mvEKgLBMuZGVYMD7YeMaYui6KNh9KlkvT6nKiQS5ULyozGoHjIldWIESUrWYZ35F3TSqulw6ylCLjU04DKR3btFt0GdVR7Ifg+8DhPDydRFKHss+01PiYW/QGvnlGh2VqkiWc76M1yb0yRrN3RA0hbjphNuRtYefwjLBqbLuvRHsnyeJvLPrzdLRWnjAEHhelXamlWI+BgEy0h31a2/QU74722I3njT5ZQI/eyOcuakwQzx0yo+3662IlgGwSLR0ciOq0q6DH1EOg1cZdlPJX47cdvGyzGvaqdABEtrC4KFAJSGeoUrZJ9jHoVPwJyiyJqPO8vy2Zci5dhAm1gfPYK1LzRdEkWbOpW4Bx5B0+VRmqtIVhTnRDnF7387YKO/TgdsvwXC0+r+03m/wZOZ5o9sH6giWan9hJwmWbwv8BqWL4LoiPBasTYdAyIz/Q14Mg2dMXTyByIw26QcBKtq682BBUEjESxPlQ9LIdwAMvG8yb762Afb8EvpuglSvrWRtOnFG1Wq5VatA30O1kIQwugpwhCCBZMb7CyyA4Tn29culK9fHiGjniSjDso/vx0gvqo7Qa4iEywSLdeObvLl88dLVf0TZOBZmN0eQfY+XGTZK2+Kz/O2eNx1tEnu3YcvtKhdiLIvLMpVkTMeOBRqLgcipbkn4pxKF8bva35vzwDuBvD91n5UurYSLAxfvV1IJyhx3AP5Nn2kAB46FUgHZ0jbb881woC+Ae4FRIoOmQiicGuAZJlTbUYEiwTL6zlHznjZTLC6ozXnaNFBSKmtuwAE6wFElO6SFW/fpJWl44+77AT/Mg3ByBvHYJ6DFUKwEMXqPlxk0DXIav8f0p/NMBnedWyIqaW/7Q+CNQ8Eq0XECJYRyfKAaHldR0tByRuyqDj621OnPPYx/Ii+qodZLNNgmHA9dnobB2rruAf6QOMVjmtVCumBkX43nIkt52jVZlET32vzp5+asfNN/n6pUZ1RrXw4S4vw6S8dUoFOTgDuCnTW66Sb8UPNt4ZMFo9OsNj0L+BB4FuNYFVsfRwEqwB6MDdq+63y2VOpJlp7o+8msnPzySBZtwRSm7EIFn8+p62fwzTAg3angZ+B8IBx+aV0bW9xVX0QB8HS51d53UeLp3B2TKI19n8fyrjnPjK6C9uSuN4QVqYOnffALVDZzXm1tV7jIfBAR+D2Wu+J2rVchfq40+MBRrHSxRPSMyK9F973eqWjw3Q6710MaHXIoA6fgJRhuU60YhMsNuV8qOtAsAbgR56DBCswpwvRsQ9uTxXRQghKs5/zHg6UVl0RjSPRihHBIsFi5OnP79EM4vN4ZJ8jzkNkiXlhEY1guRIhWNCFKSle91Ap98ySdyYk+hT7JKxItK02BPXHlgfo4//aqqkqxeMBXsPeAlrH0yhP63IqBVMhSpQHnPLAWKcUZaGe8emwKZ0ky3o8wybdjAjOrVqKzDpFGNqOKUJLgoXJ81raEaRt9mWpIFqn+Q1pgi3ZPabOHT4RKcJbtDQhl2kITxEaBIs/mfMpuMzix9+SOq72IvV1xhUkWC1tpAi/RIrwVZCqSn0Su0aw9IiWz32MuOrOkFeLeZGNR5DDVOthxeOwJOvyxYlsTWnxAcjAJuwzLZ8roiKE+idFghXvNSBXPmNlZ/o90AVd7p/+btPW4zj0lHIOlPIObLnrpIdJtG6Xau/ZYXOwQpvHJlg60SJpm3aO00Rrnt8YD7YfBAzrdcJErIM1KTLBQhSLc6k8VU9J/4uRMt1pg9a2dM1+4tIiWLEJlte1UA49/2A57N9cGf4kfwTLT7BgDkmcz3u81Nk0XZ68gJOB7QgvyPpEfju187/OojQN8bY09RNvN0y5GWiF/WYAvyOcT7k70B+4AOCyCVirREmWekBFpbP0g8lBs/I5isWPg/PNDk/155IdJIujHP/CTXLa1BciDvivv3ZGBOvqwBysQIowEMHyEyym56pIPM6TJ0cns8BWuG8uhW39ALJ7pj6DcvA5xSBZk7R+teUW/CnCwI8+u5+Ssc/hBuVPEW7YsJO43FzJPTbB0ie5f4PO9PSiT5ZopEojVgbBwtbnJUZKU5/duSknQ+cBwUHU6r1ijH4QcF0avMB/aka0ckXwZZa/gSXAk8ApAEnXJIDnlGSXB1QkK7s+j1y2ZnQuG2/T9vE26yVcLZxIJKwo5Q13370Mi5cOBMn6JfhWYiSC5VmPJQsGy/kzEkx5LCuUTT+/Jht/CE7U10nOpxhn6LwyY+ADryoGaQLRMgiWP4LlDRCsPqj6InCVtGmDlJ/r36jvDq7IbtQ3bXWCBdLoHifz7+sur75aF+tn3aRHrmoQLJKs5VLHe49hUoztjTHOO316ORT29eNbp5UnoY9kgaBMBm7S9lL75/9Sqz7l2hnJKgaY+iwFlGSPBxpmjynKkhz2ANOEtSENz4fGlEZ/c2sF104Df5fvpg6SqgqsUbW9U+DnazgXSyM3jGCRYLkGyZnTfk3sC06C1WQ6SNCJWmRq7WdYcqLvdbZ0HTOpWGZfzijaRH+0yRzBmgYdTMecBqyX1j2ny+rFY0CypsFe/PyNiVxp6UXjGKlAr3t3qXZ/L01/wI8/uxth8jzLQKqw1SNYBsEaIqP+x/k0seRgVOgdq5LD5++Evs/9Oq/F9l2H9SeijuSqOKwhI4EICwrtTZX0g2K+2ULimcuyFMafA8zM5UGk0Xb+by4GfgR+A0oASmOgOdAOOBDgDY5p2kQkpTeMRAxSbXLSA/meKjQ+FP7fcW7yLKPA6W1ukSyOft/xv8uihwdhHhSIVrlOtFJFsLTUX9W1snIekoRH2SNaI+8vlhkXkAS1CUkRiuxs+vCaafsd+s+UFe+dCIL1OoBV2f3EyohgGelG/S3CAuiMQLA8KxDBOlpGPcuLOBa6+G5n8dXpBiL3pXZc88+5NYtSXtLV1EMH0348uxWovBHYAfgAvoTQBkjkxmJFsKBKk7vwl/oZ2UqVnAfFE1KlPI16eXH6AiBxV1LTA1tQ9AIwFVgG6Gl/7EQRXpcZJcRvcMnJAH/WxK40tFtR1VMeiOCBApTzu1dbZDwGmjKSxZ/VybQj68o/a54QV+l0abP/B7aNeefaPaUKE8I9lZ20iJPTESydYCFCZhCfqsmy38n2iJb1II5GMdv/AFwFIOzml29eHYHJ7DrRMvoLJVjByFWNCJZGsAaDYJF84BemMN9LSuaIt+IQrL11rHTsv9Dfi7HBQl3a71Dx6TmdgrCbdqPhll9qOzeDP1DvLeB94GuAT//hX1heENoDfYGjgJFACyCaRCNY5nb8nO4xFzi4XwJdbQESR46TZDGTQj8mKtegYSoJaaJ2ZbId06i3AVMAPhQkKpxjxagCv4s9bSjpgzpf2aiXySpvovPjMmmAv2+S3gMdsuN86OFnnQ3C68qGJAzpj7afJNE+0abMdPAaPzpRBQm2q0S71gD/Zx2XVM/JQkhHXgKGRbC8rmxe8yx+YudcKd/2pqyYe2SEejWLh03+XXw7ENGq+sXxFGE4wWKEyee+Vpa+wAhHokKiMBi4FKgKUdJ71FxEscaB0GGOFvqqSbC2iM/VTwrqtMBYnwtNEfoGWBCsQfi9Qvw0T8Uc+WHuoJC+9CeUdBMsmlAPOBP4FxCLYC1FnZOAIuAigE8Za4FwgoUirYznpgHUTbJyFrASsJJJKCy2OmFRdi/KrrAod6KIYWpGKfJBlufDIBwcw2vQ1QW4D0iGYNEkXBDkeWBf4BRgNRBNEonqRtOnztU+D4zL0JBvR7+8R7jT3D/vRym7FqeSZB0Ew58AxgO8SbYCzKITrMqtp+OtQf5AdCOpANH67Cn7ROukp35HIGCw+CoHRJmDxYvOPkCEsYbNwfJUVYHsrALwsz4kPCG4Vj55rNg8CMf2DzprJn5WB3O03CBa+I7pKUJ/BMv7ohx7z6cy4s4S8ZZf6SdZnOQenIMVjGCRYOFrCnjxG4jeqjmy7GUz0TrWMZudV7QZKvl9OQTgd4ZRr3iFBJY3pV4AIyzmf1gzwWL6tgCIJfejwmWAFcGL1TbW+eNiVciR80yJKdG/r/+GI5hq4RuZTgq/f68D3YHrAUZArUSRLCuvqDK7HuDDcMoIRwwjOO2AUaWfYtRLxWned1IiEYiHI31x8rAhdbFjvqGFEyySLJ1oVW1/Uz64zT7RGvPKejl9xhqjo7BtExzzKZtRjfkA7TBJDYK1DeSml3Qa0AUkawgIljdAsow0ns81URbcW2xSYn9389quUSv3vxREyz0G0ImWkRr0utsH2tWp29n/FmEsgoVLPvgGf2yaRGvJE4yi8R+I20wIbxLvAO8C3A+XxSjYD3gZsDofXj/WMckVU30DAZBx7Q3CYmwpfGJihGEV0BaIJQ+iwn8AJ+wy98Xvedh30nw6Z/b5JFjbheSeN6dHU+wI9nMX0AdgxDdcFMkK94g6jscDQ1B593gaOFSXL6r95de1zCGd8agZgMp7xtPAbt1UkizOC7geWAScBRgOjESwEBjHfc9V1kiqyt6UNybYJ1pQHkF4IersPzcQ2w7+fWxqECwSkmXS4YiftTo9j10EgrVaI1kGwdKiWgiuVOPtwfdvKQ7qsrFX8tsIkJ1vZMO3vEBGlkHXzBSPR49oBd4idI+U1y+ZJa9d9KB4vHfaiGAZBAtbPBjoROstWfn+xei4WeTOU3qGab/hwDDg/8J6moPjo4A/wsqdOFwCJd2AYpOyCf79Ttjazf8/jLqXAk4SrRbQdzCQ65KSi1MOOYUPlHwSfjONNq9AX/0APkiYv5OKZKXxQ8jDrsZkaEyfmfold0i3kAulZOypJFl0EgnFIGAqDyCxCJa+oKi7vBFWQ39TXj4nWaL1Dfr8U+tZnzi9Rt+3JFggI67eeNuvtVbn22n7g2DtjTJTyhAEK5jGmyhzri/2646+IcFyV74OstMA+q6V1Z9EJ1rHTJyJ1e/x1qG7yrRMw0gcHwWCNS6wTIN1ijCcYDFtyLHtJH98fa9s8bsgusWpOGu+AX1t6mAx9pleiZT+MFVNeJdRK7N86j/AB6q9Um8+F22fUQoSVfNNLVp9O+eG2qmU5XXygSgm4+KJaMxUXrqF31+mxPn/s93fuSJZfkeoTdwe4HdnZNytnGnwuUlNJiJZ7J4PSo4L3y48HFo57yT14qlqJH+v7CrlJXUCC4oyTahHsAyChVk0JAVAy45b5eibfonbMBKKevV50+bNsB7QECgH8Fp+dYFs3dBBKkqbaX2ET3KvrvZIYYNKKfsbq7JX1gmkC70hBCtItjoc/qf0HLkBuq3FVd5Utv7eESSrIKS/JntslD16RI/c/P5VU1n6XEcQpALZqXmlDLp6lezUwq11VF1dBy8NdJKKLY1Nc7AiESwQLTRjJI4u6XO6yK4M4sQU9sWUBJ+YkxUSlCuAnQDekAYDFH6+mJSXErkDWmdaaN4ZZSOAH/ywqBK16AKcfRwwp8CjNohysgTndgEKo9RJx6lEx8ILMydjt0mHkVnYx4ewid9lXFsyKvuh97nAdcBLGbUkdud84DoudrWU1+DN/ECHejkfeqY4pCtZNW2hIPI9KbJ2EqxZkU+n9ExfaDeIFu8R24BMTKXohX6/BxwTEhCmj5hWS73Uw/W4eXvcUvH5B34WB0EGV5kFweqAS9dVTWFUfLaRNJX+jmnuGFrzdrgNmu8dIBjbNiJmUmoiIyR05miVq55UluwSWhaBYHEh0FUftMav5bSWXifW9B9/MHorbOEk9ACZQ38kO//8sof4fHtIG36mEWTPA/A1w733O/CEAZc1lIZN99VqctmNLb9hHFt03fokd1Mf/v70CFaQYLFfjpU/Vt33XKy+s0+EjrViEqwxwFvAdMBigCi1L5egKhEuncILHDqeBD1WBIvq8YWTGdxJUIyLqRNEq3mCNmRLswkwpE22GJNmO/DPJBcCmSZYHPa3wKFAEaBEeSARD4xLpJEDbXBTlG9MehgQIdHhg0O6hT64wclOmS7kTZRMxGkwWsAnBcorAPsqkEZNC0ByjgDJ2hExguX1fCJblzeWeg3js2nbxuFSsr5SqkDcSG5WzZ8uixYxQqDr2bR6jJSDmJgJTyjB0glQSFkUgmWsuL7ibbdMP697oB/2V/LbsVKyrsqSYBlk58/vsIzj/yaHtDNsNbatexXIp9V1QbCCvtj44+VS/k9iBIs2c4X8r/CRRF4jjQTrVIAkxdh3+gnnbejumEIUQ3cqhUTrwVR2kAO6h8HG23LAzlSZ+DwU/5Qq5QnoXY82HyfQTjVRHuD9eniG3ECeQKJlls/MB2ncH4++yFUcE0eVhVnVD8dGFGos9nlD1eWAMR8jejUcANHCDd9NwMckPyRYDaqGyagZYEpxyLaNw0CuZkFnQ528UWfZqdKlxWI8aE6FpqGyW8fp6GNSkGS5dFJF0mPA43oJ+6cB78GWYFrQvKyC9lM2PIdIls/jRkTqVDn1qRUBazf/diLI1Sz0gzlYVUuRqivCm6ntofMjrZ8QEof1tz56qDjQ1mqnuDj0Sbl1jweh/1GNwGnRKr/vAivf85hjAj8Kjou24hho2Fik/8WgceRtNQQNtTkeZlLlNNFCKE4mAqtTCKiOKK1w5jJgcMQasU8cgSrnxa6WlzWYfufDAR/Q6uflCGMPit/hu2NXUzWUB3LCA8xUkGhlQqwIlVVZOmxrh076O9lRKkkW57ts9xv7B7ahOeIBl4NoVQwHwdrhIMFqECRYIFlMtbXe92AQ03HofzbQQvY8oFgnWiQhYfC4fpK+v58JAjJVfKUjMcl9i05UwDGMCe9WBGvMM0FCQoLlrSSZKwRIdh6Uvfv9Jh2OXIdx3hKahkT/JEPVHiwLcVcx7LMr1dLhsEth/xN6H+zHSBG65uL3Da+E3SB3/vGxD4NgNWqCRQ2uxCyg3az6giJtwcM3LE46SbQWQP+XFn2kq4hzQu4H5gODEuiUBOttIFMXpQRMTrrJTtBwOPBfgBGTa4C6QG0VRox+qa2DV+POOw9wakim5HOLjjNFsmjKeAt7Ei5KJcn6E1b1BsYBmFykTTzHxiQj7vgYhGA4CMIOGxGsXdFyAMCLfVCCEaxQgsX5UIzaBKS6gVSWgmFAOg0E0XJNCpAQkhE9ugRS6I8aLcJKy16E2GJFsKISLHAWd+V+QRPc+9Xo0yBvXhCtdycWB+rG3qmW7sMvRhRtaoBg+bwbZf6W42XQVf+Veq7B6KtEG5eZYA24AtSArqwhJFgnA2/VOBMscIpoTQuqzMheN1Ovwc/HVBhlN18J1hSM2YzncDwDWAQwJbYV+Ai4HLD8AqG8NsnrtWmwaqx57YHmGN1RGRyhFclaCXu2ZMim0egXE8idkWz47UIsPzn+YPHW/UFOf4ETkq2kNQqXAy0BTGSSgwAXJrEbKcKaBMtIQ7YFz2uGCODvX+GHWT6ZLo13OU0GFuvs66tpxfi5mol+gqVHtjye20Gs5mEtrNOx/VfiEawqEDfAq60c/wrIpAdLKYzDcaFGtLToEjiLltLDViNbMMvjmSTHTy7G+GLLlj/2xArwi2TjDx2l9DfUL9ggh09oqzdELvDNK9chgoU60NtwZ7cMvLowAsFCGEz7GZt3Yneq1UCIMOHJ8PT9HsBmTVNm/kxAt7cAPwInAJsAO5KvBMvO2FWdUA/0wuH3oUXqyKYHGEk+zmbdVFZbBuUHOtTB+dAzxSFdyarhPSA0cxRdYyZtZzCmTQTzeD86JsK5VBePRAdWGZ24+80OkhXb7MGowtSOIfuAYHXyz8GKTLCYQtPmemGrpdOYNnNPl5atgkTrs6euBdG5SyM+8czBMkewQtbB8pMrnWD5iRv6NVJ3RtQsEMEyESwjaubzTpYTH7rOGKzldvPvbcVXsQhETv+B7L/AF0qRxfF57pRGzRdjCYozpHL7aI1g+dxrZdhtTZEi5BNLuMBgbQ6WEcFqj+PngKbAZQCjF1bCVNFLwBirk1HKSJLjjR5FUZe2U4ehp7eBxmnrUXWUrR7g/wxTxZiUqSQBDyiSlYDT4mgSL8laCN0D49DvZNVZUHZSBIUTUV4c4Vyqi19FB4xoJS11ktaQHgUMJ/7k72qebN/QTSp3zMYk9/gIlk5wTpUNa/4nxcX62PueNxkk6zo/GQmLLJEA4TrKdJt5kntqCRb7u1ZeO/+uiK79e83uIFjzAgSLUbGmeyGR2oJk8nq82TgnQLCqkUJ0u4eAYDWy0IecqvZEaRAsVmGUZyCwP/AwEEl4gzkD4D9JPPJ1PJWzpC4jWO8CimBlyQeSYTN+Qf+KYGX4Q1DdO+KB1tByuCOaElNilSo0NGVyXhYjrU0NQ5LZ5grJYhoReT/th56PkYqKf0CwKkMmuXMOlpEitIpgaZEkkCYtPefdDJLlCzjuiP9MxuRzEC3/eSPKFItgUYG78gCQHb5FCILjhxG10ud5+ZCOfAlpyWexxZuIhg0kcNwHgQtGsEyErnofeXV0zYnFJFjiWYC+uun9gWBpUTP03bSNTrSMOVh8e3DXTo1k74M5h6ZhYLz6Tjk2xwPzwsrXmI6Zg4wmGEBgqYdo9cznEHLLKVEpwpz6uNJiLNZPUaI8kBceYCai5n0mfUOLRqRIwIL36fTZxJ54vzzRiS5zhWRxrGAR8jPgk1Ydl0hV+TCQqm368g9xEawH5PSXLqfCEBl8nR7RMkiQHYJFBa263IroUXBZiFCCBQJVdY8ccvbp0veCc0C0mJoMkqpIBKvaN0tK65yKZSxCn5Y3rd1DCjyLoLN7DYJlkMgmbVzSqFmptjxDy73xYmXdpohqvS07/jYPlwSLTP0Dc6F//wls/wPcCpzjL4u2IdHiP+rMsEq/4nhbWBkPt1iUZWuRIljZ+slk1i7+/yhRHsgHD5yawUHw/rYsSv+lOLcyyvlUnzrNiQ5yiWSFjrfjoUtAsIaJu2Kb7QiWz3e/JcEyNA+7dTKiS9fFTBEa9Y1tu4OLNaJVg2AxyuQOTo71ur8NRK1iEazzp5C8BEWLYLkZwepqTbC0iBbfhjxAhk5qIU3anCwFdXx+UtdSlj6PBTU2Uh+jgiOABTywEITW5CHgZsDuE3s40boObTsBewHh4eCtKMsFUQQrFz6lzNgYHhXOjBWqV+WB5DzQAc0PTk5FUq2Xo/WOGBqWxDifytODoLxtsh3kEsniJLhFQJBd9jxhiVRWgGghohUrRUiCddqLV8R02HH36anDSHOwIinY58hiRJgQ0QLZMciWvr1KFtzTURbdjbf8vDdETREaEaxwgrXj11YRU4RGX/rbip/LQWf+oC3lfuT1M0Hwfg2Qukpwm0+fwjt9q0l6Pow0jCTKSbRuB/h0YkS1GMniBEKz8Hy2SP0IhiiCFcExqljzQDPlB+WBPPDAWIyhIIPjiJYqNMz61NjJwJb8KOlIX66QrEMx2GJgAPAsgHlJfjn07CXicg1DdGe7RrSMtwg18oH7vjbfySbBMnSe+AgiWp6btZXczZPcjfORtj1HgmhxEr2faOnEZz9kOH8Rt2s90oVDIs7BqvbOlcaNxkoNgrVxN6nwzY+cImQEK9BfT/ni0ZaaeYvu6wpC104ndfQDAlT8zcbPnh4sf//0GupE++z74fwJQDy5+n1R/11/m3HYUvgGVnheO3SdM61axv7chp5JqMyiCJbZG2rfygOM0mby5mRlkypTHojXA5zmkUkJz3JY2ZLJSBbtGW9lVDxl0W608ehJdV2muKr9nRjbYJ+Dr8AcrYpjQLJAtPyEIzD3KU6CVbr+BFm/so2MfupWiYdgGdb0GTcZNlyn2WHM7zImtkdMEZJg7XSyDHuI886CsoMEa8d8EMiekVOExni17W5S6V4hC+9ZiPpfgmA10NOFIFiaDdhWIrj02dMnyV8rGG2y+vz5dLMYmA08CtgREqwPgN38lYuxXQ38AfQHzNLafJDh/W7o/23AIFqKYGX4A8mR7vmWaYccsVWZqTxg5YFeKOxpdSKNZXYiWT/BHrvTVlJh+gFQ2iMZxVY32WT0partd1D8L+Bl4GTgLyBURty2BJGiYxBF2q4TC0Rv7KYIDU1b142Siq2viWfzIlk1p61RHPe23wVIOTKiBRsSJVjs1OvygDi6bBIsvS+vezf0ORAEa2e9fxPBCkzm92E9210YqXoOCI9WHYQyQxg5jCXhBMuovzd2mhoHpm023Zzawy5G20i0rvBveaxEeSCWB4bEqqDOKw9ksQcyHcXipPZVNvzDoIqdiJcNVQlXYeAhYckVksUBPguMB97igaWc8OAS8XhBtNzboxAsPoWuA64O0UGCVb7tZancWg/oLOVlC+XTFxInWkdcYXpb0SA6IF0BooOpSVqK0CKCZRjWtF2JuKuPAslaphEt/hi0ORVp7JtTowFSR4Jn9Iut0W8hsnUD8XJlM85Jl9OBF4F6PPDLC9jyyQEKtAnw/mLLTSSCZVnZX3hgtJNpPMfvQRd/fyRW9wGKYPkdojYxPcCHFCW57QEn739O6kqHV0eno5MofZA44WnflmRyXhYNPA1IeHpArn0xYn8iY55EDtfTO8ok90Io2QBsDygLIVhIp2F6F1aT7yzukoWy4PbEidZRNyF16F9/i6lDg+hwG4tgbdigz11q16tE6vqOwpysZQ4TLGP4ZOlTAYNofYP91kAT4HEgkpBgzQeMFKG5Hv+BjgLOB4J+1mvsh00zfTejfwej9/oZtUB1nsseGArjE7825PLI88d2J+9/4RmBbPbSITCO8wozKXZShYZ9uKdnVJjx6JeoBbyxMqWTaYcnar91u3HkDNLH+qRWeon/XB8p23QkIli3I3pVV5uvpBEsjWRhcdOyzoiKLZHfv7xQ9jwwZKGpKLpDT424/QPMkXoYP3lzaWDl+MJGn8jQm2+XRi2sc+Ilv58v9cqOkrItF8rOLTZLu8Pwous/V8vaxY9irle3ANmKJ4JVt4ELEaz6/ghWqI36zwfwIkHCxQgWQl8asLEUg2DtanlW5CKUf+0/tye2N5vqkeSeCbxlKsvEbviE/EzYoPqMzwOYeJg1xJj/L1cCTDMryU0P8FrklBgPqU7pS6UeXuczLfGkAL+AsbwnZdLH49H/4kScxt8uPA4N30ykcc63cZcjMbYGk8GRHuaE8FCCFVxBvgGCOgP+I/hNwMSHvPJ9/LT16/hp5B6YCn4xppxH+L6Ul+jrWXEV9wI8aO3eFbOm/AEXkirq2fanP20IPhQy74vH+C5qKUNsjchZaIow2hhm4SRfWSXRiiSxCBbbHQkwykV5EJig7ak/ygOJewBPPtp8zPewTTh0n3j3li0rUIp/UG36gWUFVWjpgZkozYaHnPWwo52lhfEX3oQmt8bfLCUtdofWSEEBRu/WAW1T0rM9pdWoxgzIZnvVtVrL8PeAOOo7XXULFLYG+KAXl/BO/xvwZFyt8qGyu7I5CNYpIFgFUQmWuxJLH2zFj8/c8bccf8/smEP3VLWTeoV/gEUhJ2iSLkeD9Pg6yj5D1oBgWeeit2/qI+X/9NEnuoNkkWit/bxU9jpgjtTfuVwjW50GNZDlM0cgyrarLYJVp7BS+v5rDiJY7DNWHp4XvmkAJ0VaES07BAtN5QXgIWAv4ALASr5H4QqrE2ko442xVxr6UV044wH8E2pLiizElterIiAbpBGMeBwYkQ3GwIYuwE6AEUXOErNqmIGn26wQJ6ctNMmKEelG7Ihiy0CcyyTBomk/A/EQLLZhyjCTJKsF+sdNXOYAcQlJ1ndApBthXMpyqnJhQ0Sutl4DgjU5YgSLBEv7XUBXiWz9nRfSL6OOsXLrv8RVcS7eCJyHH5QZKUVFvDkEpdsxwf3wvX9WF2PeVSjB0pejaCYr5/XB0gyD5aBRG0G2QPp2NEfKcB6iVn1C1sEKj2D5vJvEU3Ekomf8jBsAxwMYeFQ5CWenAeFEyyBYvLH8AnQEIkUU2uDcXUA0Yaj+NCDuJ4NoSm2cY7/f2qiXriqMhpQBkVKv6bIjW/tBmFlGASRYFBKIIu5kiQyHHZcCD2fYnoPQ/1xgbIbtsNN9tpCsXWBsY4BR0mRlj2QVONSeUaLQ+06oYl7XMy2fJWDAp2jz7wTaOdlkPJTFTbIYOqxtQpLAD/lfUtTvbhCsa/0T3TkHK5giNBMsn+doOf0VOwTrSRCsOvipn6FSr2S2rF3U0JZzdYI1EYSuAouWXijeCrxR6PrYNPeqmxRUvSfLntRvxIddVCLlmAzvc2EyPAJOVilCEiyf60gZ+zwJFgVhsai/E6VV8v8xiBYJCYUE6wOAhKizH8n+s/Kp+wog3XI2OuyW7k6j9PcFzqWbaEYxJ6tOrYY1/QB+9wzJxijNfTDuKMPADGxJQhcAuwH8P892yRaSxYfErg45yyk9yZrDhzbrTIkIr+e8tmdaPk/AAEayMi0jYUDTeI2ojSSLIWL+Q7TSnNV79N1SWXatgwQLiTY8SHgqh2L5hdhEK0iwQJYqn5eig6dIh4EfSEHl2ADJ0iNa+0olVn5fdJ9OtEZch+UdqvDWoUcnWj5PcA5WTYJlfC/i+aIaROsANOZNjhfwRcCfAGUGsEPbS/zPLWh6eOLNE2o5C62WJ9QyNY0Wp0Ztzmvl9+tgIDyl/EkWjow3L36vBqTZNmYi7gGmA4zKUBTJ0v1g929vuxWj1OPnny0kKxqBZbqrZZRxpOvUfujo2jhxKupn+rvdEDaQaMUlnPgeV4O8rfzOTdfgh6Yn6wQJn6UXKcL4I1gGwUJyDlHoVgjWeKu2SVXlQdJ411U1fGcmWFpasvIl6TDgdK3e97O64bcHf9RWjjevh+Vzf4e174fIwCv/0erNvb457J6HSe5IHWpEKzyCpXdbsbkt5oS9Iju1PFybUF/DmIgFfCoyyDgJVh+AW37ZeGNJVv6CAhIt5unTJSSM84Fe6eowSj9MQz8FtIlSpzad2ojBXgxE+m7xhsbvfjbNgYE5mvAmcA7wsn6Y0r+8UT0L7B/WC8u/CyvLtsMrYBCjf9kg78KIYUkaMhTtqScb5CcY0S2CIVNRPi7COVVszwPvoxo/b9ti3DxtN8jbisNuuxuRoWsDc7CSIViMZLUowluBuB/U36UJJte/K4ueIwsOSjjBIslyu8fIirm3yPLZZ4FgYeV5F8meCUgNetz7Yt7XfHmr2B/RurNEKtxIHbqXgWhZE6yyTXug3TypKjtcStZVa28dBi2JtWf+jrRG5V+AVcDMWA1tnt8d9T4GeHNIhWASW425Y5tQNgRYnooO49CJD1Sb0BlHk7ytugUjuwnYB4hEsDh4+oyR1WyUBjCKN7InASOy5LSdLaCQ0aulQDjBYl+4+GS9rM0iC3kd4HUtGRmXTGOH266NoG8nlB8f4Zwqtu+BI1G1rf3qwQhFPG3yt+4pj96NeUxXi9s3OPYcrNJzQHaMOVjBCJYxl4vLQRiydf3eWPdqtiwq1omWFcHSCVU9kKH/A7F6FgSrew2CpU1sxz3G59pX6rg/krev2UPrYtxjJVhF5BgQrUGmOVh67yRYPu8CROi6aVG6crxNufEH6EDUKzHhP2tngPMZ7MqLqLg2SmWDaDEK4KTwaZkpTZLC8H+MbCBajKaVArVZ+NncAOwN3A6Y/nFwZC1vWxdnTel5sIQRhTOAug5Zxf+R/wNWA1cBhYCVMJqW7bImiwykH+9Iwh6mG7OJZEXy7XGwM1XEPwn35VxTBh1GxWO1ShfG4y2jbiUJVuVT/knuNQkWf/6mGlm2privV+Ae+s/PiEC5iPdk35Pww82eG7WIGaNXGnDOHLGyimAZBMuY6K79+LRnBSbKD5ZRjzLFUlPCCZZGACt0e+vhobvdQXq0rWZLJ0umQNlFQHtgIVAERJO5OHk94ESUifMTGvk7Y4rifv++ebMbDjKVOjwbfT8H/AG0AWqLrMJA3wemAp8lMOhWaLMeqJ9A23Q3ISl6GJgO/Bln50yJMtIyFjgBsDPe1qhnfT3AiSyRZrCjJEtsMcz4D3YeMg5sbvdEPV7TOtmsn45q16ATRjrDZTYK+B1SkrwHvoQK3DztiSJZ9vwUrGWHYAXIUxXnZOkEiySqVVdMH0c2xHw+nFB5qtYjIrUehKwviFcdy7WwdIKlR6N83u/E7R0iY6dwnkpQohEs9k+76iMo1XFAcLHTYOtoe/fj5FcAiVO/aBVxboq/XrW/XhG2dogWGKq8AbwAvAskmgLhjfwogGG7/sAXgJVkgmjhAxBGJ7YC+Uqy8KWXNQCeMjQsw5af/wYgWXkNCk5OVkka2/M7zRTfx8C3AMkXo6legE/HTQGmAjsC3YH9gEOBQiAeaY7KeLLLetkMCznebJL/wZgbgVgklZ8Xv3skZXo2ATtZIqNgB/83zEKy/hfQ0Fyo9pPyQA+0/tGOBkWyIntpAk7xH2km8KBWLRmCVVAXs02YzoUESBbuQaERLBCmBn3l0FEV8tFDZ4JsPaev3u5GPQJcIZRg6USr2nOxnPq/x3Xl+GuHYBk2cII+1++qZ+v/j6RlqL8fPo3yHzfS03U4wfI30yJZdoiWUX8bdj4DvgaWA7yBEAVAS4AX6q5AN+Bm4BvAkJ2xMwL4wQ+j3GqbbqI1G0ac6DckG0jWgVZOSaBsK9owgkjwc0qVDIPit1OlPIf1Mp2PcHXWyzxY6L8gZpWtfPjhde5DYCVQAvBhoRmwF9AbOBbYG8hG6QCj+GBjlrNxQAKpxDkP3ApVvN/EFEWyrF3EL+qvplNYDLS0d8wUoUFcuOWcp2aIJpfhga10vU6mGDlq309XWyOChf9jr/teOeTsq7UKi+9ujCUbtumkKgrB8nknyZhnigO2xkOwDHsb4SF631PwzByTaPHiY5AsPh3xSdyKZE1B+UVANWAlRSiMh2hZ6TCX8cZ+DEAyloykk2jxBsM0JSUbSBZJay4Jnlq0mwlvfEqCHqBffMHDrN0rhmUTs9a63DSMEeK2Fqbzun2URbkqStwD5AedgUj3uIBmhj2V1PTAdhSB9WjiwxIJw+IiWEzFdTwCQX888Bx0JuIteOhhxGo7OMnPeICrhPrQCJZ+7KsaLose4BMT6vhOTwvBoq1bcY//6iXM1Yr5AHw0LLsfGA+8BSRCsNBM1gKD/FtskpItaE3CkizBohEkjUOA5TxIoXwF3QbBSmE3ea3ai9E9ktcjjH9weBrLCYLFkX0a//BUixgeWGJxng+OvNYqcdYDHaGurx2VimRZe4k321OBqcAYKd+6ApPcvRoJ0Rca9U92B0HR5lxha0SFtGMQqsamVH0zPGx7cP1jqq8MnODXD0HhdujEyhzR4huFBd7fZP6dv6Duo1FThE5EsGirloaEvVt+A015GnYxyxNVLsNZMDIBi6whU1ASLYJlbrAWB8kSLRpLUvQlYCWdUHg3QFJoVwyixSeVVMk9qVJcy/Q+hvH+U8vGHG24ic5djKYzVedIskiUlTjnASuSxftYPee6UJpMHrB1X1Eky+SxsN3ZOD4NeFWatZ4JkjUGSyC4sY1NsBilWrdUf8OwCmSK+yRYPlxTOK+qHCnENYvfxeT2jSERLRIej7sJUo0dYxCs4qRThGaCpRE99L1ljcjiR0G0ysJcYeswHoJlKFyLWZoXLQAADuJJREFUnWSIFuefjDSUWWznoOxqgKTwOIvzkYoOx4l2kU4mWb4a7V9LUodqrnsA/1xyr3JGwAN4asoZ4VzLz3PG2twwdJ6FmWMtylSRMx4YDTWFsVQpkhXLQ8b5Vl1nImrlJ1q4lkWKYGlpQBCWtYtF3sOUg/cmYeokokQGweJcLa9nhjT/7jgQtsFBooU2JFnaxHbuo57VJHeflwQLSv2SyBwsK4JFu2nbZhCtD5ERjI9oTYE1diNYhuXGdi12kiFacLIUA1bCULkh7Y2dGNuTcH4aEPOfJ4aeSKevxwk4WolDHsBTgYpm+X2JC1NOyfScsja7jf0J5n0fZuJeOD40rEwdOucB3l+OiqVOkazIHsJrd1pKDLPC/dK+r060vFWIaOF6ZkAjXCApBsHStjiuQjaL58IJVtt142XgQo/0PXcFfq9wMMgVIloJECy++u3zvBtYaNS8DhZtCyeCRpmRIjQiWAbB0ogdiRaCLZ9OMUYda/s0KlwMVPsrHoTtfcAJ/mM7m7WoNABglCcRIdG6y6Lhv1G2AngdeN7ifHhRqgkWmDcio0qc9ACjWTc4qTCHdeVSupBungGolKEzX7iXLdSMRVmBRbkqcs4D42OpUm8XWnuoEYq/AfYB1gL7AQxv6/Lt9JOwCOg0kKxCnchYECxjDlYkgmXo4vaDu7uJr2oBIld72I5gGe1LVh8mLtc7IFq7iAcT140V5xMlWIxmFWL4Q67D25F8EIoqJFgXAD5/rYbYbgRITEm6+gGfAXalHSouBDrYbRBWbzKOYXhCkmqCRR8dDCyzsO4PlLWxKE9nUS5fjPmw+AlwaDodloV9/QibemShXdFM4v/7wGgV1DlbHuiOWnygNMvXOOhtLlD7jnsAkRRtvUM+7FkKSda+OHOJ5dnaW9gMQx9tGv4c7G8wHWPt5u/3ljUfDcHvHWLBUJIspvj8ZMuKYLXssFqGXLNA6hQahCREnWxZ20yWvnCsuLbvpBMtkB0SNJKe9n2XySHnWN2cdR3lpXvIppV4A7K8UIuupYdgMdR1EUAyZQjnSHE5BWOiJaNZbxonbW6LUI8XXm4TkUloVBxnw1QTLJrzC0BSaiU3oLCJ1Yk0luUyyaKb+CD0JWB891hW24Q31QNybNBjYO8rOWZztpn7EQwaEGZUVxyHk66wKurQIQ+cDj0vRdJFknUcTsZ7I4ykr3aV/4P75vJZetowGsHaE9e9/hcicMslbKLIjr/xPP4IJsaXBAkWl4HoeXyURv5TFeA2675AJAvE2khjGluSLoMERkoRxhfBsiJYho0kXhOADwGS90TSAUVoly6ilQ6CheFkveQ6yaKD7wQSjWRm/Qdkw0BGjXMtmseLIslAZxvjU1WsPTAMxe+GneLD5s1hZeowNR6g7/kZWApJVlOc6WR5tnYX8p+f+bLfAYSTIsg30wfLxh/vQNqQP+4MckSAVxjzm+rv/IEcd9uNUtjEHtlY+c7e8sPbT4AotcQyEE/KsFuejNBzzeINX/eWv395CBPqdwoQLbsEixGoY/AD1s3aNaipOKSEF8SegHVELqRqUgd8MlsUpuEnHPMJzY7wIlMco2I6CFYZbLgUiBhOxjmS1uZAJiUfSFYhHPghkGtEw6nPnWMf6JSyNOrhlIMn0thfPnX1LQazP1AdNqiVOOZ0FyWp9wD5AbnCRquu1JwsK6/EWzb32pPE45kGglUYQrB8nlelzbpx2iT3eHS+ct6+Usc3VE595p54mml1l71wGOaLvQOStYs2X8xOBMvn2YQftB4i41/qBR1TbfT5DOqcD6SKaLWDbkayOgCGMNWGcKD2E0d209uTUf86Q0HYNh0Eixe+scD0sL7DD9WcrHCPJH7Mix3TZi0TV5GzLd+D5cfkoPUNYfPPwJ45aHumTea0llfDjOiDY6bOlaTPA/9BVw9ZdadIlpVXEimbNeEkEKxpiGCBaIHYJkqwEuk7vM0njx2GtxbfQYoQRAvzxKKlCIMEy1jl/L9Qd3m4SovjKSi7CAh/gmLVXYBokRvWiSRFOEGCxa0h5r4YcXkc4NOvHZmESsVhFU/EMYkPIx+plGgkz9yvIllmbyS/z/z6LKBO8qpySsObsPaEnLI4aOwo7M4IHqo9Gx5g5HIQEH4N5sP5VTbaqyrOeQBzdeQQK3W17SJk5QNnyk58CAuWeseAXLkzSrA4msMu/kTc7mEgWDviJFhsfQ3wOndiCEkOyQ5Jj1mewsF2YBnQ2HzCxn4R6kQjWFTBCwrJHYmXHZmISsWmiukiWHy6vNHUr9pNnwdINq5MX3dZ01NV1lgSvyH8f3kr/ma1tgU/a0b2wwkWr8ckrErS64GD0V0Xqy4VybLySqJlpz4xU6o9A6SwYmzcKcJE+4zU7shrP0G6EETLvUOLZjG6ZswT0yNtRorQiGAZmlBRxgFzjYIoWxItkirje8S3Ms/11z8A2+H+fTsbpgjnA0Wmyk9j/2Ig/EJiEK1HTXWj7ZJo3QWMAF4BUh3Beh99nA54ASWZ8cAD6PbezHSdsV4rM9azMx1fCjVlzqjKey13YoScoxouh6GgfXihOk6LB8Za9aLShVZeyaeyWVfhnw5ztLyeXfxpTKYyIxEs88gb4YBEi+HoWMKoEqNLlB+AbgCftLhGi9WFAMUhUoSjhQC3hhg6SagiCZ/a4kkdcg6ZQQgj6Uy2fAEUHAtUxKFIpQvjcFYcVfn9eBEYH0ebXK7Kh5LzcnkAsJ0PeFNzfAypNn8xOhgMYC5IDXkMJca1uMZJVZBSD/wK7Z2BkHtWqm84KR2RUm7DAyfe+wnSmMNArHb4SZYdgkXFJAnDgOk8iCFGRIs3NT5J8UK5L2CHYMUTwYLKEOGXmRcUuxGtVH/fZ8OWeAlWyIDUgaMe4PfjTOAZR7Vmr7Jcj2TRsy8DtS0CGc83ah0qnwRYEax6KD85HmWqrqMe6AhtB4VrTPVNJ7w/dZwJD4x6FKlDjWit9r9FGJ4ijGQVo1FjgfsiVTCV/wv7TwKlAFNyq4BYQoK1EOhgqsincZI2Rp3sCG+kTDPYJVp2dCZSBwucaRe4eCJYifSj2sTnAaZsGd3hCx35Lvx/zQe5DoOYlw8DcXgMvLZwTunfEfQeifJWEc6lu5hkkA/d6cCadA8uSn81ouaKZEXxVl6dGvvMJ7KjUVcs02CXYBnDJ4nhmyokMlZPT0Y9bkm0GK7mP1YsKUKFDwEzwWKKMJGlIQyixfbpFjc6vAygf+wSw3TbWNv74/fjSuBmgPv5KvlCskiMSSbm5+sHlcC4ytGGb45+FaXtmCjn0n2KKc10STZ9T8Zi0IwoBkSRrIArasHO+VNICBIVRmr6AatjKDBSh9G+W+2gg/8YRSZdjGBZTXI3VYm6y5tnPKnDqMpsnvwd9QYCD9qsr6pl1gO3ovvjgJLMmpGy3vOFZNFBZQCX4nifB7Vc6At+b6NF97jW2Mgs8tOSNNqSTSRrN4ybEcWARLsRBiqpHeUBvweWYXsQwHRgNIkW0SpCQ6ciWOE2pDOiNROd7w+k82ISPl51HL8H5qLJIUC8Ed34e0p/i3wiWfSeEb3h/1ptlX8w8KHAghgO4JvcTWPUSefpdF4X6ZtsilCHpAwVyUrn1y4/+tqCYYwDOMF7fZQhMaL1OGBOHRbheCHArSFTsMMIlFP/JNRDfdSbCvkTSk/2gxdAJbnngZ9hcl/gAcCbe+ZHtDjfSBYHysn8pwBMyScTiUfznJOlsJgPtXZSb2OzaHRlsOW7NNrDOWrZ9NDEVPcuxvgVyTI8obbxeoARgR7APQAvhFZiJlpFqJBqgmXYkAqixQs8U6bdgdr8ZG34ONe3jJJcDvBt2B9zfTB++yP9H+b68Pj/zJT8EOCPXB+MDfs53v8C/YG1QCxpjApcAzBb5DMY4kmzMdmUMtwZYz/eGL8iWYYn1DYRD2xHo2uAfYDnAB8QLiRazwPhBOtFlDkZwQrv1yBa7CcZoZ5XgR7ApUApoCR/PMAbAhfOvRHYmuPDysdIlvkj+RgHXYBJQKyXcMztcmn/Gxh7OHAlYDdyNxJ1GwHZIulMFRpjziaSRZvGG4YpkmV4Qm2T8cB6ND4b6AlwAnv4E/XpKCsCzMILSXtzQQr2qZ/9JCJ8EpsOMFw/GvgZUJKfHiA5uQPoCNwL5OoyHPlOsvDRaBPii7HtAywC8kU4DePfwIGAnfSgedxjzAdZsJ8JkvURxm2XlKbDRUejk93ZkSJZ6XB37eljBYZ6HkBycwsQLbRfhPMLAW5TIUVQmoh+vnl2P9AJ4MWLk/2V1A4PbMYwrwb2Ae4Dcu0txPCHGwwhb+V7jGwQwIeoOUA1kIuyEUZPAkjwHwW8QDzSApVD3maLp3EK6jKb8XkK9MZSyazKF7EqpfF8PfQ1iv0pkpVGr9eirjgRcSLQDiCjfxHYAYRLEQoSIULhesKP49XLJ6C3AP5TtAauAH4DlNROD/yOYV8F7AmcD6RzEi+6i1u2ocVTQDbdZOIeRIINPkG744D9APogF9L5JISMVp0FtAeKgUTt5jWrPpAt8gMMydTDyfxscYLfjvHc8rcL+QV901+oNsoDmfDAWnTKp1Juk5UiKIiXuPGikKkLA8fLC21d7mRQCjLYdy503QtG8q0honcWGLwSNnwA8MbyHsCJ/EpEGsAJwwC+Ac3J4DsB2SLfwpBpwCuAUw9xi6BrAJAt8gQMuShDxhyBfj/MUN+Rut2HJIvh1vsj1VDlygNp8sBa9HMmUJZEf3yr43mgKAkdtbXpgbV14AmMuwPaDAH6AYcCnIydKmEaZJUfvEl/5cdmbJVE9wAjPIcAg4GBQF+gIZAu4ee2COCNnw9+fwJOShMoI9HOpozUbbBntpODjEMXP2/6ujCONqmu+hBJVqo7UfqVB5QHlAfy2QMtMThGt0i+DDBV3hxoBDT2gzfDrUAVwMgTHyi4ZXp9A8D5ObwRG/tMWzp9Y4bKWiv1MPJOAF/Q4dvC3LYF2gCcpJwIAeNn9xfAz4zRRabLvvdv+VkrqeUeUCSrln8B1PCVB5QHlAeUBzQPtMBfEuNmfn9wW+AHoxEkxCTIBKcXkGC5ASXKAxE98P9LcvctbQe4fwAAAABJRU5ErkJggg==;" vertex="1" parent="1">
          <mxGeometry x="-1005" y="1028.6100000000001" width="173.78" height="32.39" as="geometry" />
        </mxCell>
        <mxCell id="oPM9_PaR-ZuRVS3DKRVu-39" value="MATLAB &amp; SIMULINK" style="shape=image;verticalLabelPosition=bottom;labelBackgroundColor=default;verticalAlign=top;aspect=fixed;imageAspect=0;image=data:image/png,iVBORw0KGgoAAAANSUhEUgAAAjAAAAGkCAYAAAAv7h+nAAC5fklEQVR4Xu29B7wcV3k2vle6ku5Vu5ZsucjGNgZsCWPjUB0TbFNkkjiUGNPBkACB0EMglJAEEj4IgYAxKU4BTEkoCQQIaRiI4SP8+UgAAwGJZgzG4CIXyUXtSvf/vmfmnX3n7Kmzs/dueebn9a52z5zynNmd5z5v63RwAAEgAASAABAAAkAACAABIAAEgAAQAAJAAAgAASAABIAAEAACQAAIAAEgAASAABAAAkAACAABIAAEgAAQAAJAAAgAASAABIAAEAACQAAIAAEgAASAABAAAkAACAABIAAEgAAQAAJAAAgAASAABIAAEAACQAAIAAEgAASAABAAAkAACAABIAAEgAAQAAJAAAgAASAABIAAEAACQAAIAAEgAASAABAAAkAACAABIAAEgAAQAAJAAAgAASAABIAAEAACQAAIAAEgAASAABAAAkAACAABIAAEgAAQAAJAAAgAASAABIAAEAACQAAIAAEgAASAABAAAkAACAABIAAEgAAQAAJAAAgAASAABIAAEAACQAAIAAEgAASAABAAAkAACAABIAAEgAAQAAJAAAgAASAABIAAEAACQAAIAAEgAASAABAAAkAACAABIAAEgAAQAAJAAAgAASAABIAAEAACQAAIAAEgAASAABAAAkAACAABIAAEgAAQAAJAAAgAASAABIAAEAACQAAIAAEgAASAABAAAkAACAABIAAEgAAQAAJAAAgAASAABIAAEAACQAAIAAEgAASAABAAAkAACAABIAAEgAAQAAJAAAgAASAABIAAEAACQAAIAAEgAASAABAAAkAACAABIAAEgAAQAAJAAAgAASAABIAAEAACQAAIAAEgAASAABAAAkAACAABIAAEgAAQAAJAAAgAASAABIAAEAACQAAIAAEgAASAABAAAkAACAABIAAEgAAQAAJAAAgAASAABIAAEAACQAAIAAEgAASAABAAAkAACAABIAAEgAAQAAJAAAgAASAABIAAEMhDYCqvOVoDASAABCYXgePnVvzC6v0LZx++ctl5q1esn1tzaP+xK6emplZOdQ7sX+hctffQwjduOrT34/+1a/9/TC5KWDkQWBwEQGAWB2eMAgSAwAgjQMTlaaesmPvrzrJlM51Dh8xKZg/u78wsm+oQeenMLlvorKDnlfRvfl5Oj93zC5/67O47n7hjz/wtI7x0TB0IDC0CIDBDuzWYGBAAAkuNABGXB56y9sh/7hw8uMkQl/Kx8tDBzgoiLbOGvEwRkVmoyAu/v2JqqkP/GSJz0/7OBy7+2a4nL/VaMD4QGDcEQGDGbUexHiAABFpB4IwTjn/+poXOnxF56ZjH/HxBYFh9WZg36gsrL7PLOoawzNDzquVEWujzaXq9nB/dX9ibP31T52GX79p1ZSuTQydAAAh0QGBwEQABIAAELAS2HX/8f3amp881b+/b1+kcOBBUX2aJtawqiQyTl5X0b+I3nWlmM+UxTxzoB7cvvPnS63f/DgAHAkCgfwRAYPrHED0AASAwJgicsHnz2pOPOOJztJz7GMWFH3v3Fg96vZxMR8xJ1tD/RH1hJcaoL/RwkZf1Bxc6u0mKkedb93S+8qGdd5xLvjG3jwlsWAYQWBIE6CuHAwgAASAABIi8HHPy8cd/oXPYYfehBzGUWSco7OPCjrvLScDmH1B22l02tVD4vNAbWnlh0sKHft60tnPf59xlzY1bZqfXA3UgAASaIwAC0xw7nAkEgMCYIEDkZdPJ97znv00dd9y9p448kmxAK4mZrOiurnTeZfWFwqbN+ytLx132c2EfGH7mh5iNVijzkYZpluKtidDMvODENbuIxGwcEwixDCCw6AiAwCw65BgQCACBYUKAyMuqU8466wudzZvv3TniiM7C6tVkD1rVnSI78BKBWd6h6CIiLfy8nBQX/vE0D0t94ROZvDBRCR38+cs3r76JSMzaYcIDcwECo4IACMyo7BTmCQSAwEAQIPJyeee4407uHLu505mZ6UwxgdFHRWAKs9FyUluMCalUXZZZ6ouLvMyUqg0/y0OGICWGzUlK7hnIMtEpEBg7BEBgxm5LsSAgAARSEdh20UWfWbjH3R/cOerIztR6ckmZU24pHHlUOvKy6sJHYSZiBUZeF2HT4vviGleTF/25vE9KzMxFR6/5Uuqc0Q4IAIECARAYXAlAAAhMJALbzj///0zd9cSHLiOfl4UNG82DFZjaIZFI9GZlPlLOuxx1ZHK+lPGctvoiJMUHsKgxRy1buM8b7jp3+URuBBYNBBoiAALTEDicBgSAwOgicK+HPeSpU/e776sXjtncObTx8E5nI5EXHXXEuV/27CnCpxfY76Vw3i3MRqzA1DNQ2DlfGBkhL9Ps2Bt4SFsiMQ//7c3rXze6qGLmQGBxEQCBWVy8MRoQAAJLjMAJW7esOeYBD3wnkxdDXMhxt7NmTTErIiwLd97Z6ezfX2XeFbMRf+wzH/FnWn3R5CV1uXzOPWc7v/+oDevvnXoO2gGBSUYABGaSdx9rBwITiMAp55x7BZmNVhrywsSFc76UxwIRlykmMHfcQdUYdxcZeOlghcVEH5XmIxOFJNFHVsZdJiKsuHBiuw5xIyZA/LrmN1P60HDfos7waz730Rs7n53AbcGSgUA2AiAw2ZDhBCAABEYVgfOe+9x/75xw/P2M2cgiL2wymtpDCgybjm6hAtL8TIdx0i2jj8R8tIyJTBl9xG1YfVkxTURnPb1PXS/nVDL063oY8aA1FF9kTEyc8M4CTkiNEJmSxGx800lz/zKqGGPeQGCxEACBWSykMQ4QAAJLisAZj3/sGyna6BHGWZfNRqy8sApTHsv23NlZuPlmKh99U6dz660FealFHbmjj1YSceGDn2co/90qIixMZlZTIt/9RGZW8Hv0EIdfITL6x1ecgPkzPo5b1vll+MMs6eWCwUcAARCYEdgkTBEIAIH+ECC/l1Wb7naPV04JabHIC5uMFoi0GPMRm46WFT+NrL7EzEfcjgnL8lKFmaEceHMUdT29rtNZRznw+FkS+7JSI0SG+w2RGPaHQabe/vYdZ483AiAw472/WB0QAAKEAPm9/BvnealMRzYqrLzs2m1ITIdfk+9Lpb6QuYjNQS7zEZMQQ0qYvHBFalJaZlltmSseXPSRc/pOUW48Q2LKCgWGvJQPbVrSSgz7w1Cm3i9iA4EAEHAjAAKDKwMIAIGxRoBMR28n09FDpjjHC4dK2+oLkZbKfHTVVZXvC4Ni1JfSrONKXsfEhcUaVmDYdDRTmo9mWYUh/+C1RGI4se96+vcMPbNKY5Sd8peX+5dx5MfYIjGnvHzz3EvHeoOwOCDQEAEQmIbA4TQgAASGHwEyHR1+5Oa7vIgT1B2aJQYh4dIydVZbdu7sHLrhhk7npz+tfF8MyTAPyvuioo/kB9NUnmYFhWojMXHhB/u8rKGHIS7EldaUpIWJCysvRqWhZ1ZilpWKjagwPhLD75+xuvOnZEoqPW2GH3PMEAgsFgIgMIuFNMYBAkBg0RE4+f4P+KeFWapv5FNfeEYcbXQtkZft2zsdrnvExKV03i1ed5PXGdJC4dNCOPgzVl9MDhgiJqtL4rKWyjOuJSLD6gsTmNX0b35wjUgmMazEMImRw6fEiFMvmZKuXHTwMCAQGHIEQGCGfIMwPSAABJohQNl2XzO1ceODp0jyMOqLzrQrXV57bWfqZ0ReWH1xHCtN1t0i+kiIDYdPryzJR2U6ImKymh5MUJi4rGHCwv4wRGjW0euVpMyspM/4sZwID6swxum3DLEWQqSfZTpMYsgf5tRnH7n+Gc2QwFlAYDwRAIEZz33FqoDARCNApqPjNt/jlD9i9aWqb8TmIxU2bZx1+XE9mY847wsnrysP5icrpHQAmZGEvJjnsg0rLmWwUmcNDcPqyywNsZLqQa4gosJOvOu4QgERGP6chzdqDJuUmMhQR+ZBv8JagTEkRuahKhacu37q3WRKwm/2RF/ZWLxGAF8GXA9AAAiMHQKcbVeIS818pFfKYdO3FD4wnR/+0NQ8EqJSV10WDJnhH0udfZfbsu/LOiYk7MRLz4eJ+kKvVxFx4RAkJi1MYmZYhSEiw6Yj8YcRU5JdzVqHWLP6I6akx2xc85djt1lYEBBoiAAITEPgcBoQAALDiQCZjn6HZnY3nh2bj8xhm49K511WXxa++11iCHUfWVFE7NpHkn3XhE+XkUcmfJp9XYigGOWF46YPowe91+ESS5QHhkkMkxfj7MsmpdKUJCqMIMmCi8sfhj9nEnPabOc3HjS38qThRB6zAgKLiwAIzOLijdGAABAYIAIcdUSmozfpIZzRR+T7suzmm4rMu/PzRfHG8rCjj6r3TT2kwuRThU/TGyuZlNCD32NfF0Nc5EFmJPNa/GOIzExz27K9OPLyM/crRa5tEiM+ODyXXz9i5vMDhBBdA4GRQQAEZmS2ChMFAkAghgBFHdVrCEn0EZ8o/i9MWijyyIROc9kANiE5zEcSfSTmI01kOHzaRB+VeV84smgdqS3TbDbSBEZe82fkG7OMyw2QEuNy6GUSwwqMuL0IidHjlg69x1LF6ofFsMDnQGDcEQCBGfcdxvqAwIQgQKajZ9NSH7jA5QDo6Amf5jeZvHDiOlJfqtDpfftqCFWlA3qijxYqhWQFSSKsuLBqwuYjDpuuqS+sxMhDSAzXRCIlhv2K2ZzED6PklM68PAl2CmYVRvnuFhl71QyZxDzh8Kn/mJBtxTKBgBcBEBhcHEAACIw8Aids3rzymGPvYhxcpzjMpzxq5iMmL3yQ4mJKBliJ6/gjMR8Vr+vRR+L/snx5qb6wyWjVgjEhVS409LoiLjaJ4XYcoUTEhf1mmKxwSLV5lCSmUmFUhl5DbFQYd7m05RRW/fSR3zgsAAj0gQAITB/g4VQgAASGA4FTzjrrH0v+0REFxjjw2s67or5w6DQ77x46VC2gXnm6YAw6nFn8Xwz5YCde8Q8un6c30AnMndgfWIiMJjTsD8Mf0/lrS8feVT4VhtppFcaeC6swFFZ92XCgj1kAgaVBAARmaXDHqEAACLSEAJmOnrywevUjTSVpOdjRhB/6YNWlLBuw8P3vF7JJ6fsizerRR5zArsjCy4eUD+DXUtNo/VoyJRFJ4dpHhrQweWESw0PLg9+XB/vCUFv2hWEipH1hpF9WYcSUZIiLo16SzJdUmBe3BCO6AQIjhwAIzMhtGSYMBICARoBMR38n5EWenf4vTAbI92XqFiIyt99e+MOUh1FfmJiUtY8MmRDiQO9x/hf5N/u/MKlYx5l1S/PR6sOoCgH/mrLZiEmMPITE8PtMYlRE0nLOwlv6wBh/GuULw+Nrh16ZpzYllSrMxbgagMCkIgACM6k7j3UDgTFAYNv557+tprzwjZ98YKryAZz+lpUXpb6YqCOuOm2pL92cL1QqwPI5Yf8XPlaW6WI4n8vU9ELnIFmguHQAk5PlTFZEheHXYk6yTUpc2LF05pWQavaDkZBqSW6nHXp1RJLt0PvKY+f+ZAy2EksAAtkIgMBkQ4YTgAAQGAYEKOfL3NTs7Eucc9Hh09yAygSI+rLwk5/U8r7wx6y+aPMRvyfh05U6U/5aMnlh/xd+cPVpNgWZQ1QWJi/sFyMPJjD8nhAZJjlc1LG0crEly6gv5bNej+0Hw5/ZDr2U3O7lw7AfmAMQWGwEQGAWG3GMBwSAQCsInHLqvT4jHS1QXhfzMOWfy+rTehTJ+8LqyzXX1NSXynnXYT6S6tNVgjnK/2LIRtn3DBGRA1zAmkkJH2I6Kh17DYmRoChx6O0GSZlTtBlJQqpzVZhXH7f+klZARSdAYIQQAIEZoc3CVIEAECgQ2Pbwh7+Bnu7Lr5m46IP9X2rVp7X68o1v1Io26vMKIkNOuz3xP0WrFRz2zDWROC8LvV47W+gjTGIOaideIS9CZkwj7kA92IxELIhzwmgzUlMV5tSZqRfi2gACk4YACMyk7TjWCwRGHAEyHW2YOuywV1XkpUxER+akyv+lWiJXmCZnXZP3hdUXttdICemykZiPlnfYUbd48A9j5cRrIpHI54XUFz6VTUachZcP7o6LNpqoJE1Y+LVWYcSMZJhQ8ZBoJLZ2iRlJ5i1RTvJvSW4X8oUhFeatI761mD4QyEIABCYLLjQGAkBgqREg05EpF2CUFyuLrpmb9n+hNsv2UHg1F23k9hx9dJBtPt3DkBZJWsdmpFKJERIj+V+MOkNvMomZXkHn0DOrL/OcyFfUFRscJjG6TqT4yZR+MKy48GEqVFv1kWpmJAfoti8MqTC/tWV2Gr/pS32BYvxFQwAX+6JBjYGAABDoFwHK+fJ86uPnQ+RlSvK/MGEpfV9Mcjuue8QEpkZeCqdYIS29n3XLB3D9I5M9l1UYIiaikpj6R9oHRpx3dWeayIgzL3ObUs1h8mL8X1RmXhurFBXmgsNXv61fjHE+EBgVBEBgRmWnME8gMOEIkOlo9eYNh7+tRl64inRZSZodeNn/RR9Tt9xc5H1h8sLOu0p9kegibq/NR+bfVviPEBwTgVSqJvxsSggIeZFnmYCtythty3BqronEZikxIzGpMXNQ5QUsq1e1RIcK86IJv0yw/AlCAARmgjYbSwUCo4zAySfd7cNEXlZUZqOSuHS4ZAAdtfwv9G8Om17YvbsoLXDddU7nXW0+qnhHGXJURCCVJiWqf6RJBBMONh9Vh5iJtLlIPrQVGQfh0Unt+DTJCVMjY7zGstBjyBeGsvM+Y5T3GXMHAqkIgMCkIoV2QAAILBkCZDpiZeH8agJKeTHkhWse6fIBHFK9d29dfbES10lfOvpIlBcpHyD+L9xW/F9WmQiiqc78ARWBxA2YvMwHINIZeoXEEAnSfjCuAo8x0G0Vhmok/W3sHHwOBMYBARCYcdhFrAEIjDECZDpac8zM6jebJbLTriYvlvlI/F/YcbdSX9h05HD2tZPXCWnhYZaV5QMk/4skq6uS1lGbGXbIZWIjTrxMXlwKjN4b/XlJYiScms1TXBuJTUf8njMzL5O1uArDlap/fYwvCSwNCBgEQGBwIQABIDDUCJDpiCtNr+whLzxrNh+tWlULnzbkhcKmK9+XH/+4Z32u5HXyg+jyfzGflQ68JgJJMtnxB5yYjtSYIHnRYdWS0I6fSz8YLu4oh8t8FNsghwrzV7Fz8DkQGHUEQGBGfQcxfyAwxgjc7z5nPJqW94tO8lKu25iP1MGmo86u0veF1Re7KnXZVkcfVWHUHv8XDqEW510+nc1JpgAjkRDjF2w78Lr2hPyNayTHcvKt/GCYKKloJE2WTH0kWTeTKuVsrH/MqdDjNKkwTxzjSwNLAwJQYHANAAEgMJwIkOlo1YZjjv37HvJygOQOfuij9H8x5EUeHHnEhzj7lu3t6CPpplt9unhHiyziwMtKiQ6hzkJOEts5yA4TFhPVxLlguDCkx4wk44lpS48PFSZrN9B4DBCAAjMGm4glAIFxRIBMR5ywbnWNgNjEZd06U/+oFj4t6stttxXh01biOkNOdPI6K/uu1D8y7cryAfza5GxRv5gi7CynitTVIU68rLZYHKu2R1p9Ib8X7pvDqLWPTeqe+lQYOn/9g+ZWnpHaD9oBgVFDAARm1HYM8wUCE4AAmY5+jZb5sFrItJAXi8RI+DQrL+y4axQYJi5cRoAfjsM2H7kS2WmVg4mMHFJKYF7IiigqmrxIYyExvugkhxrDak/lwFtWqLZzwrDlSJx59fK0CkNmpM7zNs1+egIuFyxxQhEAgZnQjceygcCwIkCmo8PIdPSumunIRV7IgbcKny4XM7WHyAvXPGL15dpra1WnZb3aNKQjj/hzKR9Q5X8xhRsXCvVF10Aqfzm5nlHU/4XVGDlcodTlZ2yeYj+YaXbsZTNSLKLJs4HWj/rhpMKcMKx7jXkBgX4QAIHpBz2cCwSAQOsIkOno8ih54VGJwLD5iI8F8nPhh1FhuIQAKy+sxFiHK/pIF28U85GQnEKpqafl5RwwfFRZeEVlsQmHTVxkLqLG8HkqEqnKB1PWW7L9YOy1aBWmZkYqp8vTZBXmnHUzr2t9k9AhEBgCBEBghmATMAUgAAQKBMh09AIiL/ercr3YyovYbVbQnb8Mnxb/FxM2LeoLRx85EtdVladLYiLRRz78pQI1kwl23uXDEAsuKcCdaT8XJiZCTmxzkjYhCdGxMvJKXSTuV5uRZMyU0gKyDv3DTkUen47rCwiMIwIgMOO4q1gTEBhBBMh0dMKGjUe8o5aojtfBJIaJS+V0Qu+J+ahcJ5uOuGSAUV8oB4wdeWRIgCgTXHG6s1AhpKtP85tsPmLRRTvwisIxu6aoQm2mlRo+HdqLQPi1zsqbsp1ahZH2osJQSPULUvpAGyAwSgiAwIzSbmGuQGCMETj52OP+vbY8CZfWxEUaiPmIQoGM3wuXDeCaRxJ55MFJ+7zY/i9TJhqp90QpIaB9Z4z5SB9aiWHTET9caozPmbesqyT96mR2OiuvHlJywvicefWPO5UXuGSMLx0sbUIRAIGZ0I3HsoHAMCGw7cwz30fz2VIzHYnyYk+0NB9Vb7Pfi6gvEnXkMR/xOTriSPu/8GfLiMR02xQOvFUOmPLXUhLLOUOebYLiikzi9zzKS+XIq/LByDplXH72Zet1qTB8PvnCTD1m4/oHD9OeYy5AoF8EQGD6RRDnAwEg0BcCZDp6QGft2qd6yYuYj0SJWbPGRB9x+LQ46lbqC5uQ+OE4mKys4OrSpfmI/V80meH6R4a8lOdqMsBkRYdSsyrSc8RCpuUEVm906QEHmTmkc8vwnErFp1bCQE0gFlLNTR+3ceqjfW0UTgYCQ4YACMyQbQimAwQmDQEyHX0uSF60vYZfq+gjxqpSXzgK6fbbnYnrVlqmIZPIrlRbbLzF/4UdeDkCySYynDF3nvxfnGHOWnERU5KORuLBXApMWRNJMvJyYUdx5A2FU+vSAq7rxvqBP4JCqk+atOsL6x1fBEBgxndvsTIgMPQIbDv7bM62O2MIjO3zIoqL9oGxzEdMXir1hX1gmMB4DlftI/kBLAhN4cArhyEvnIm3VFvElHSACIhTgZETfX4uEqUkCgy3DznxltFI3MzlB5NiRrIT21FI9SuG/qLABIFAIgIgMIlAoRkQAALtIkAh008iNeWXXRFDtYgjGZbVl9J8pGdiIo+YAHnLBhStjcnIij4y7/eoM473TEmByPrtkGqtvOjXOoOvVW5ASgpIYUczP2WuklBq25Tky8zL51sh1b/R7i6iNyCwdAiAwCwd9hgZCEwsAids3ryaQqb/3mk60oqLDp8uzUcCWo/64vF94fYryBwkRz0SqWAl7P/CDrz1Ao5FyDSrGOxcOzXNGXnrVamrTnXEkVZgxIzk2mlJZBdQYTjfTDVvT2ZeUYb0EJGQ6idP7IWHhY8VAiAwY7WdWAwQGA0ETr7nPb8aJC923hfDQorkdZJ9l01HKeqLkBJX9JGNlvi/CAEwfiixX0mX865OaieD+ExLZm30KEOppXkV/cQOxCV5sc1GLjOSLRTZZIZCqt8xGlcJZgkEwgjEvprADwgAASDQKgIUMv0PRF5O6fF7cfm86JEd5iOT94V9XwLqi1SetqOPuGsmNStMVt66/4t24DXEp5xHzZzjUk7sCtRCZELkhftW57Haw47CHPnECoz44YjfTcyM5Nos64d+IznzHtfqpqIzILAECIDALAHoGBIITCoC5PfyNPJ7uTCbvFjmI6O+SMZdfj7IaXHdhzjvFoRFm5K6WoWd/4XbauWFX0spAf6Mp3OQSYdNWPhDF2mxk9rZUy3JEBeHdEUdBZZneoqZkRzOvK+e1GsQ6x4fBEBgxmcvsRIgMNQIkN/L8g1r17+3mqRdIsCVcVcaU94XNh/xUTMdRSKP6pWnyzwvnvBpDZ4UcDRJ46xfyWn6dzVVUWFsB17pzFUfyUV6AjvHZqIqiZ3DDybFjGRIjhqD6iP95lBfLJgcEEhAAAQmASQ0AQJAoH8ETr773b9qepGQadtZt7rpW3WPyuij2gz27Sv6CagvzsrTZbI6/uGrPq9qJBUjOB1gU34ptSJj+8DYCkzMpFQulsmJnQ9GExZfNFJot1R9pCf0v6voAQgsHQIpX8ulmx1GBgJAYCwQMH4vnc7pNdMRr8x21uV/S+I6IThU70gXb6wcd1l9YRKjcrdosKTytLwn5iNXOLQUcOS2RQVqytpLaocxP6lfSf3a9BsyI5n1lQ95nbCbtVDq0olYVCDbD0Z3ZytFzMs0GXM48/5ZwnTQBAgMLQIgMEO7NZgYEBgPBMjv5SlBvxdZps+Jl0sGlOYjQ15EfaEaSB3Oue+qe2Qcczksul4uoEtiuuHTNdJj/SIa9YOJTOiXks1ITGSErPiikhZxOz2crmZGovpInJl36yJOC0MBgVYRAIFpFU50BgSAgEaA/F42kt/L+51Ou1p9sf1fRIWxnHdN36y6sPriCrV2wK+jj2qKRfkPyf9SmJSKN+0SAvyeLt5onHjFDOTzabGdeRPNRjyWjkQSk1GqH0wojFo78/I4jzli9o24YoHAqCIAAjOqO4d5A4ERQID8Xq4009RlAmyy4nLetcxH3EWP+sIkxhGeI2HPruijImy6uMVPeZx5pYRAQWSE0JTPZWhzyN+4ZlayfV9sPxm9h1QPyXf48r9ISLWc5zIj2X3qH/3NU51Hj8BlhCkCAScCIDC4MIAAEBgIAlTn6LPU8V2qUgEuxSXEBFjmYPORPrT6wiYkzyHmo4KE9EYfaWIi/i/i38L+LzYh4Cy8fDBfmg9FEfnCqmMIWzlldCi17cir/WBC3frMSHKOcuZ9amx6+BwIDCMCIDDDuCuYExAYcQTI7+V3aQkP6XHa5XXFEtbJ2sV8VPq/GN+XO+4ozufXDt8XGzbbfCQ/ePws5QP0OcuXqzwxpLawi00tFLtUYAwx4qrUNI0qF4z2fXE592pyYxMd+XeZjbcyT/E8U7IBczs10RQzkqybMvNeMuKXG6Y/oQiAwEzoxmPZQGBQCBB5eSz5vbze6/eiSUxoEuvWmegjc4jjLpuiWHlhIuM5JPqoq7IUpESrLtp8xO17CjqWv4w+8lDzgeHOXY678r4mM+LsGwGfyRGPwUUd5dCVse1kd3Y4te7eVYNS//CTM+8GcuY9cVDXA/oFAoNCAARmUMiiXyAwgQiQ0+7hRF7+MZu8sG1G+7Pw3ZtrH2nywqSFyQv7vnjUF537pSAtdfOR/JvVF1cVajnHEBfrzs+FHPlgE5LT8iUkRkhKSsI6RxvOxptySII7m7xoPxhvNJLl23POupmXp4yJNkBgmBAAgRmm3cBcgMCII0BOu9dkkRebuAiJKXO/VHDo5Hf82nPo3C++6CN9qs7/ogmPtOnJ+0IfcH2iKkhKSI6PrKSqL4GK1Bz9ZPxgyoer1IDMN9WMxO2tzLzPG/FLD9OfQARAYCZw07FkIDAIBMhp9+tEXmZ7Io58Pi+hAj9cOkAOIS+ivnjO04qKy3xk/9hJ/SNDXJTiUlWBLk8QEjN/sOsfUy2p+1YxW20i0mHTNsHhzxIUGk6mZ8iGo6RBzh66zEgVSaMPyYzUefaR6y/I6RNtgcBSIwACs9Q7gPGBwBggQJl2/4XIy+nVUlwZduVDW3Wx18/qC5uP2P+FyUui+mKIiCSv61ASO4f5SExMekhNfCQCScxHnI9FDjEh9WyXNh3Jh6Fkdi7iYr0nkUb2WDojb8gPxmdGimTmhTPvGHwXJ2kJIDCTtNtYKxAYAALktPsaIhu/bLrW+V7430JkxOYSK6vMDh1iPhJTkTjusiNvQH1xlQ7gTLyuo1Jo1IdcQsCQIEc2Xl2JOgihHYlkMCgfmdhr8sSnCinRPi8+PxgZKqS8mD7rczqWnHmPzJwmmgOBJUMABGbJoMfAQGD0ESDy8hxy2v2jHr8XTV7kdcpy7dwvWn3hMgKBw1friMmKHT5tbt6k0IScXF01k8xSSpJygPyOnUdunpgEXIKlDKzzXdWpuUmKGem0mZknJ0wHTYDAUCAAAjMU24BJAIHRQ+CME47/JSIvlwaddmVZMbORtGP1RR9afeGkLJHD1D5ymI+i55kyAhyZVGbpDeReYSfeniPmxBvKwBtbUzleqiOvdNfEjPTgdVNvi2GFz4HAsCAAAjMsO4F5AIERQoDCpY/YdMKJ/5oVcRRbH9tG2HlXcr+w+sKqC5uh+DkUOk1922HP2nxUkJOifIBRZIyvTHG4TEbcVwJf6hwMERdX7SNdPynBiVcsb7oOk8Do8pNx5YPJMSOxMy+ZkU6KbRU+BwLDgAAIzDDsAuYABEYIASIvMxQufX0SeUlVXnj9OveLNh0xgYmwCV152pCSss6RbQbi/C/6qHxhKAOvLiHAbVjBWGH9QkpUUK0TieoWlUUTE+3/4iI0ARKjnXR95ipuYxd7NHPX6YPVZJ1J7aycMBceNXvpCF2OmOoEIwACM8Gbj6UDgVwEiLysIvJyM5GXZcnh0vYgQmq0Qy5LB2vXFi3FeVfUl9tvD5YNqKX6d5iPtP9LbL3OBHYrurHSB4iEmER2tv9LLLIoFFKdoMRUuWBK05attIQy8cqatb+PrVbpG8GRhzrbYjjhcyAwDAiAwAzDLmAOQGAEECDyspzIy05nrheZv05Ra0cMxdQYybzLfbHvi9Q8CqgvoqDoG7Iu5MhdafORUSdIndEOvC5nXZO2P/Dr6Axz1kQkgZQ02fIUZ95alFLmL7wq8PiUJvPDOUBgMRHIvLwXc2oYCwgAgWFBoCQvNxJ5KWUSmpldXTpGXlyLEZLD6osQGCYvCb4vhpwYgsL+LL2lAQxZUWPq8gEu/xdx4NXT9JEYVmB4ubroojlPO+v6/i3vJ25ulcyuXExlMlI5amJdadNRyIwk/VCBxz+N9YnPgcBSIwACs9Q7gPGBwJAjQORlipQXJi8bipu0Ihj8bztpnUt5ia1RvFWlf1FfYucxSVF3ZJ28rpagztFPPXNvWTOJlRdlkzpYBj65nGi5S1OR2s7GK2PZikyfqowIUYeU+YqVIO0rY+eIsZedakai844iZ94MipSwUWgCBFpGAASmZUDRHRAYJwSIvCwj8nJdjbwwgZHDrmrYhLysouqFWn0RQsR9JZiPDJHgMGjyfzGvPY66MmU2H+nD9gep2nE16PIXkp1oXX4mlQJjl2dKyQWTSWiMf46qiVRbAxMZj+NuitlJ9yVmJMoJ86RxupaxlvFDAARm/PYUKwICrSBQKi/XU2dFdladZVdIhlZfmpAX7bxr9x+LPDLEpTAfFSSGzUhdOYR/3Kq8LuX7Uv9IcxjOwFuVECh/EW2/GFZgfEmETSg1VT2ozEch5cUmLQESEysnEHLcjYVTp5iRKCfM21u5kNAJEBgQAiAwAwIW3QKBUUag9Hm5gdZwRHKiOr3gWMkAact3Wu28q9UXfh3I/cJdsHqi1ZeqW+sOrf1f9DTrdZC6n9iqhTfrrpziKpCdSmQcJGaaRCkd6bScktlpM1ZVViBi5PGFU8u0Q9FIlBNmA5mR7j7K1zHmPt4IgMCM9/5idUAgG4FSebkpSl7EfNREeZFZ6cy7EnnE/fLrmAKj1JZCgRFn3q4K44owKhx/3VFGfEOvFTwsfyFXLJC64zDRNCon4NoRi8TMU9knVmB66iF5zEQ+P5iKqKhfel/5BBexO2fdzCuyLyCcAAQWCQEQmEUCGsMAgVFAgMjL4eTzchvNdS45UZ1eWKrywudwxl0hMJq8cB8R9aWKIrJKB1Q3bENSxLRUEBoJn9bTLRScrgOvadfgV7HmyBsLp5bPbeXFpeI4Lhp7fmJqksKOoessJRpJL//UmalnjcJ1izlOJgINvqqTCRRWDQTGHQEqzPhIk+el01nTKnlhJcWlpth1j8R8xGQmQoRYbRHzkexLEUpdlAoI3sQdn+sQaplqTeyY7g01sv2XzZgu8qIz9GY67nKXOkCrImilM29onSnJ7Qpi5++FSws8+8j1jxv3ax/rG00EQGBGc98wayDQKgJlVelPmE4ljb9WReRunWM2somLJjF8d5XSAbb6Ipl4PSvU6osPBElexz9wrvwvcp524JWbuU+B0ZyqlvJGsuwmKigpG8c+MHI4iVL5YQpJcfnB5JiRkBMmZcfQZikQQJz/UqCOMYHAECGw7cwz/47MOU9ujbykVEHk0GkmMDZJSjRBiWoglaeL6KNCSvD9VabDpzk82nbgZeIyJVFIqpMV5m5Pyo7H/8S5lay0cBVpebYb+cxIZTv2gZHDwFSSpCqUOlKYm+dqQ8nn2ltTrKx+GGzpTTXEXYbocsVUgECFABQYXAxAYIIR2Hb22V9plbzEsOQ7KN9dtflIRx6x+uKJPOKu68nn6oO5zEdcfdqQGuXwGzMxcXtJYMevDwTmUwlSQkhYhYmFSjcwI7lgtSORpLBjjGilhFDLeKq0wEWxrcXnQGCxEQCBWWzEMR4QGAIEyFn3KCIv/Hf9fcx0UsxG9rztP/F9vi72efoOq/PJRBLXGQJjSEw390tBaur/1sPZ1adrn3l8PyRCSQhCocB0j/mI+mGUFz5cYdQNyYuzCraaky9nTIjMhMxItl8MmZEuGYLLFlMAAjUEQGBwQQCBCUOA/F2eZ7LrFnwgnbxowpJo6umBllkBqy9sF7GT4CWqL9p5165fJMnrmITIj5soLrxY+6Zd+MqUpicVQh10bI39aqaSlIgZKXRZ5kZKiR+M6zyfD69eJjnzzlFOmNUT9lXBcoccgdhXccinj+kBASCQgwCpLv+xYeMRf16dk6K82FWkmyovPKg478oEEssGmFP5oTPvqtIBMfORXT6ASQ078MrRU7Qxwd9FEs1JLhhnKHUqmUnYRE5mx0dFRiKRSEH1xTGej7QJAURpgYRNQpNFRQAEZlHhxmBAYGkQINXl2UReDpC/y3nGXMRHCnmxp+siLzlLYuddPmz1JZD3xZAXSyaoO+/6J+BMZKd+9aSEgO7BqBRlwUTX+VETUkpdJF8OGOW8mwprzOcl1E+OGYlKC6BCdeqmoN2iIIAopEWBGYMAgaVBgHxdZslc9GkiLmfVZpBKXkJmo5RoI5sZ+Jx3Q7HCqg8794uNqh0+rT/nm7WLkIhZxWThrexOefslRR2nuSaSHDoCyafEZCo0XE5gn8MHx1TF5oKT6hddtk4ikli50ZWsa9jQP1xFtRkOGa40I93jv3bt/14eOmgNBAaDABSYweCKXoHAkiJAxGWawqM/TOTlzhp5YeKyFOSF0VitXCgSax7xaUWtI7/zrpiPQj9mtkUo5OOSs3GJvCuny6y22qfF58hrdyjn5EYjcT9UWuBlWRNEYyAwQARAYAYILroGAouNABGXFWQuei0RlwOdtWsfZ9L1y7GU5IXvmpJSVpuPpAJ1AlCadNjOu/bpOnza9n+RtrqPoFPsCkcWXq2cSCI76rjygxEzUkhhSVBftKIi865ywSzCr7dN9Ki0wG8kbBWaAIFFQQAmpEWBGYMAgcEiQMTl5JOPOeYdnTVrzjOkRXxN9pVOFUtJXnjpPCc7J35C2DSfKuqLeW3UmG7SOo1qyHxUnVsmsCsceLsRSPy5JLGrCE4iQWD+IpHT00xcVBZd05cvmV1FLP3Xhpimml49roR2vWSvSL3jSmrHbS0zUucxG9f/wsdu3v2FpnPCeUCgLQRAYNpCEv0AgUVG4Pi5FbMbDzvmok1HbPo9Ii7H1ogLz2VYyIuETvOcdN4XycIbwE18VozvS5lptyAj3crTOmS6Tmi6/wo5q3IEklShtqtUT3ENpAM8eKHCMOeSnCy8FDHbSCTSPvpFrfgLkxkRwBLUFhcMrMAcUgqPbqOz8mpXpRQ/GFdWXumbsTjkcIhhbA7S+4/bOPX3H7u5c/wiX+4YDgj0IAACg4sCCIwIAkRYTifCcj5Nd8umucMe3VmxYo6IS6FuiOIia2HyIqoLvyemGk0ghFDIOW067NaYROmBouspifoSyHIrXRRlAopDoo/cLqdFm8J8FKnoSC2KCKR6O75Bi5rCfS3M0+er1fjKmcZVZNFASs25CKLzkPICiddcqgIjkUgS2p3YvVd10ec7CA1KC6QCjHYDRQAEZqDwonMg0BwBIiwriLD80qZVMy8m88sD6LGWSAvdYenBpEURl6nZ2c7Cnj3FYItNXlzRSNqpRJMrJjFMXhLVF124sSeUulYegM1BxfIl+y6XD2D/l5ADr+37opPeGTJkVaHmqZsfTYJfKzB6l2tmJK3CcCNf+HTzy6R2JitCuSTGrJOwyzEjUYXqp/3NDbvf19K00Q0QaIQACEwj2HASEBgcAmeccPwzN61Z+1Ia4Z5VxWaLtDBh0YeTvDBJMDdNeh6E8hIKo+bPmB3wvF3Ouxkh2K7CjYU5icxIKuNuQV6Kw5f/pSIoZYFGwbBpVBKTBbM8NvO4kt+xCckmMb5LJyMHjA6JNuagMm+Nq+sUPxj7vJgZiUoLvOFvbuiAwAzuZwA9JyAAApMAEpoAgUEjwGHPG1ZMP538WV5JY93d3Pj5UEqLTVpkTl7yolUOHflTVSC07nrahBQjGLHPZXK2aUuy+vL5kaKNOnQ6pQAjD+kzH+nzxYG3Ii+1xHaFP0ztKH1geOo9GXuZu7AvDFeMLuE0fjBMRtgZRqKRXCTGTniXcJFJNl7JBRMjL7pLOx+M+MH4nHf1uQ5Cc1zCdNEECAwUARCYgcKLzoFAGAEmLpuOPvIlG9au/x1quakKe6Ybf4/KovKoTN15p+k4Sl603wmfsJjkxRc6LWakBheH9oeR0+Mh1e6BfOexAyuTpx7zUqC8AAswwR9TUWL0VFzvqc9dpqCDygRlVBhPYUmXI28M7gZmpMeSGekjsX7xORAYFAIgMINCFv0CgQgClK/lqRuOOfZ11OwkF1lxZUblLhuRF51xrR9n3VTlhScqOWh00roE35cuMWEflq45qCAc7ugjMSWx/4t5neD/oreHQ6idGXm5UZkHxqfABLfZVmK0SUkrMInmI1ZgNImRsZnMNK2v6Zt/ghnpEjIjgcDgl27JEACBWTLoMfCkInDC1i0nnnz/B3yM1n9vwcDEw2iFxQJnoVRcauRFnHW57WJk180hLzp0Wq8loQ/JvMunSei0L/dLyjXkLh9Q5oEpQ6hT+tFtuB5Sz4+n8oPZRySqMiPpE7VJyTPovIfMcPj2gTKkWpuORInRNZFs9cb2gxEfmlA4tT09B6HZTBWqN1BpgVty8UN7INAGAiAwbaCIPoBAIgLbLrroA1MbNz4xqfnevaZZkLxIYcbcMOmkCZSNEkhHT3dS80ibrHiOEd8X3Y8r8y4TGl15WpLXGbLjCF2W/C/ad0WUHC8EkUrUOnGd3Yf4wdQy6IoKk4j5NPnO+EhMD6lgB16PGck1nM+hN8UPhvuTpHaqQvUTicD8ZeLS0AwItIoACEyrcKIzIOBG4F4Pe8jZm3/hwR+jTzcsEOmYIvOKfpazpvYUpEWOKHnRxIVPcjnr8vtNzUY5d0eZNHu06iQp4vPCfSX058u8W/i/dFmKL1Eum4/4sHmITXC0j0tKFNJyiygsEB8zQ4UIT4y8OD5PJS8p3zVWWuztD51n+8H4zEjSB1WofsOl13dAYFI2A21aRyAxWXbr46JDIDAxCBB5+ZVjf+WRn+vMzGyYOuywztT69R163X3W9YoEFVJfNHlhZ13jsKtzvLhUF9tpN3b38hGKRLLh3EQpG6B9X6S/SOI6X+bd2MUizr3d892Z5IoIJPeRGumkz+YAJTbXmKVa3bIZyRxiEnKZhjhSKdH/xWylJ6Ovq5aTq45SDMfY5zbRo4R9h5EZqR7TH+sEnwOBlhCAAtMSkOgGCLgQOO+Nb/jCwoaNDzJ/vM+u7kztubMzVZpXFthEVJqJ+GOjviizkdPfxWcy4g60+mLudoEwaf48RF6abqdEHtlOw30QosJMVDjvysF/eWnzkW+6PlIiEUgmHb/iOq4waen7INdRUgMxuj4/GM6gGzUjxdQZx6J8Trwp2xXzg2liRuLMxafNzDyJzEjvSpkD2gCBNhGAAtMmmugLCJQIkKPumm0f/vDCwuZjH9RRSecOEYnhw5CX8jCmpFTyIqqLnZwuh7yEyESCiSe4yZK/RgiVlAxI9H1xm4+6I2r/F01mdPZde35MSorIpD4uTy4pkHhUfjC0xZUKo5UWrbhY6kuO+UjMQ1X0lC5zEDBraWdf15LEb0hWHMONzEhvTYQGzYBAqwiAwLQKJzoDAp3OGY9/7LaTX/eHt7uwWEYKTEVe2EykyAubjPjByosxGd16q9tkxKYkJkAp/i48idQEdf2SF76TuhLXJaovLvNRLMcLL69IXtd14pXyAa4CjtxfUQMp85CSAp7Ciq7e9mt5xjYjyb+tytXswJtzCImRc5icDMJ0pOdkCl+qN8iMNEdmpM0580ZbINAGAiAwbaCIPoBAiQCRl/M3XfiET9UAKWsUVeSFicvu3Z3Ort2dqVuIpJT+LkxchLxUvi63Ew+6447eYow8QMzfRbLepuxOv+SFx9COGLbjbqLvS7fKdFG4sSAm9dwvxXvpiogsX/u/8FSlCrXkgJHpO8WLDAXGdoYRFWZeKlMLSXH4v4gC06SekW+bmeTEVBeXD03KZaOikS5MaY82QKBNBEBg2kQTfU00AkRefoXIyycNCExaygcTl6lbbi6Ul5jq4nPUdZmMNInh17FIo0H4vMiO8x3QdkbW5qOEKyMSvVz1oOsd8WsxHyUM4W3izWi7UBIlq6ij7miqdKx1OfIuV0FlpsgjHyGn3sRFrLDAspUY6SamxtjnCS1sYEZ6Y+LU0QwItIYAnHhbgxIdTTICRF4eSeTlEzXywjdXMRkp4jJlRRjxOT0RRvxmKERak5elcNa1N9suG5Dp+8LdsdKiM+/Ke5L7Jef64huwSYhXsh1XThndX0/ZgMifdgtsShJFxTEx9oNhksFmJOYaJrFdwHLFykuu+SgHj4rQlBl7mxR4rOFVevxKZDmZkVaTGelwcua9qcm8cA4QaIIAFJgmqOEcIKAQIPJygSEvrJ7cfLNRXirVhfxYYuYi4+ty221FNl3JqMuZd0Oqi6umkctkNEjVRTDQ6ouYjjLUF1/mXdtMJOUC9Pva/8VXPkBHItn+L7aDqv3vg6V/TcdjQuJcMBJKzXAsE5VF+cpoFaZy6rW+QTnJ6zTsZkwhadav+XSqpNXnt1nwPWfdzMv77AqnA4EsBEBgsuBCYyBQR4DIy+M3nf+oj/iIi89Jl3vpUV1SygHk1DQaFHmx+9Xqi8CTmPel56/6xAtMyExic9PMJkQmjT6pIqEom+ViQioH4lBqObicgH0ccqgy4szrU2FyIo/0eK7t9ZmSfO/X8C/XZnsXpXobnToz9aKc/UBbINAvAjAh9Ysgzp9YBIi8PH3TQ7ddJooL+7iYR5mrRUKjs+oYMZqu6CIfceH2tgmpbeLi6k/e44y7umijqEAZkUc6dNoQDS7YqHK/2KUDajfdsnhj7CIsHHi7t2KXacnuw5dDhpfoUzfMNnEiYno6QGahFaXDLqswB2eKEgGstgiZkX/nkpiDHAnEBMxK9WPwk+y7VsSUz2wkdZHs9UtWXnnfzspriB/BqsxIs2RGOpnMSN+N7Qc+BwJtIAAFpg0U0cfEIUDZdX/+qJ9/0GXaVKQddDm6aIHMSRIWXQuN1uYiV4SREBj9LAiH/F0SSUPyZqX2xyRGE6zU89REjO9LhIxo510+VcxH/FqXDxD/F33jrZEex6+el6yICckDmvAHceS1my0rHXZFhWESY0hGvWJE7TSJQOJkeKlHKIrIduQVghOLTEod26yn5IZkRnpVznloCwT6QQAKTD/o4dyJRMDUNXr4ts/1RBXxTdXnoMtI6TIA/G9x0uXXg1JduO8mIdKp50jRRh7HVl8iodPmxmdufl3vVlFfYheWK/qI87/oQxLYxfqqn9T1KeEss/YP5LKA8y4TD1ZmjB9MaUo6pPK6CGnhLgyRIRLTxPfF4FYqHz71JGvNLTYmM9IzqLtfa7FLdAUEvAhAgcHFAQQyECDy8jAqyvg5dsztcc51KS4SFs2qC+d00X4uvmy6OVl1QwSlgRJiyE4qeZGijS71JYW86BT+lvqic79kbE+0qfaDYdWHc8DIYcxKyiRjnIstHxhpmyqOsBnJpcJok5KoMtx3LflddDVFgyojr8NpN9WR187qmxpO7Uhq13n2kesvSJw6mgGBvhAAgekLPpw8SQgQeXn4MQ944KdNAjpK/a+T0PWYijRx0dFForrw57apiMHUZID/bed2sbPqtunvkkpcZNND6kvkwhCTg4ROh5rr6CM5z44+SrkOfRl4a+YXV+QOhxmVxyGHZs2RSPrYT7+qmuBoFcaEVZf+MKLIaHOSkJ0gHitSVtvbJiWhXbOei7Nkb85dj9IC/eCIc9MRgAkpHSu0nGAEqLbRkZtPu/flHc6cS4d2zJXbm4kq4kNMRfxaFBd+zeSFD18JgDYcdbn/XCKS257HCKkvideJcAXxfbGdd33d+MxH3J/t/8J9sANvobzUE7HEavwkLsM0Y46jf0y1GYlVGLYkucxJrL4wgWFis9Ih6xxKlXrKyWrHXvZ98fnRiENvv/lgPBidkIMd2gKBpghAgWmKHM6bGASIvKw+5ZxzfyhOuS61papb5HPQFXORrmGkSwHovC79OOrmkpHc9rLrrL7oOfP6EkOnU9UXiT7iH6nc0gGxAo5ZqfNXpNVO0o68tXDqktlodYUJi6gxDCmTF10+IMeBl8/X63EpLbGMvPrL7MPGV9zRY0a6aGJ+ILDQJUMABGbJoMfAo4LAyfd/wNeItJgy0rpeUZXHRRQX8XHRkUU2ceFOcohLTiHGHDKS4+tibxSrL/qQOWaM71NfuFtWZFxHP+Yj3Z+EUJsbfzlUCqGxTUUmG691CAlhBab6uHzBCgyTGFFbmLTwaz6nie9L29+fWFmBlPGUGenilPZoAwT6QQAmpH7Qw7ljj8C288//ByItJ/NCTYVoWTGTFj7Ev4Vfi4lIm4r4fbvoYsjPRfrPIS65u5BBNJxd274v3ChRfZH+fL4vRUTSVFHA0cFjXH9xSfVp7tsXDl18xpWow2A5k9dq+xBbATnSiKfJ5IN8njUh4t6ZvOynKKSVKhrJXC1EVNiUZEhMSWaWlU7DKb4vudss7dmRt83ikInz2JDYDs2AQGMEoMA0hg4njjsC2x7+8LdMzc5eaIiLOOUycREzkSuqKBRZpMmMuaHR3cvlpKsVjZCTbg4REYKRc45rg7X6kpm0TgiGiySETEQ9GXQ9Co1EUWtC0fV/qS+mXhupvyuZOYhWZ1zZeHmEVZYSw++xKpMaKRSbZYycGXLlqEydkw8m04yECtWxTcPnfSEAAtMXfDh5XBG4333O+NXOqlW/Xfm22GYiOxza5+PiMhcJedHgpWbTNXc9Rw770Ebktg/1tcIRApOpvpgbqUpcx867Bbkh1aVUX2QK9g9UTvSRJim+CCS91Hr78JXtikZioYb9YKp6SLxVUhuJXrMKww9WW8Shl1/b6oj2f5mP/ELbpCWlZICsLERcpF87nDrl+67MSH+a0h5tgEBTBGBCaooczhtbBMhp96gNG4/4aE80kaw41VTE7WPmolEhLoZ10N20ylNfqkcZvjTaeTd28dimIAmlXmapL3byuurmnFDAR+eAic3H/twktPP8eu4nlUM+YjVGcxDJayckJmY6miaual9COXPVkUihqKSKMNLcXeUJcsZUbY9veB5OAwJJCECBSYIJjSYJgZM3Hfk149siJiKttkiV6BRTkR0W3U9Ol1wVJbd9ygavUmllub0mLwmJ6/gUbT4qqlBLiHOv825q9JEvfNq1JDYv1SJ2BvQLaPxgeCx6tlUYnpcoMfsUCSq9qlJ2otbGVl14fTlKTPaA5QmuSt4azmnaX0pqh6y8TQHGeVEEBvT1jY6LBkBgKBHYduaZnyfyckxPxlxJQCc5XOxw6JCpKBQWLUTAhUaGulE7fRDkJaS+JIynFRUxH+k5SzkBXVZAPndFH/kuHtuhVvxnbAfefnPAqNx22dcxExWhguIXw53we9p8tJ/Vl8Av9LKIfq5NRNrPJtUPxjZPiY9Rgrilk9pdnA0QTgACiQiAwCQChWbjjwD5vbyCVvngqkaRkBaX2sJw2AnpUhSXQWXSbctJ17fNLvVFyFeG+tIlKnX1pU5min/V0v7Tv7X5SIo3+qab6/+iiY9Ngnxj2FHU4sjrKuyoVRgmKuIPw32L8mLnfmHzET9SjqaKS4oDbwphCcxxPVWonk1ZA9oAgVwEQGByEUP7sUTgjBOOf+qGqeV/3EkxETUhLoJaiGg0ISFNVZqcXXSpLxnkJUV9iTnvuqYr4dN29t1KsTGxzv5Dk5yDiijo176zl5fhz5wLZoHMRKqEUnWKOPPaUUlMWKZL9sOkhV8LeZlXqgqrLzEn3pxtTG2bQ4ZSzEj3XDXz2NSx0Q4I5CAAApODFtqOJQInbN581Ka5w95nlBe7PpGvXpGr4GLIx0Vu+C4Em5CQJuc03T1RX+yw6QTTkQypq06Hc7XUJ5ljPkpdnst81ESBMY68dBxUpENMS+zIy4f4wZjtVxFJTFRYieFndq4V4sJkhk1HfNgKTIzM+MKodRbenIy8ITxTVBnURkq9ItGuKQIgME2Rw3ljgQCRl/UnH3bYdV5zUEhtMXcvTy4XQSemqmSQgArwJuc03S3O+2LbGRqSJ+37ouseuaYWygvjMx/5/F9c/UsEUohMuc47SL+YC0QwDjoz3nXPEDOSDqmWT5mkiOrCz1qRYSKzksbgGkhNFJh+HHhd5qR+wqkVfpvIjHR400sQ5wEBHwIgMLg2JhoBIi8/jqouttqSQ1xc6MZIjW9HGhKHxhvMdy/J++JSXxJ8X4pIoyLHi+/wmY9qNZMc4dMhDsEJ7OSo+dJYv3gHqZm39s90wASlHGCWq9euhHaswlR8lksMKMWFXzOJ0QqMNiM13js60TYF+Rx5ncQlQtBC83LVRjptZuZx/awF5wIBFwIgMLguJhaBbSeddCWRlzkDgDYVCSKuHC6pikuIuOQg3pTs5IzBbfU48lr7vug2uX3zzdSTuE53lauG8Lku/xeXicgsxfFrVxvTumkvzPcaSqYc9Y+0CUmvR9QXny+MJi+axCyj6tSsvmgH3pj5yN4SIWUpTroNttOc4svK69rTB6+bekvTcXAeEPAhAAKDa2MiESCn3d+nhd+7ZjpyERkhLK5Q6JSIoqYEZNBqi01YXHdAqXmkSVtG1t2Q+lKFN9vKCs3DF31kktkFlBzXhezKwBsKodZqzFRIgQl8a8QP5gCZmrQDb0VkVG4Y9ncR8mKIi+XEK8OkRiMN4svsC6fOHGsNopEyEUPzKAIgMFGI0GDcEDh+bsWDNy2ffp1Zl8tJl9+3lRYBwXUzd/mkNCEgTclO6gbl9G9XnG6yHjWvwkxUhE7bR0ruF32OK/tuauhzrR/161coRM0OiURyEqjScVebkbjdMs7QS4SFn5m0mNflc019Kc+3FZlmMy3OaurIm+K4K/PymJEQjdTPxuHcHgRAYHBRTBQCRF6OPeXwu3y+R3nRpMVXYDGlyCL308TJtsk5qTuXSz74T26X+iJry/R9sRUPVlik7pEsQUoF+Jx3e0oL0Im2+Uj68hVwTIWraTsJpbYdd005ARWBZGBkXxh21i3VGDER2c8dOpcPU1Kgj19rH2kRE5P9bEhWAqPLNCO9uSm2OA8IuBDo4ysBQIHA6CFwytwxX60Vl8k1EYXUlhyiEDPhtAVtE2Ik6ksfYdP29HPUFzmXf5zs2kchWAoTU7cFm48qU1X5Syef52biZRiZty2QSnKoFJH4PXGJ0X4wB9Uc2Iwk5MV2qWL1xRCF8lmHT1erUMSH882EjhTCYTvytnWZJfZzNJmRNiW2RTMgEEUABCYKERqMCwLbjj32y7SWI816XCYiH5mJkZZUgHJMOKl92u36JUZafZG+dZ8Z6ou5OZfOu9KVS2FxFW50LT81fNo+V3w4vHlS+vgVlFwwOhLJNXfxhbEjkrit5Ifh8Gk+bKWl59/h/HymDyEzKaQm5VJrEk7tMSM9IWU8tAECKQj08dVN6R5tgMBwIEBOu8+nmdw/SFz0VH1kI0dlMXcn9uQsH4OEoq0xVpZygDaXNZy3mIl6CQopIwnOu1Olw249ky+ZnxrOR05rUoXaR358U7FrJYkKs9JRGkCIiygwrj6DNZHoV7wiLK5Iq0zAmkYuhVQt2UOKRnpbn9uH04FAhQAIDC6GsUeA/F5O2jR/8M9qC7XVlpBykUtCcts33YG2x+G7NBMYIS/83EB94eUwedE3NF11WpZrCE7AMzRU+6gN/xdjcsr8BXSFUfN67FBq7fMiWXlZhXGlFNLEpRZtVJqMciOQYoqT2R8V7RQiLCkKTo5zLw09TWakjU0veZwHBDQCmV9fgAcERg+BU9YeeXmlvORGEaX4kPRrtsmFtC21xR5X1BdzRy7JS+7c+OYYOMd23u2SmeI2aJcOqP1YSTlkR/+2/0uDafd1il0TSfvB2Fl57QAvPXCP0sKkp6VfaZcjryYoucpLYDuqJcGM1NdlhZMjCLT01QDOQGA4Edh23/t+hFLhn1SbXYgApJKDttWPEHxColLn1mQrbPVF+pAxE31fChJSqC+podP2j5B23nVFH+nl+cKndf4X3aZy4o388jVJqlebl+WnIioMt2E/GNuht7ZlumYSlx1IrEiduu3akTf1HG5n+8G4zk00I70pZ1y0BQI+BEBgcG2MJQLk8/LwbRdd9KOpu971gg0nHd/prF/v9kXJUU8Wm7RowpKiBPWzk7Oz3bNt01FGvz71xRc6Xbvpe2wRtvOuz3xkT9N2GM6JQOISA/pwwW+3scc/SLVB5RAVxhABi6D0wMtuSNymdEdqS4HJ2MZa+au2zUjTU511ZEY6Nmc+aAsEXAgoSygAAgKjjwARl4edfNfj//joNSvv17n9xk7niCM6O464F/0Z+3160OW+c2d6npZBk4bYHXKxtkMKNtp5bmT9ieqLkBdbfbGJhE5cx39B2Z8XzrtF4js5XMnr5DMxH+n6R9V5Ej6d+adavwoMm5CWJ0QL9ZiTNHEpY7T7zQEzyMuIyWTs8jDEkbDQQhLVRnrCf+3a/9ZBzg19jz8Cmf5X4w8IVjiaCGw7/fQXbj3xqDfQ7NeaFcjNmA37a9d2dqw/ypCXhR/+sNO57joqAcw1gB3HYpIWHn6xx3Otec2a7rtafRE7R+wOZUhIt2iji8AIadGFG3XyOiEMBaEpplO9Z0xS3egjUWDENKQJjJAhyQEjNZBMlWaeI10Oxi+D/i1OvCtK5sWfrSj/pOP3uJTA8oWpoi092PTCY/Mz98HRTNyHMcnQg0+dItVEq1ArrT8RV5RESie3YxLDUFdkpiQx5j2VwE7ywMwTGWBnYvGz4crVRqxjtyXld80YzpcqEL9v3L9KUjRfZt3jf/Nn+iujfbjlwpA2+pIVfiaXh+ZrkiunOl8RGFauaA0LT/n+rkxaOZq/TZj14BCAAjM4bNHzgBEgteVepLa89uiN636VhlpWcyzgu5E47O7a1dly++2dztFHd3Z07to5bN1s55af3tDp3HprcefgO9SgicSg+2+KtVZfXKajRPJSEI6w74sOne6SlPrfUKK+yHJcuV9i6ohOYJcMS2aose6Xb9auO7FWYJi4cFK7al0SYVSSF3nfkBYmHkI06DwmLkyMUg429+hLzb602ZFXSEw1Fz5H0ginDOJpUwotST2QGWmKk9qRCkMyKQ4g0AwBEJhmuOGsJUTgfvc5455nHbPxk501a+7a4w0pf87a89tPd4Frr+1sOfzwzvbjyad3eqbTWbeuUGP27GlvNcNKVFwr5LvbqlVdtYrbaIfhDFRivi/SlQ6dbvLnd0rkS8q0Q87BuaHVFfmgF9N0mR1UKgz7wSxfUScven6ivOjwatvnJZW8VIQkgY+zaiQqjA8v+RuAPzfEqA+S4zIjnbNu5reIwLw6Zb/QBgi4EACBwXUxMghQRNFTtp5y/GuJtNzdO+lQeAcrDDfc0Nm6enVn++bNxc17Bd1d6L3O7t15KswoERUfWMY2opQqm7wkqi+27wsPZxdttBPX6Slp85HkfklNXqfDp3ucdkvTT3VjdxjMmxSBTP3CuPxgWIVhNUabkDSJqcxJluloECQmdR2+dqK4uPxgmLDYZqQuiSWSR6rVqTNTz6P3QGD63YgJPh8EZoI3fxSWTmaiOTITvezozZueRfM92jln7UQQjE+ls/kmTeakrewDMzfX2TF7XOewmWkyKdFXQUxK9iDjQFbsNTF5ISJX+Qrx531EWWnHXJ95KNV5t0s46l6wWn2xiUfhwOt26RP/l6rfJtKPwo9hCkXmLGO/E+LFocMu7liZjJTpSM5n8mLXQeKaTJ0+FJGKTCiTknBZrby41hCyuGaakebIjHQiqTBXj8JvEeY4fAiAwAzfnmBGhACZiU476+53eTdVRb6vASRETGKkxYXoAbrLkFPvFnbwPeLozgZqcwtXYL7ppsKkNI6kRePgyrirP29JfXFVndbDxNQXe+ti/i+xL0+92GO9dVPTkT3mISIvIZcaUWFic+XPc/xfUvrztenXRJQytseM9NtEYF6Ycj7aAAEbARAYXBNDhcC2s89+/Na7H/tHNKmTg/4tIdVFPtN/Sspr+89HUmO2rNhnSExnzVxhUrrttk7n5psj2caGCra8ybiS1g2p+qKjj1LITMiBt0kNpGRgWQ3xsBbxg0nuSzXMMR2FSIgoRhJhlDqXVD+YPsxIL6C5gMCkbgja1RAAgcEFseQInLB1y2Enn3S352w9duNv0mROqIiL7ZArSovPUVdWkqPIlN6TWw5c3yG1p7OdIpU2cJQS93XHHcVj3A5OWmfXO9JrzFBfdORRL8FISIRCJ6VYdHzmoyKcmWsqDT4jBPt0iAJkXnuuC1ZNxJE3lA8mpsSI+mKbj3IuRzsqic+VSKQUR17fWPJ3gMtklGlG6jz7yPWP/Jsbdv9zzrrQFggwAiAwuA6WDAEyE5181pk/926awFnh3Op8pVrxpqFZ57Q134Kyb/aNIdPKdlJiNpCP7y03k2MvO/qyb8w4mJSYmPCf1Lbjbh/qi96GIhdMnUy48r7IOTVH3dJ/JZS8Lsd8JLlbZKxQivt+vwDaJ4ZdWHw/qlqJiZEXnpNWX8QPhnPA5B45WQJS/WBy51DbByup3bnrp972Nzd0QGCagjrB54HATPDmL9XStz384b++9dSTfodUgFNaJwZNyYuAQeHWW1fe3qHg6s6Gjes7t7BJiY877+x09u5dKsjyx3WpKKxSaPVFetXkLFF9qREXh/Osdtjltpp85KglfaRnMVO0HXjtueQDWz+Do2l4bXYuGNuR12VGSiExor5wW/6xpvwpnASu1cOVG8Y3QMhMlZKVt3bd0FrKcgx3a3VB6GxiEACBmZitXtqFkpno8FNOvdfvbjmeookOHqQELC0fPuISC6mQaejzicQcTXaN6w4tN+akDpuUbiCfGEqINzQmJSYauXcMX9I6xiBTYTLJZ8vEdUIKmoZO26UDXMnrZJt09l37CtIFHFu+upK7W8bJ6jhM2uPIq4mMZOV1ERntvMvqC+eX4SOFvOgIqZxt9ZET31coZEYSwELh1NVXj4gMmZGeSGakDyYDjYZAgAk9UAACg0TAJJ172C9cRmPcvxay2+agqaqLz5HX3BnK+FWZF/37aPMn73Tnuv0LnQ1HbuzcwuOwSYlzxuT42fS7Vp8qkqCWVEMz2dFJ61wJ6xL6q5t4iorT+pCijRXhMHWNisNV96h4v9d/Rdc+8hVvFP8Xe3wf3FJCoJpbWV4gZ3sMRJnuNtoPhpPaySGZeV1ERpuPmMzM06U3zVl6+1RgUvl8DiautiE/GFc0EpmR3khmJBCYfoGfsPNBYCZswxdrudvOP/+FW0+/xytpvM3JN3tNRHJf2wtLJTVynqt96eB7NJMYVmPEpMRtmzr4inKi55tAHPreNw6blkMXbeT3mMxkzEHUl4oIeHxf9Oeu+TOhCZUOSDUfxRLYOcdWnsN8U29yLBBstcgmrkPEdZKoMyYdVEapM6UIi8uMJCUG+JkftuOu+L4weeEjRYHxrUUrLCFH3n78YHJFQSbEpRnpxCZ7gHMmGwEQmMne/1ZXT2rLSRvudfobt55w5AVEWtKuLdGhfRFH5ldbqSODiESyx+B/6/mwGtOZ71y3bFU3QknMMewbwzllco4MspDTrbct31U4x43UhtJOuxnkxVZfXOPVE9rV1RcXoXFl3tX9uoKLcpx5pa+BhlDnbpJKdGd8W+jyPkDfFiYworwIcTHmJeKeByjvIqsvw3Dk5ozJMCM9isxInxiGNWIOo4FA2k1mNNaCWS4RAvd62EMe9dCzH/hnNPxdktWW0FxtMpOaaTe1nT226zwHUTr6UFnBWvxihOiIg+9iE5PU/eZq07kJQDx9a/WliDByRx65yIqtlPjUF20+4n6qzL5KNbHNRyH/l9QIJDu7L1eizj3YB4ZrGaVEIpnLh8gLU31RYvjfTF4qp136N9PAfsiL+MSE/GFEkWnTDybVjCQqDJmR3kpmJBCY3ItugtuDwEzw5ve79PMuvPB3tvzcllcRaTms37685+eYgnx+KSkJ7XgC+nwZ19Hn0Xtv61w3s67wi+FQa1FjOINvS0ShNTxjYdOJpCvm+2LP1y4bYBMa5iIh9SXVqqNJkcuUlEpeWsOb1+Vw5PXlgxGdsnLkLcsG8A+z+L2YNqTahEhMTqh0m2ttuS9EI7UM6Lh3BwIz7jvc8vrITHSXjQ848+1bTjzqV03XcsN2EY0Y+WjDozAlI28qBilr4KrW5E/CJIafO+wXc1vp6MDr4VBrbpNIDFKn1qidL2y6UWdF4ja75pHO+xIqGxBTX1xTamI+CpUDMLlhPKJKa2UE2DGYCQwdLj8Y85UpK1QzKeGaSaLCiDlJFBmOPKoikPp03s3d8rb9YDLMSE8hM9Lf5c4X7ScTARCYydz37FWTmeixD/2lh7yDTjymM++oImcrFS4y0M+vom/GbdZIcvVlv8ekpSQx/Hx0h+4y69YVmXt5zfzgQpHDoMbYjrt9+L64Kk7rLUnxfQlddBI6nWI+il28vYUeY2e087mdC8bVK0chMYExR8l7RYUxZqQy2ojNRkaBURFIur9DnkKO2gQkpMw2HVVfQ+r/IEc20ea6vtLB/aJzZA5Ns/LqaCRlRnoLmZFAYNq5JMe+FxCYsd/i5guk3C3rKXfLM7f8wn3fZH5u58tfXtcvXsgJN2cKMdVGiAITi1jb2Od6Xj4lx9WHTWJIjVl+YH9n5yxVd9YHO/culRoTc9zN2ZOyrUt9qZEYT3yxqC+uwo3Om3xkbnb5gFD9I+nKNiXZJKdOxvLBMdl42S6mIpFcvVTkRRx5lUOvSVrHSaElZLr0XZcIpPxZ9Z4RcsBt6gfTxrxUH+6K8y0Pgu7GAwEQmPHYx1ZXQWaiEzaefe47t9zjuIclR9ikKDAps0zJr5LSxiYeLnOVy3HA5QfjmreQmPKzTYet7Wyi1zceWOjspArXhlxJ5l7uc7F9Y2KOu4kmrsJJtziYBMTyvghUoUgh7bzrKx3QRmkjk/fFYTKKmZlSLtNQG/GBsdtoP5iq9iOrMCWJESWmCpkuiYwQmn7ntZjn5xZ3lLmxnw8ltXscmZH+YTHni7FGEwEQmNHct4HMmnK3bNv6qG0fJWdWugNnHjG1I/Y5D+eLPtKfxfoJ9VHdXemW7CMUGX4wpjshMqy00LFpNZmY7iQ1hsxKNZMSm5WYyCQSh0z0681jjrsNOg/5vnB3Qmxs512X+mIP78u8a0cf5YRPp/i0tOXgK+UEXLCaz4ig6HwwVTtRX0pTkvjC8Ofagde8n1k+wKW05Dr6xiy+rjFyizt6zEhvJzMSCEyD7+mknQICM2k7bq2XfFvuv/m0e//Olq0nXtgYihipML/IVqbb2GC6z5T+pT9HRt3YULXPU/1gNHmxBmA1pnPr7cYcsJPzr5g7/CI5+KY47iaSKFFfcitOx9SXWPRRSH1xZd8V+O0Cjln7XjZmU1BOYrueZHaqnxCJEl8YJje2L4zOoNSEvLjWnZu7xYddrKxAE8wd5xzzoLmV6/9r134K8cMBBPwIgMBM6NVxxuMf++tnP+DeL6T0smdUEOSSjBzsQiQk909De9y2IpFy/GBKxaVSYPSc6DOjxPDBagyTGMGWi0MOUo2JOe7m7JmjreR90R9p9UX7ueSoL7bzbmya0neK/wv35YtAsslKinLD/RnHWE8pgkMqEsleh5iRKl8YaWD7xNC/DeUvTUz9lhCw5+Fz5M0p7Bjbo37MSKfNzDyZCMylsTHw+WQjAAIzQfu/7ojDl93toef+xtnnb3srLZuqFNIhN9ZBkhc9ziDw7icSqakfjBCFEJGhtVYmpelSiZG58rhtO/j6HHc15i2pL3ZYtF192rXN7PsSU1/kvH7MR/bYbZmKki9ddnCxfG8WHGYkUxeJiYtO5KxKDwh5MV8fjwmJI5+Mk5InKil5zlbDfhSbNsxID1439eZLr++AwDTdwAk5DwRmAjaazESnHPOAB/7x1nvd/TE10mKvPcdUk4tb232nqC4hR95QDpoUPxi9fsuht8YXKBKJScwR9LyT7jQ7KU1MdQiJyUjnH4Td57gr4dO5e2a1t7Pu2qQlV32R7lPVl1wiUpib+lz0AE8XFcZFZIziovPEZPrA6GnbHD2HnOT4wfQrpFpQryUz0hpSYe4Y4Bag6xFHAARmxDfQN31SW5aT2vL0s8/5+Rd2jjjijCBxkU4GpcK0TV54vv2oLrE9T/GDkT4C5IWbTLHJqDyOWMF/mxKJEScHrX716+CrxjEOyjrni0ygD/XFNh0JeSnKCTS7u7qcd32Vp2UJU8tUfSV63TUlEbIlWeEbqY/stOEnE7p8TC4YS33RTr5TbBey0wzrvDASkaRMSpneY7Gru+/Pc/JP9mNGOmfdzEuJwPxR3xNGB2OLAAjMmG0tEZdpIi5PO/sJv/ouZxFEvd5hICyuX0OfA2+qY29KJJJv39vygyn7XyDlRUgMPx9h7AUUaq39YhgD+fO1CZHhu8SqVf4rOVQExzorFuljm47kdH2ey/clx3xU9VkSEntOvjk0/SrnkhoXSXGNXeWGqa4FesGJ7JjDKM5XhVQLkbGfmy6MzutRXwjTnsR2fSS0y5labm2kU2emfpv6B4HJAXnC2oLAjMmGk5nonpt/4cFv3HL6yY+qlhRTPmKfN8WmX2Kkz3e9js2730gkXndKPpgEPxgmLUJi+JkPVmKOoBvZzgOkxnSUg6+EdueSGIl04s5t9UXuVonqC3chJQMk70svgSjuvi71JdVi48q8G4s+ano5tn2eT92xCYtvXKcKw41VTpiaX4zVkS8LrzTzmYjs931Kii+hnTcCKTErb+4+kBltjnLCXEA5YT6aey7aTwYCIDAjvM+ktqwgteWCsx/xkD8gM9HWaimpjrn9Eg0fdjGCYe5+iblYQr4uevwUnxjffF3G+xb9YLQZSQiNEBljUhK/GN4PUWP4dYpvDLdnIsXEpQXTkdkah0lI1zwS8uKC01ZfuE0/6osewzYfVTdsXaVavWb/F5PMzlEDKdefRs8jVYHJ+WkxKkyLykvO2LG2OSYjV19NzUjcF1Wo5pwwIDCxTZrQz0FgRnTjKQz6orOf/qT3mOn7FAvX2gZFWvRYoTFiv4apZiJ7bb4xmzrytugHo81IosLI9As1Zrqzg2pD9hwxEhPL+ZJhOpKx7ay7Pt8XTXS08669Bl11uiIcJUHSzruivvSqPfUefdWndWkAXwbenK/61DSpTAueyo8JHdkkR/xgjPpCh686dWVOShhjKZvEvsa+ueWakaif45ZynRh7uBEAgRnu/anNjsxEJ25++LY/IzPR+dUHKeTFvhmHFJJ+CU6K+tIW5jmqS868WvaD8SkwGoYt66YLk9JeVYKApQMhMS41JpTzRTpPNB25kta5/FoMcfHUPHJtq69sQM4l0I9akjNOP21D2Xh1v0xsOCuvy4zUU14gc0I50UY5kUgp00jNypvSl25Tlhb4VTIj/VPuuWg//giAwAz5HpdOuRee/ehf+t3Opk33MtMtfSnM6xTFwr55h0hKzo3ehV1TAtQkBjMnEqnJvFrygxGYtPnIBV0tSknvg0QUad8YO+eL3WGm+mIHxkh3bDqqXivTUhWFVIoUrLSkJK6zp6nHDeV+0eajpl9ZO0ldSsbd1MR2TefkPE/nhWmpY/31cn3VxO9F6rTm+sHoaaZ+lZmYmjw2kYPMSFyhGgQmBtQEfg4CM8SbTmaiJ539rIv+vjZFTV74g5jDq90mtl7dnz1W7Fz5PIVUpfZlt0vtOzcSaYB+MNqJN4XEHLFhhkxKKniWfVt4L3hNQmbsnC86bDrTcbciDpxorizYmKO+hBx37cR1uc67evtd2Xc1wdCvxf+lhzAFJjsIsuJy7BUzEjvjsnKhj8U2IaWaglztUs/l9Wk/mAZmpJOa/lzgvPFGAARmyPaXzET3OfZXHnnxKWdseXC0EnQTVSG2Xn3j59wiTUhMilkrNg/f59J3SClyfebDKvQr3JIfjDYhybJiRKYyKVFJpeoQJ119p9WOuw0w1aYjPl2bh1LVF3Ne6cSi/WG0+ajB1MwpueYju72vhIBrPkw2VliEIjWySPeX4uS7QL+8QmSaYjMK54XISur8SzPSU8iM9Hep56DdZCAAAjME+8xJ58785fOftPX8h/5+58gj72Gm5CIO/J5NKvo1+fBYbRKOXOUjBf+mqovuW/eR+qdjaiQSlwQQf5RAYjtXSHVo+caktHZVZ6cmMbrStH2yzrib4PtiO8zKzT9HfQnNX9QXaWOrL8wVbOddccbVc4iZj7QDbxPSU83Poc6kqDK6oGOI8IifjCE4gex0baswNfORCnlO+erltNF+MAMwI11CZiQQmJwNmYC2IDBLvMnbXvXKt2897+wX1abhIirSwGdC6keNaYME+XDsZ17SZyrBSo1EStnzVPLCfWlnWiEzUiNJjZVjSprfv7MzvfIIkzPmsDW3d26dOryz89Yyq7rkixlAzheZbqr64vN9adt5V5uPUrYvSKxUcFFKEjubIPU7fsr5bZMY15g9eWGshHb9+MG4xuvTjLQxBTe0mSwEQGAWeb+5oOIJ9z79FDITXXrKfU892wwvNySZS1PTjdx0fTfyFH8ZjUcT85GNZ6p6knJejGjF1J/Y+a5rIZXIaOLiIC/cdY4Cw+RFDkNk6B879bXiMx0lKC/cjZiO7CXrsOlayLIj8ig1aZ0LVpfzbupX0Vc+IPX8ttoZtcXn/UyDpJiSXH4wMj8XiXHUiWxrOdF+mvrBtGhGeiyZkT4SnSgaTAwCIDCLtNVMXMhMdNHWR5/3SoomOqUa1iYv/EEKcQj5Z+ibbpuqRBOsUtQT+5cxJ2qqusvTpWyvNfZvez2xytTS3oWpVmFaNCOJEhOEXkxHieRF98XRROK46yQagcijgggVcobt+9LEebeJ+UjPWfK/6AR28nluBNLyPnLApH5NUvxgNIkx5KWPqtO+SKRUi2rKugZsRvpzMiOBwKRsxIS0AYFZhI02ZqLzH/YiE0ESMw67zEc+QuNTFEJ5X3wqTRN1IgW7pgpMiJjocXOceX1tU7MCh+ak/WA8CgyfnmNG4vaixOy49uYiSy8fvoy7KftRkg2XcBBSX+zsvNp01MMDI3liAqKFcwX9mI9q/jwNJaOD9LXtx4zk8ouJ+cFoIJpwlkHneWlKevo0Ix1FFaqPpAKPNyRe6mg25giAwAxogyma6H5kJvqTU+5/2kPMEBLaqvNz2OqLz/dFKg2HQqhD60hRQdrwVbHn0ERJyd2PHIVJt035BU41H/GcbSdejwqTY0YSKHYeIK9PTV5sjDJyvtQddMNh086SAo7ktL7Io+r9jMy7sjRWU1zOu9p8VLVtSExSL7V+yIs9hivhXciMlDpHXzsXkUkhN3Y+mNA8Ur5KbZmRqEL1y4nAvLxfXHD+eCAAAtPyPm676KKnkZnotZ2jjz6pI5K+6wbjMh35fF9cxCXFTORaW1OlZb6F7Fr22Cm/fKE1pBAMadN03Tx+yjjcTpSXgAkpV4FhE9LOG7mYj9It+sj5wtO0izUKxC7HXV/BRl9FaDvyyN4+b8K8BpWn7fIBLX+Vk7pL8XNJ6miJGvkceX3TSfnKDsKMxGSYyR9VqH4ZzQ0EZomul2EbFgSmpR0hM9Fbtv7Kw7n8O9kJuI5KmWIy9a9jUV/s+fhUGV+W2JiSEvtcj68J1TTlhOmXxMTGjpnXZG6hfnL9Xmy82/CDCUQiuXLChC7B79+xlhjHvqLJIjnuVll2LVOQHXZtyJDKxOuKPAolrnP1x326cr8sW5aQspXO9SWwE4xz88o0+XkwX/mykGTq+SkqTFv+L645pRCT1LXE2jUxI+k+qUL1I8iZ9z9i4+Dz8UcABKaPPSYz0VYyE73tlAec/oiKuOj+fOQlR33xqTIhBaYftUHPXys//ZKXJnlY9FxSfWmGIRKJ592CH8wtP7q201lFBEbIi31tpZJj6xrXjrs+EiGnuEoGdD+rd9yv+qJ7SzUf6XM0OfFl6K21H7Dpyd4u25G4X/UmJQ1/6Oct9e+FivxZOWQ06UkhQG2ZkcoK1Vv6+OnGqWOCAAhMg40kM9EzyEz0CjITFV8iV/RHDnnhPnyOurG8L6FopNyw6RAWbSgwDbCuTknx43ERt1RFxvcLnGo+4om27Adz/frDO519pfrC/fdhOkrJuMtmIZ/6wsPL/d42H/H7qeqLj/zw+zzHVIVEzEehRHMpDrwp/aRetqkFHVPbpY6b0y6HtPj8YFLIyiDNSLTebhRnzuLRduwQAIHJ2FIyE11C0UQvrAp75BAXHscXMi1OuvZcfOajmMqg+/EpF7GcMfZctAIz3yQuIgNoaeqaew6h4H5CWKX8ErvmEnovwQ+GT4858+64blcXsBbKBWj0UzPu2upLQTLqYdPSb0x9kXaSebciMgEVJDX6KJX0VGN6HHFialSDKzgpF4z0GzIj9WM+yp23JLDLPS+nfT9mpLK0wOPJjPThnDHRdvwQAIGJ7CmZic4kM9HrKJrovKppLnHxkRd+X0xEqQ68fE6qqmC3dakYqc7AS6HApKguLjx8BKMf01pqXSRRYQJ+MDy9kDOviTqSwya9meUCqpu2IR+9OV98GXer85SPi+urkqq+xBLXxUoHuKKP9HyKqKV0BWdYfsptM1KKL0wbc68pJH2UF8j5G4Dn3YYZifshM9KbKScMCEwbF8MI9wEC49k8MhM9ZeuznvI3lLdl1tnEZSLy6bMu5YU71Y67tqnIpb7wTdQmHKkExF5Ebj4YrcCItjzoCz8UQRTyiYkpVDEi009l6sR8MBo6JjNyMHmpSgbIm9p0lIm5bTrSxETIiyvjrjuEuld9YdNRW+pLqpISM/uk1C8KwTg1zU74jnjxTOybNrdJzGKpLylkJBSCHTrf9ZXSKoxgxdeA7dtjrgvaEvaNlmgkenl8U3xx3vggsIhubKMD2glbt6wk8vJ7NOPZHr8D/RcwL0n/WqaGSwsUoZIBvs9C6gvfmOWIRfyklBtYyi2LkQyZfxO/lxg2rnWHkgPq9toPht/XGXpVOx2NpF/vvGl319ToMh3JNdYg665k3HUVa9SEJeS4q5dq/3j48r7EEte51Jd+zUfVXNQkUwlSW5e9fSPO8blmEsNHG+RFyh24iF2M7PHfKnywWUkfOqrfh1eozIJ9Ti5dLM1Ij25rr9DPaCIAAuPYtx9t37H/krMfseU7X/nWP9U+lm97jLTISSHlhdvIX962Dwy/H8q+qycVIi36s9zrM1TOYDF8YGIkw7c21/v2e75zfb/K0j6lb8aZVZgEE5K5QdHeiwKz45a93V1qwXSk1Rf75u3L+eK7TFy+L03UFyEWORWkU8xHocvblYguduPO/brktmdH3tghJCbWLvfzlLXbhCV3jFD7XLLi64vMSH/R5rzQ1+ghAAIT2LP/+K2XXvDZ1/3xA6smrmy6vvN95IXbuwiL7oc/t9vIDT32rPux2+Zcnz7H4pw+ctra5CFGvnIUpJBqlfKnpKwjxw9GktkFFBjbdNTj2+QyHSUqLy7TUZGUrrspIdORzu/i2sZBqC8yji9Jnp6HfRNO9X9J2e426iBlqS0JZCb6VXLIXDkKSD9tNaYhfF3EyXbq5nU68wBxhFoJgrqGNz9m4/r7R7FBg7FFAAQmsrX/+5n//DKpMVOkxlwevQqEtITIiygbobBpnwITUxJCN335LKZsRBe5hA30+nxYpKgkMXLkW2JK33yuzgETyAej1Rfj96KvH/sOmHFHtKNpbNNRzHHXXn6/6kuXmISvHTv3iyt5XSytf4q6UM2n/PXLOWexr/7ceL+ctbhIS4iADKMZ6XEbpz6w2HuC8YYHARCYxL0gNea87X/7d8+MNg+RFz455Pcin/vUj1j0UUqG2qY37+jCF6FBKCrJt/aYQ69v2q47Qct+MDL0jhtvr5MX+cD2t8qAOFYuwJXzZVC+L7HQaf0Xt62+hMxHPp8Wl/9LBnRV0xwyEOpf+8Jk8NAmUx7IOeIH02bnMTNShr/S3dqcF/oaLQRAYDL26/L3vvddH3/Oi9fQKbea05is6Ae/5/sTxlZeXCRFlBdf7SN7rj4y4rqZuxSYEOEJ+cBkYNZq0xxflH7UKtekc8bm8xP9YGp+LzZx0SZLXZ4iAKqYjuwmuTlO7KR1dsmA1MgjmUeoDIFrOaHSAbUsu2X4tA+SKmIpdsds9UJtt7NcFSZ3dB9Ry/GDSTUjuebmMiM5rwmHGal05n1M7prRfjwQAIHJ3Edy8L2TTEobyKT0iepU/e2NKTBykosguHxfpL1LffD5uLiIjY7akT5zopYycRpI8xSFyYUXvxdTr6o7bSRmpokfDPft8IUx+V64vwGYjlzlAnTYtJ1xN5S0LrSXscijVPWFzUc+9aXamsCvFf/F3o9ikkvwbEwWOMY389COvLGyADaJibW3pxKKRMqctmne1GcmtkdNeCY5817cZA04Z/QRAIFpuIdkUnr09nd/8Ffp9DudGXZdRMVXsJHb9qu++MhI6MbtMok0xCP5NJtc2YqV/QuX4vfCg+cqLk1Naal+MBoQR3VqduDt8XuRc2zn3UTHXT49xXRUEYKyWGPMdORTX2I3fSEvMfUl5vviDP9tcKdLceBNvo4TG+YSjVC30lcbfToxlZDpAIdv4gfjW1NsC2NmJHVdnfCguZWHJW4Jmo0RAiAwfWwmmZQ+dslDfnlN54YbvujsRiejE5ORS3mRdqm+LzxYqqKQsz7d56CikHKdiFPyvdh+Lin46Hn47mz9+MHYJQWUAsPkxZiOfKHS2lEikbyEEtZVhKUqA9Ab9mKTjJySAXbFad/9Lyd02r5sXcnrXNl3U/xfYiqAHjvmNJzz9WqjbRvkRc8jVUlJ8YNJNSOlRiO58DJKm/UBm5HOWTfzqjbwRR+jhQAITAv7dckTnvGgHR//1O/WurLJS8inRBx7U3xf+MZrqy0xU5D2f0mJVOKFpPjApJrLNDC5ykfqfGNjxBSa1OvANx/7fV1SgPtW0UiGvGgCFUpYlzgvTRok6qgiLpzG1Do4pJoPO+Ou7wehWzKg3pGQF7v/VPXFJlf2v3PIhg8q11/ysWy+ibA3atbEkZcSHg/0aOIHk0p+eOI5bWPKjAuIU2emfmegAKHzoUQABKalbfnUxRe/4ePPe+lq6o5CSuhw1TjyOe6G5pDic6HbhPxfeJwcP5IYNk00+aYKjGsuqX01jUSyx3QpPdLGNxcrM++Nd1KSO9vvRY+TWevIKC/lL774vXRJAJuUijtfV1EhX5OI6SglbLo3VLskRJ5rxqe+xMxHru6ceUIcv2RN1BNTRmCJDpe6wsRl0OQld7lLbUbSKoy+Dp995PpH5K4F7UcbARCYFvePHHz3kElp3Xeu3PFvlYKhlQyf425I7QipLTL3VAWG26coID1KULdWT99wpYyvB8lRYGIqS+zz6s4fceRN9YOx8sEweempc8RjusKlE01HhpwYgtK98foS1rnqG9n76SIvXlXGc2dtS32ptsORr0XMR3r+IZ+cVK7dRhI713fEZ/qJZeTttySTS/kIqVrS3oXXYpqRclUYNiORM+/b+/59QgcjhQAIzAC2ixx8f3n7+z/yROr6YE9GXRkvltDOF2GUosjIGK4+fP1qHGyliCtRu44UE5J9s09VTew1uMaP+QHlfp56Lbicn13rstSXirzYUUc6XDrDvmCHTIdMR7Goo5jpSIdN96u+CMwx9SXFeTdVjZExm5qkQue17ZeSehnmtrPJTFUZJVasKncgT/scM1LDIU8hZ95c7tNwKJw2DAiAwAxoF8jB90Mff/ErZkmJ2ekcQpuYfHOI/aUfu0FzvzkKxiCw6CfSKbT+GDautYcUmBxH3lQ/GJ5DmQ9m+w23Fej6sjU3MB3JdumQaX7PVy5At9ft7JwvocvADpuu+ixfpKgvKYnrqn4b/kLlmI9i0VQ5X4uYopLTl7TtV4VpMqY+J5QPJqTYpI4bYxyppQVYhbnnqpmLUsdFu9FHoOHPw+gvfDFWQCalA5ec9+hNO77yrX+sjRczK6UqJykmkTZ9XtoATeaTqunbY+asJ0bwctUgIUW+8zzvb795T93vRdbkqnWUgbErZLryhyHfF+33YghL6fviGqJWF6m8o4jjrqgvLvKyLJKFzEckYuqLPcdQ8jr+zEdCQg68IaibKjUZ2zd0TXPWnJrkrp/aSDFi4wKQzEh/PnTAYkIDQwAEZmDQdjv+1Kte/bjPvuni0+mdotxwG+oL9xO7QcsN17dGn5LQtg+MHkdeu8xPKaTGR9pyFRlpn+uTI1imjEdtjdPuXlVlms8PRR0l+L7EQqbZcddHXlJzvqR8LYS8iAWiX/VFjzkI81HKmtpsU1kGM/yCh8Ec1aYfTA8R9ZirYmQlIyfMGirweFqb+4i+hhcBEJhF2hsqCvlNUmNmSY35qNPBV+aRqr7EyIvdT8h3xv4s1QcmFTvdf9sKTD+KjIsEyppiZCrBF+nGW2/vOu22aDpKDZn2+b3IEn3lAvjzFPXFtf0181Xmr0tPJt4E590U1SDHOph6SffbLsPVyQyVY0Za8LisuQhiCn583qDNSHpuTUoLVH9XEBOiAo8f6nd/cP5oIJD5EzMaixrmWZIa89jPv+cDj6I5UkIX6+CbYo5/RcyEFPtcD6/bLoYCk7NJLgWn+sWarvfkU1Zi7+fMh9vGlCDyfelx2pUxGpqO6r4tCx3ttFuoMvWQad+SYj4yfN4URRiF6h351JcQqZG/ou2yAXbdo9Sbqnd9QnysP+tj/S5VCHVrfjMls52yggZTnGdT2th4D8qMVCMzud/Lov3WZqfhrFFDAARmCXbsyg9/5J8//rLXbKChr3eSGNecEv7ij5qUQhFITfxBUrFzKTCp53K70PkxJcoeJ9Q+50/1iB/M9p/e0rvCPkxHXd+WImS67gjbO1Ru1FEPOVL+Mj7H3Z4bmiIMOU603I9PfZExbBOCa/0xghIiVzmXY9O2qeYhX7tUFSYlTNq3hhQMc8Op7bF8ZKlFM1KHcsI8tek+4bzRQQAEZon2ihx8b7/k/AuP3vGN7/6DmYJPfXG972vbVHHh8Zv6gqTgF1JQXOf76iGl+J3EMIh9nrMeD2bbf3JTtxdfocbMqCNzkzc3ene+l9xCjS7SwO+l/CAspvoSc96NbZfNSUPEys4Bk0vCYnMZpc9zo4uaKDghPPo1I5Ez79+OEt6YazMEUn6vmvWMs5IQIJPS48mk9MvUeJ83S25MffH5uzT1D8mtgxRTb9pUYGxUYwpM7udJu1Y2cqx7+3W7uoqRy1HZTlqX4bQrU/Ple6lFEnlKBQhJSYk6KkhOMaqvZIDMKeT7ok1HLnj7UV/s/qoSAbE/53P2WbVNvbE27H5JTktRXcy1YFlrXe/5RMyemq3KkSs2fsOtXEU5YY5ZEkAx6KIhAAKzaFD7ByKT0r9d8ugnznR27vxsrVWOT0xIWXARjFAEUigz8PxB90JS8s00VXkG5RcUi0SKOfLqeRHG7LTbE3HEaGnTkU5al3DtufxenKQhUKixRkSsMYPZax3kpYn6oofUZCXm+5KivqQUbzQEzPqli900XVsTi4RJ2M7kJv2akVIG6sGkJBVNsHES0wYJ8mJkJScnzPM2zX4mBQe0GV0EQGCGaO8ueeYLHrbj3674zR4So9/w+bGElAYXAfD1w+pLrgLD88tRe3Ixjyk8LnzkvZgCE5t7aK6q71rEkZAWTV50P0JiEtQXQz74ofxedKmAlJBpGTon6ii07FDYdGrNoy4Jq9+yhsFs09YNPPcyT22f6gvj6y/V3JMbTp3ab+o6tdoVIzaePuHMmwr2iLYDgRmyjfvUpZde+vFXvnY1EYJrvVOz/vJ3+q/YbULrtCOQUipR2/2lKDA5RET3n+q3EmuXEomU48hb9nfjzlvrNY5cIdN25FECeXHle9HJ6MTvxbW1NV8Z7VzrsIHYIdOGNAXUF9+lpMmHS9lpor6EnHftedjkJ+b/0mYG3n5/RlqLRFIT0eHUbZGLXDOS3oNUM1JDslKt3Crw+Mx+9wbnDy8CIDBDuDemKORjn3ocOfh+pDa9FPUlFGnEncX8aZqoL75+ZfIx4hIz1aSoKDn72EZ/PvJiz8MVMt2AvIjfi1SfdlWZNsTDyrZbERFDSrq3hp56RpGoo5ykdQKBz/dFTEcx3xfdz5Sr2rSQLNs8lBk+zeOEImsGpcjEcsGkRi35Ln07nDr0FVnsukipX1eXz1HMjCR9lwUe/yp1LLQbPQRAYIZ4zz71uj+88PMf+qcLalPMjcRx+dHElAo94HxiJeoUBcbcKRyegKGikLnrdY0RW29D35wbr9tZKC/6fF+hRp4X37ESyYveAttpVz5LzbZrX+KavIj6Ery5iX9N2ciVcdenvkjJAJus1Nbn8U/xqS/9Eop+zx+GnwxtRqqZlDL9WHxYpGDkIn39KD2xMRsqM8sppJrzbuEYQwRAYIZ8U8nB958+/prXryDl5Cdmqq6InpiikPO5bT7yVaK2cUv1gYmpMSn7kbMeG7OUf+s5+NQhmkOVqE7mk5JtN7K+ymxE7VxFGo3PS0KpABmGv+D88BEIO2FdatSRbxnd88MLbaq+yE3OVpDajj7K8cUZpHNvvypMytcpSF5LQhQTSXtIsnLgTTUj6T5iZCWmwsj1Uaowf9kvDjh/OBEAgRnOfanNikxK85c84Rl32fHtq97ZM902FIo2MEhRYHxtcn8dcxWVUPtYJJILGyIs27/vd1EypzQwHQl54dObJKuTqYqZqftvt+nIjNGC6ShWsHGQvi++v9qHzf9FiEibhKQfZ95+lJIUP5g2flKkjxaceTdTSPWRbc4JfQ0HAiAww7EPSbMgk9KzPvvX7zmeGl9XndCGIqNHXwofmKTVl42YcLStwHDXKcoQ3y2ZvOhEdTL3Pk1HvnBpl9MuEwJXpl3tuMvTsr/ctukoFXY76sh33qDVF03QUuceM0vYZpBYe4NrTB5Indwit4uRFtsPJgWLJmak3ArVTWHS1/s562Ze3bQfnDe8CIDADO/eOGdGRSGvITXmmO1X7nivs0FICbH9YeybNpuPmtZBSlFg+sE6p/9chYbnpc/x/cJSfSNDXlzVpbkPyfci67ST1kXW78u026TOUW7IdE7UkStpnU1eXL4v7LxbV2PqgFQ3UNsJ1+OsWxEaq/ZRzg2S0xr1WwOpTVXFdYmE+hcVxqfG5BR29F2eqVl5bWUmZDrSY6WUFujXmffUmakX9/Pzg3OHEwEQmOHcl+isLn/jHz/98x//t8dTw25ueT7Lpcjo3vTn9o2+aQ4Ye1x79inqRmzFqT42rrnYa45FYjnvIofc5EXaakfkjJDpblRRt0xALNNurM5RdWP3pI1N8XtJiTqK+YmkmI58fTAGocgjXmOKQsDtovNMtMXYcPoIV+xSXqzPeX45kUg580ot5JjTZ2rbpgIYOfM+OnUMtBsNBEBgRmOfnLMkB99/+Pjr37KSPiwcfPnIUR9SFJhUfHIUktQ+dTtf/6nrTW3nIy9XU91NUV5cUUd8Xqbfi6gWOmFprMJ0CnmxnXZt01Gu30uXEHXBcZGCWMmA0LZrMuB00PT8UoXIidc/JuMOuJgkpbVcMIEMuFrtCJmUYuam2lfTMV5MtWkrJ4zPnNdVIMufRdpzqo90aZOfHpwzvAiAwAzv3iTNzDj4PuVZd9n+v98vTEo5/iEuBSZpVGpkhz7nKCSpY+h2/ao4Objoccmktl3Ii+DlijqyzUWRJB82efFFHPFUeiJ2GtQ54n5SQqZdWxOq/2M7DHfJTpcl2HlfqkiiwK+PqC++qts9afDL4XL8wVOqKje5VAdxzqDNVBVR84W0J0YjhZSZnL2JXYchDhrwUToa9ZEGcXUuXZ8gMEuHfasjs0lp+4f/+STq9JZaxyHlwaXA1EhDYg4YPqctBcb3K5eroOS090UiCXkR3yEXibKJXEaVafnDNRRxpHO92E66XbJQvAp9mYW85KovsZwvMgetvrhMRyl5YLiPttSXChsFik16fP4vMZNTq1/cRegsxQ+myTQGaUZKNQ+mzNty5v39lHPQZjQQAIEZjX1KmuXl//IvP7zk6c/d2Lnxhn+tlBi56drPrh7tCKTUHDDcV9sKTM/dZr4+41xFJdbeXgMRE6O8+NYV8nnhvgIJ63zh0naNoy5BKdyczOeW+qIz7Zo2VVFHVQ6A3s/xe5FxY+TF57gbulibqi+6z5SbW0obg5fyf0k9J+nLuIiNKBq+ww/XEfODyTEVhZYUikbyOfOGzEh6LK22tODM+9xF3BoMNWAEQGAGDPBSdH/Jy37//O2f+3K9KCRPRKsSrhtzrAaSrxK17tvVb5NMt9oE00aum5gio9fA0UZX/SxOXnxVplsiLz7VovKDkeic8iILqRz6OnTVANJOuzlFhG2/l5D64iIvPt8X6deXuK5GaBLMRyn9LMV3tc0xE32ROzHS4gunjvm1yFoGqcz4iE0OjuTM+4Sc9mg7vAiAwAzv3vQ1s8vf+95LP/6WP1tDnfy46igUgWSP5iohEHIakL5dZKOJ/4r+czglaiimsKRGIvnIi92/HTLN+CX6vXBT7YzrUl5iZQLs7fLVOXKZjuTcZeWf7UJeajcHIQW6EKT6tYgVQvTVO3Jd1Nps5Io8cp2TYuaJtek3fLqGV8Nf0lg9pJwfgZoKk8NCy0GaKFCarAwyJ0zM7zrTmffPc3BF2+FFoOHXbngXhJl1ESAH3zsveeYLTtjxze/3ptKO+b+4zEeLqcDYGxlTUHI/5/7tc9hs9N1rwuYwn8+L3Ik86ourRID9oxsr0OiqMB1LVpdiOqr+ci5fNDUdpfi5aFKhb5gai5D64nPe1ZdL6o3YZT5yzc81N9/vTIzYLdXv06D8YFLX029OGBe55vcaOvMeTs6890idO9oNLwIgMMO7N63N7FMXX/y87Z+4fCt1eEPVaZs5YLjTtn1g7NXnKCz2fFzZe6021+3e09m+/Wo35j71JTHfS8jnhQesZ+EtfpJD4dIhvxdZQK7Trr1wV7I6Pdcc05ELVJfpKDXvi0tZCZUOaMN8FIrEau2LOqCOXH4wsXDqYTEjaTIaU2Fi8On6SBceNfuOWHt8PvwIgMAM/x61MkNy8N3x8YsvPYY6+4bpMCUHTGolau5PE6KYGpK7ojZ8YOw5qn9fd/NtnVt+/NM4eWH1Rfu98BlSYTqivAgpkRt/1xm3GFbUlxB50RPMzbTrJBGqynRquQBXPzG/F5/jbsh0lKKiVFgqc0nKebyGNs1HuZfzMLdPxU+vIdWM5AswTHXm1WP248zL/Rx5qPOIYd4HzC0NARCYNJzGohWZlA5d8pyX3HvH9qt7//poWgNJkNGEKKaWtIFmaIwExcVMgfroIS8+h2NNXmT+DXxeCrIiKktBXKS6dM2PxZHrpacCs+NX3Ke88Lns89KG34svYZ34vThJjiec2TajmVDqsm0tAZ+8Vz4vdT2ixUxw1/jr0sAPpvFYjhMHmROmRmYaTpqceR/X8FScNiQIgMAMyUYs5jTIpPSiL77z/XM05veqcWMRSLEJDlKBkbF9+Vpi79vnu8gL92GTF59ZTExHTGoyfV5s5cUQmir0mWsFMaGpm5GKNsUi+AvLD5/Tbmyb7M9t5aUf05H0LXML/TWvc764ktYlr8Ohvrj8WHrInyN8Oub0mzynRWzoC5+2p+Dai5gZSfqQdrZZqd/EdHqOqfWrYmYkZx4hJsXlYNqMRJl5/2YRtwpDDQABEJgBgDoKXf7PV6/cfcnzX3YyOfi+rZX5LoYCE4tmiik/8jmVBOAcL8ZsZBMXX7I6O2Q6oL7E8rxIccaQ2aj24x4Il7bLBKQ47dp1jrrEoztqSqmAmOmo6tdSX3w3GUPQMtWXJiJDivmoiSmlle/REHRSEZWMu0MTM1KQtCRsrBYgY8TGA+scnHmH4ILrYwoZl2gfo+DUoUXgU5de+tLt//Tvp9AEb61NMsf/xV5dzAemSV4YHiO3X09I9/bvX1vUNQrNQ4hMyO/Fsasx8lInJpSYjn6FbYddbmPneumSjO5PdRvkhW8CKaUCcpx29c3fVkOqCKNyGalh084vUKL60s+XzxSVFALZ8C7Zz/h9n9vAP6jvMVUHbeWEGaAz71+3uV70tbgIgMAsLt5DOdrln/70dz/+V+/ZTJP7djXBnCy89qpSlZBcNHL7tXO/3HFHZ/uV3/FHTLmijew5RpSXLtFgf5PiX2ISKl4XPi+6XU+b0i5gE5ScXC/dLLndsXzKS0GYugvNMaWE/F40dK6Qadt0NCj1JWQ+yr0Ex7l9SnFH24zkw2OQmXn1mC048547zns67msDgRn3HU5cHzn47rnkJa86dceOH/1F4ilFs5TMuzHlJHXAWD+Bz6/76Y2d7d+jot0p6o9ek8t0ZPm9SEFD/mPXPIyzbJe8dD8vSwIY1UUpKSqbhUt5Cfm85IZLa2W+33wvmry4/F6ECPmy7TJCKRl3q340yYqoL75LyjYf+SKkUi9JbteXipQz0ADaxrLyxoas5XchN7KlPHIEMu0L89yj1l+0lPPG2M0RyNnz5qPgzJFC4F4Pe8j9HvrI8z7XmT+wujZxnchOErr1o4pw59KPThAnr7Xa0XQcMhWZSKOflilwfI660r/PdCSOuw7ywssQ4iJ4rdAEhb5lviR1xblW7hf1rbTDpU37Hp+Y7i7VVBtHpt22nHZTyYshKbQIn+koJWldD4GhRWgi5iIhvtwvTGByE9jZJiRbTdIExlZ7XNFKPZFXCRmOfVFXSU685Gsuh0tAPKQ/L1//5I4O2Vg7+w9OLexbmDejTG9e1dnI/Ugfcl7tq6tKltV+LtT7fJ7r6y5zrJUZU3PTY/NrXf5Jvpb6PVcFb37vUDnQwbLx/ELn1qd8f9eGkfqRxmQNAiAwuBC8CLzo91728c7c+keZBi7yYt6nXyYdtpzzb9+vmI/A5I5Dc9n+vz/oztG1Upu48L9lfInM4l9sft8RcVRl2K3IgmUyqpQYjjByJ6krSIk2KxUTbVN5MWOU63cpL+Zzy4F20H4vjcgLzzNBfXERGB950Ws3uFuh2oxXLRuv/XmAgAwFgeFFeUjMj+9cuObKHZ0PU4vdnzuw9/0f/cH+q1J+Esn5deaeG6buS22POvOwmaf83KbOBWaYRAJj2qo5hQhNjWAJ+6DzXQSG+5X3YwTGzKFsfMkNe079r137uyb0FBDQZskRAIFZ8i0Y7gmcd+GFT99y5ul/RbNcVZEY/WvTVBlJ+QXrQ4G57sc/K1SXFEfdFPXFKiEgf2lr5YVvcuEEdV2H3YJQNFde7Ggj01/lbOr3e+nXbFTc4LumMLl6fSpIq8pLAdpA1RebwLgceHsIzogRmKtvX/j6R67a9/JLvrHv8jZ/fYjULCdSs+037jrzb9Kv/N2jiY1TubGUllwVRv9tEVJhhNTYKsxPpzqX/9Z3d53XJh7oa/AIgMAMHuOxGOFFf/wH36SF3MssxiYwucqIbp9jQoqNw3Njk9ENt9TJS4rZKMN0ZEcamZue5bArodIFsYgrL7bDrj6vRk7Kq6k3qV3xgStRne33EnLYLRLeFX1NlURFz8U2HYUijgQXO+OurWb4zC5NTEeagOh+bfWl1s7yBNQEpR8C43Jc1teK/DDUMPT8IvdlQqKBrr194Ucf/N6+5xNp+ZfF+EEiMrNs29zsyx5xYudNMl4OiekpOeZRkPpVYZQZqUNmJNwPF+PiaHEMbFiLYI57V+c997kf3HLiUU/oITB64bmKTA6BCY1TkpfKZMT/9oRRm2606uIiL9JGSgXQv7XqUtzUeyONum3qKkVqqHRTs5EmL8XrkjSVmMXMRsV6isYmdDiBvGgSYM4X04oysbjKBbRhOtJjpySu68d8JJjI5edTYHxErOd861d3kASGiMu33nLl3seQaej7S/X79OwTV2379eNnPtUWgeF1aHFWSIxLhckxI/3n7oWnXnr97r9bKpwwbj4CIDD5mE30GdvOPvuhWx9x9icIhDUGiByfF1f7HALjU2BYdaEoo8pklGo20iRG+73Ir6OVnTiU40UTgFhV6aKtEJzu5ZRLXuqkI2420u014aj30x95EWLRj+lI5lZTHTJMR/Y6B6G+CClJceAdFIEJOfAScfnmyz+992zy67h1WH6wiMg84umbZ/7dEJBSUbGVlrZ8YRo68+4iFeawYcEL84gjAAITxwgtHAi86P+85mv09hk9YdSLrcCwo+63yO9wz56u4uKq6yRkhOcXU18sp92Y8lIzyZQuhLbZyNxUPT4v2oLRPa8OuhCeZbWQ66KNmI2K127lZTHIi61MdE1RMs/yOSHbbu2m7yEvNglLjTwSkmWfr9/3JbBr4v+i1+LMQhyJQgrVfbJJDBGXrxNxeQgRl1uG9YeLiMwFRGQ+EvOFSTUj8TrbUmHgzDusV417XiAwo7VfQzXbbRdd9Pqtd9v8u42jkHg1LgVG3rdjPjU5YtWFHXVvuDlMXAQxJjA2cfH5vaiII626FCTAbTayVRdpq4lL7b2eUOj6VzEUKq3JSIi8cDvmMz3+Mo4bpi/iKDVcug3yoglFddO2yEsK+WjD90WwqxEp+kfbBMYuWWDvlT2+/QMgBIaIy3bycXkO+bj836H6kQhMhojM05521Mx7U0OquauciKQmKgw5836enHnPGRUMJ32eIDCTfgX0uf773eeMjWc9+hc/S93c23TVVIHRZEa/dkUicS2j715DgZ+7C/IiioutvIjqYqsvIdNRSV7qqkrX5GMnqCsISm9Uju3z4guTLshI92toO/P6ahsVN7a42SiVvLTl86JvuL5MuzUCpsmUFZ5srqcE01GN1KhfNEla58r7YroOOO/y53b4tB7HVpf0muQr5XLiDeWAcfWh8XR9VfkS+NOv7f0lIi7GNDOKx9u3rH//6WunniJzb2JG4nPbUmGe8D04847KdQQCMyo7NeTzJDXmT0iNeXm2T0wsGYQmMKy6XHVNV3XxERfBShMYl+nI9nspk9VVhKTspzLfBMKkU0xG9g0qN0ld7cbfInkxN2srNDpVeZGbesznxUcy7PDrXL8XX79mTZS0zmDmqDxt3ncQmIqYKIdmm5C4HJOdyonq38bHRXJyCcxPbzN+Lj9P5qI7hvznITq9p29af84zTpi6ghuG/GK0AsNtXc68hsyUbKaJCkPOvM8iZ953RieNBkuOAAjMkm/B+EyAMvg+4KFn3fcfaUV3qVYVU2RSCcx113W2/4jyujApYeIi5GXlSsoXur/TkWcZOKS+BExHRa2i7jGoSKPiZuVXXuybmSvDLrdZSp8XM35Gll29Jlf4dYi8yFimD49yYpuOTFtFXlL6yCEwIQdePVaxT8U11ZYC89av7n0kqS6fHJ9fj2Ilbzt57v2nrelUagy/twS+MHtJhZkdN2zHcT0gMOO4q0u8Jsrg+wWawoPMNGJRSjECQ+Rkx817Ogvf/W6duHDfTFr0wURGDpf6YpuOeGxRXcrq20JeXKoLd90kTFqfF1JdzA2OHrlmI9N/ue4cn5dhMhuZtcuvUZ9+L9xXKPLI4LUE5qPaGsv9yvWBIdXlB+Tr8hQiL/9vib/mAxue1JiHP+24qVqSvdzEdjy5FBXGl9iOnHnPJGVrbDEe2OYtcscgMIsM+KQMRyald2w94cgXRH1iAgbvHdfefBURl89QH3tumVl51fxNN++95cD8N27ev2/7wdvvuJOwPHDn3r1GJV49M8PX8spNGzc+gJ4P37Bi+pxNc4ddSOce1+O8y2PKuERqlhN5sVUXudnUKkkbE5JO+V9PUFcQCSvbrvqGNSEvNfKTYDbS7e0b9SDyvMj1XOSOKf5l53mx5+TM2tsyeTFjZpiO9LxdyevM5w1KCNikpR8FhsjL1876yO77TMpvyN/dfe7LR63r3J/Xm6rC9JvYzoxVdHIDqTBHTQrWo7pOEJhR3bkRmPe2M898wNaHnPkucrQ9tUYiXJl4zR2HaMTatZ0dP7v1yoUrr/zjy7/0pQ/1u8wTNm9eTWTmiZuWT7+E5nBaLeqJ1Jfl+/f1bTIS4lLcqHtrGpmbmPnMHWkkn/uUF5ezbjFmcehufVl2B0VetDOrnWFX9q4a2+GwW7vBlwuKFWqUfn31jgw2HtOR+awF9cXgnlBCQK8vFkJdXD+9VzyfRyajJ5Hq8sF+vw+jdv5b7rH+r85YO/UbIQLDa+o3sZ3powRHsvPCmXf4rxYQmOHfo5Gf4Yte8MwPdtate4JZiO0Tw+/NzHR2LKPC19ff8InvfO6Kp/5o+47bBrHo4+dWnHjK2iM/SCTmgfyLt5LIS/cmWxAPHWUkN5SQ6qIVmqJ9XoI6MybfDDk8O5LjpZhfPc8Lv2ebjewb9GKQF42deW3leukxldgRRwGzkcFVO8R6iIPLaVfPxe5HfxbyfXG2i+VuSXDgtecm15u+9q/ZtXAr1S16BpGXjw/iOzEKfW6bm9vyipM62xdLhRECQ868zyRn3neNAkaTOkcQmEnd+UVeN4VbbznrEef+AxGYop4SqzCsthBxueFrX3nFlR/+yJ8s1pSoTsvLD5ua/QMaz2QTDjnqms/ZsbfmcFuSlBrhcBOXov/BKi++UOm6429vpFFxA+01iTkdbG3zULkkViHaUF606pJKOnKcdl3kRcapRRXRunxKiSv6yEU67Pn7HHhjBIbIy01v/+beM5eyDMBifSdj42yZnZ55+z3WsNm4+jKlRCT1WV5gnlQYihjAMawIgMAM686M6bxe9KqXfLhz1FH3/87CqplrP/nPj/zfz/zn/yzVUh+1Yf2X6ObywIKk9EYENc3vYm5M5aJycrzYN8NQYcZYVWnpy5egTpMXPceesGaPkmD7u+ibcY04JZiN+iUvPPY0dXKQVCyf34uLwPT4tEQihZoQmBq5c5mHLHOWYEfk5UfnfGz3iUv13RjWcd98t7kPnb6m83iZ36AT25Ez7/3Imfcrw4rHpM8LBGbSr4AJXz+pMb999PLZt2jykOKoW7T3+7sUn/vDpNlkVBAdcQTuboT2eTFtqB+7orRNdlxmo8Kx1qWwNFNdirkU8/QpL4tBXuy1NzEdCeFKVV/stctuNc3/Iue7opCIvHyHyMuWCf9qepf/25vXv+y8I6bezA0WQYW5k1SYou4bjqFDwOL/Qzc/TAgIDBQB+uvqT7+1546T6EbE8nQtq66dnM5EGDnqGem0/+Ksq2sa+bLrap+X6oZmRRqJz4t8HlNeTOmDimT0EhUNpm3aMusXU5HDZCSRRuxrrSONXP4uLjNURQKYjWX4vAjZcJGGFPLiuoBs4mBZ+apTbJWmzYvRngP3feXVnU+CvIRR/tOf7n7L3/9s4ZGpe+HaW6eZkM2HvZ2uJvMV/tBPBXuR24HALDLgGG74ENixZ/6HX5q/cwMpL9ebm3jA34VVF5ejbvfm6lddfM66XSfb3tIABakqHHXFWTcl0mj5crfyIj4vskaTiE4cbgPkhRWXFH8Xe3crQiS+Jba9qDzBR3jaIC+xqKMueWz32nTdJEMj/OuXF95ywed2Jd+Y253taPX2nht3f/LF37tj4zLretLXkYt15DAR+Z6du37180cLncmZbc5+Tg4qWOnEIvDUI+a+T4u/m13LqCA2/ZmMbMUlN7uuj7gUcyu2rG2zUSy/S21s25/DEWkkhKwiDZ5zXJ+7nHZNf558L+azSMg0t0nN+2LaenxWXPPN8X95x5V7n0aRRu+f2C9ew4WzOvK2k9ZwBkuKCiiOQZQXQEh1ww0a8GlQYAYMMLofLQTev3PX3Ymo/LC40Wo1pRtlFDIZ6Ru6IRTl8lPIC5uLfKUBYuSFb5aavLDCwg9WXLTqUrxXV134Ji/vST/d/ooF+JLT8bx0f0IatPJiJKRAjhe5Qnxkw8ZUzEbm/QB5ybnyYgnmXH25/F9c7WJKDMhLzk7V25J6uvBL39q14ht7Op+QTwahwjz3qPUvbD5LnDkoBKDADApZ9DvSCPz6prkf0QKOL26e+SHSQlzs/C76ZhyqJs3tYv4u0leO6mLISMRkZPotCYeLuNTWkKi6mHPKK8KXE8Z1A9JjaeKSQl58uWNsx12DifVL6PN9aaP+kV4nkRcuC/D3I/1lGZLJv+mkuQ+cPtt5Ik8HKsyQbMqApwEFZsAAo/vRROBdN+46gYjLgk1e+AvjC5HWygwTF6NOWOHZMX8XIS4x8iLOujnkRZQSvrG7VBe5kTchL9JnjQwo1SWFvPQoOcoh2b6KYspLCnmpiISHvNhjNiEvoasf5KXd34ZXXLXrSaTEGDPcIFQYilg0f9DgGB4EQGCGZy8wkyFD4Nv79p7DU9LERKaYEmWkl+Pyd7FNRuKsK2OGnHWZuLCjroRJp5qMqpu27Z/C66QJiKOuMSEpU5Oek8tkJMTFKBkqykgTF9tR10cyNOaG0E3TOulh3ieTUVvkhUliyHQUM/30c7n++Tf2PhnKSz8Ius8lEvM0IjHvtT8VjtpPRNK9Z2ae1v6M0WM/CIDA9IMezh1rBCjE+v9ef6DDGXtrqosmLxqAlCgjOzmdcg+p1TSqkR8x+ZSKRK7qUpEupbwI4ZBnUV1sgtMlbMUrHwnRxMUQDbWApiYjIS/VHAL1jfQafWvQmPrCpn0XtO28G7rwY8SHyAubjT4w1l+eJVwckZinf/qWBfO9DR05/hP8x8Q566deH+sTny8uAiAwi4s3RhsxBD5xy+4/vO5A5+3mpix1iCzTBn+JivDqXpNRdTMNVJI2N+ry11TncdFmmdQoo64Sk+ao26O6lMpLRQiENNlqjFJwlnH8h8dcFFNdap9buPqcdXlurhwqIUUnx+/F9B+4u8WS1+lL3O6nJC/weRnw7wDlivnD99+w8IgaaS3/0Y8K87yj1r90wFNH9xkI5JDQjG7RFAiMFwIvPHrum7Sie9k3L5fqUpCd7vpTSgLoc/SNOJW4dAlHEWVk+lN/nthOqanh0cH8LFXgajleOYlccmHjleus61urYNIveYmFTmtC1WOSUtcBkReESi/yzwIVgjz1JZs7/yvDdhMhdDpSJ0neO6Q/LE/g96RKNb/FhR4RUr3ImxgYDgrM8OwFZjLECLzjul2nEZm4XU+RVZdQlJG5sUnJAFVFWswrLtWl3n/xr1STkYRI6z60v4qERqf4uqzgbLvq16FGhoi4GNWlPLQZzGUuivm6hPK7xPxdcsiL7/JyES5f2xz1RfdB5OUi5HlZ/C/45bt2feu3r75jnYwc+ovdpbqZ74yaNu8/OfMWBWlxLDkCIDBLvgWYwKgg8N937jnLEAp6mArWFGEUijJykRc+X7Lqmpuv+kWNmYxSHXVrUUalo2rh9Ft30jVr0SRFmYsqclL6zZi2EeLi83WpcszYIddq7dpR1+Bi5XfxqjorVPZiq3/7huRKWGf323NOxi+kz+z0ru/v/S0iL+8blet83OZJuWJuJxLTU89IrodcM8TD18/+3rhhNKrryfh6juoSMW8g0A4C5NT7zZ/u77whFh6tiUsoMZ2QF5u4mP4dUUb2KuykdObGX/qqGNJQ/jILeTEkRN5TPi1VSLZ+ryFxkbXYNZX03LWfj4u45Kguyw8WC4oSEYWF72qIkZdc9WWeCOO//8/CJW/60r6L27kC0UtTBIjE3EkkZjWf368Kc9ps5/GUAXim6VxwXnsIgMC0hyV6mgAEPnzTrt+lZd5oyILtzOtx1HWZjASqmL+LrbpwVl15T/fB/axghUQ71zpUF21SGgRxkTnZodaC13SpmNjExXweU13oXE329FjV65L8yb9F7RLzmb5EB206un7nwo4X79j94gn4WozEEonE7CESUyMeTVWYh65f/aqRWPSYTzJXPRtzOLA8IBBHgGzg93zw2tlv1W6GFnnRYcSupHTmhm2Zb1J9Xby+KaXqoh10eRytulSkx442EuJjOeaaeZYnNXHO5VOZtCzMT1W5XDRumrSYudp/UjHhOUCTZfJSqi0u4qLXya91pInTtyFmbgqYu3zEqVoXAXbtzoWrHv6vu+8Wv5rQYikQ+Jetc+LD2+PMy/NJcei98Lu7cP9cis1TY0KBWeINwPCjhwCZkr79o70Lb61uZMpRl01GWnHxZdQV8mKrOF2CIaaRelVpHWGkzUXT7HRbqg8SNcP/Nu+XpiEZSzvo1jLoesiLU03RJiZletIEicfTiotNXIS8VD4yq8q1il9L+WzmqMiLaz6uSCOb1AhBipqbMsmLfQUTebkG5GW4v9fnb9819Y29nX/VZDeXjVBI9bOHe5XjP7vcPRt/RLBCIJCIwKuPW7+Tmh5e3CiLr1LIXGQ+L2+OOjza/IiSach8rqQDMRfJjVefr2/CLuJSO0f5vVQEo4Hiov1auNZMj9NuOY4dBm0Tl2puoq7wG/ZrxsJSXPSapE8fcSn2pL6RLgWpDb+Xqo9CebmByMtRiZcQmi0xAm+469yHTp/pPN4OqeZpJagwt5IKs2GJlzDRw0OBmejtx+L7QeBzt+19sF0OIDfCSMiL9muRCtJCZnoUA2UqckUX2YpLze+lVE58EUUrlBOwECa7dpImEqywiLIjfi1sLrIPKQHAcznIihWdd2hfYRqqDn5dmoqEvBykcgnLVnJF7Tphsn1a7ORkbZAX17UR8psh8nLLH/zX3lP6uaZw7uIi8Oof7noCKTGXuXxhfFFlaoaHkTn51MWdMUbTCIDA4HoAAg0RIFPS9mv2LrxD8qD48rqEHHVZeekSFb5Rd5WYioiUpMN20uWwaF14MYW4GPLhSEDnIjm1iCaHWUX7tmjVhV/rmkUrCBjTf2ki4n+beSiTERMWeQhB4nNWsGOvIkRCXA5xHSj6SBNG2ca2yEtP0kLfryUrL7cs7Cbycje6Jm5teDnhtCVCgEjMrxGJ+RsZPhalpC8DCql+7RJNG8PybwhQAAJAoDkC77lx94vo7IMxR91aiYCyCKOtuvAs+L0V1Fj7ulQ+IqWPyzR9a3XRRfFzKc5XPi9CfFZ2c7gIeWHSxWqLKC7mXMuvxUaFCYs8hLD40v2L0rKCxjaHcsYV1UVUFn427VltYaJDissB5RRtzudijvRg4sKP5Yfqt5nKjLaiGG6hjMgKmY0YQ3nYa3WFTLuuEkOWDnY6n/jJvqcTebml+ZWEM5cSASIxv/HNfZ2/tOcQU2EopPrCpZz3pI8NAjPpVwDW3zcCV+9deL2rhpEhBGWotdxguYK0PrS5SGfS1WYbbt89X5GXiHOubSaScTVpcREXuemvLBUSIS0hoERl4WejsBBhqZEXITH0rHO3sMJixiNyYtQWPkhxMe/zP0viwoRFP2QuJuKKSAsTFj6m5ovn5Tr/e9lYm51CxRlz87385Tf3PoES1X2s7wsJHSwpAkRinveZXZ3fNNdRYCbmOlKfkzPvby3pxCd4cDjxTvDmY+ntIfBHJ8xdT70daW6eAUddbS6S0W1fFzHd8OcpDrparTHneExEerW+9P7aLDRP4csSRWQjxeTkwH7iKaKwlKHOtXYq/JnVFSYlrKxURIUbE0E5QAqGeY/JinVopcUQlQMlYSmfpTkTFyYxPuJStYv8yZZDXnhvLvvB3udTorq/aO9KQk9LjcCTDl//0CdvmvqMvhpth175t/BkhFQvza5BgVka3DHqmCHw+Vs7D7cz6nbJB/lrWL4umrxoXxft58KmIkn/X5EZNvuw7wuLHGWIdKXWOFL9u0xEPIbpz1Jw7JBnF3lhwmJIC5ETeTadaWfccnF6HCEtFXkplRVzKtuzSvLiU1oqAlKaiJjM6IPXEiIvPlMR91FlRHb8Oedz2mWSSH4vXwZ5GbMvMi3nAzft/uwlP+ucoi+HHr8q61ohFeY144fE8K8ICszw7xFmOCIIvHzz3GeOmOk8VMgGP+vwaO2gKwTC3EDLPyMMoSi/keKcy5+zj4sc4uNSO88qrNgT3qz+TNGfhRLM9Sgseg9caovhMG6FxTjhOtSVak2WP8tBInvTCU4oLsJSTZMIzjJSZQ55VBm9HN9QoYijn9268DUKl77PiFyamGYDBKhcwPSfnLBmH51qvkFQYRqAOOBToMAMGGB0PzkIfPGOPU9zqS6Fb0s9z4vtpCuJ6AwxUUnphLykKi66X1ZA7Egi7YhrCJZFLCqTEBMSMQ/ZW1iqLUxYqkdJsio1RSksNnkRlaUgZ5Shl8iGfoTIC5MWedSmxYSFyV/5zOSFVZcgyXEk7pM+feSFCRGRl+0gL+P/vabSA/OP2rGLr2zjnB1TYSik+ufHH5XhWiEIzHDtB2YzwghQFMpPf3D7wtvEXCTERdcvssOVRXXRTrryQ2nMIhFTkYRwm4iikrBoH5qQI64QFDEL6X+7toHJiSEs/CxmnwBR0X0wKZGHkBUhKuzXYshU6YCrz9OEpUZGxISkCIshf0RwQuYi0zfjxM7V5HvjCpUOKS9U3+hHRF7uOcKXKaaeiQCRmI1f39Px+jnJTfS3jpr9YmbXaN4nAiAwfQKI04GARuDS63e/1HbU1VWjxV+FyQarK9rPhZUXCYkWkmBIDJMTFQrN4+kQaCEu5q9E5dciPiy2L0vlx8L9eFQWQ1D485KsyL9DpiAhKIYjKMISMweJP4v4sVSkxcR6ux+ssBjSVyotrIyEIouEuBiSQ8SldpQY8Pjcj+/g8ThcGlf85CHwez/a9XwiMX+SoMIYEzKOxUEABGZxcMYoE4TAVbvph85KSGdunCW50KqLzudSmX/KXC6GQJTExZzP/2YyI1FOpeoipIXVFjtPi/Rhqyx6O3xkpSItZWMhIjY50cSFmwZNQGXyPUnCp597yAr1xQSFD3k2OJQqiyYtXlNRSUi04nJQfIqEuDAZEj8khwpkxqc9oXDp8ylc+nMTdCljqQoBIjGv+MCNCw9zgSI30m1zsz25ZADi4BCAE+/gsEXPE4zAn22dO0A3xerv+Yq8lMnozI24jCIyrxVpqZx65ebLN1BFWswNVf5dfoNDviyubbDJiW7DBGT+YJojratv7YDsvQTYbFSagcTZVogKE5NUB9zgJcamIlFbiKwcZJORUl9CpiLpV/7ipnDpZ1DE0Xsm+JLG0ksEts3NnfT8ozs/0ICwg6+EVL/mmjvuRv4zVwGwwSMABWbwGGOECUTgv3cuPMUQE62SsN8FkRbjXBogL5KATvxbxIxUqz5dZsWV+kO2P4sNuTYFCXnxKSp8Ln+miYhLMfG9l7TdRF7EVCTOtqKs6GfTl9BA/cyvHf82Pi3Kx6UiIqSssO+xIS2sagXMRQZ/RTQpXPqLIC9JuzoRjS7fteuqx3xn19RN8ws/0guWm+kTN615x0QAMQSLhAIzBJuAKYwnAn912txuulGu08nozGulntSikZT/hZiJGBnJp8I355jSwuSEE8OZ81T4tZASH9JJqonnZCZWBzk6aIn+HNKqipiHmKxoJYcVHU/0d9XOJADU/jFFden/Iafd+4/nFYpV9YsAJbB832kznadyP5YKcxipMLv67R/nhxFYop8cbAsQGH8E/ue2vS+xo4skskhMRtpB15CO0sdFlBvj7KvUFtOmTCZXC3mWyKCSuMyu7Eb92D4qTv8TtR21hHylE7G8p59XsopimbYGvauSL08/M6ZMXPi5LGhtpsEmI33YufbEYXea2vWQFzqRyMu3QV4GvaOj3T/5xTztQzsXHimrkBvqQ9evftlor2w0Zg8FZjT2CbMcUQTe/XNzu4kwrBOlRVQRn5+LTmrnih6q3ZATFBZbWfGpJdzO+Iio51GCXHxm9LOev63G2OUWdFv2471598JNr/7PvUdSaLyjqtIoIYO5LhYC77zb+qs3LJ86AeUFFgtxVKNePKQx0kQi8MVb9v6azudih0SL4sJKi5QRkGgiAUyHPfN74s9iRwPZyoooJKKa8L/5MO9b0UD8vpCdfsxJbW2yjjqyI5Fc/xY1RT/za3mwdYhJizyH5sltPnLVvqeAvLS1m5PRzzN/sPvEf7hp4XGiwqDI4+D3HQrM4DHGCBOOwAceOLeHSMyMccJ1RBa5fFzs/Czan0WHKbsUFk1GQtDzuAfYuVU9t7lVC5yjxRqDl68jleXf9jPPw24bJB2kHs1zHh157mMhf3nl3gsoXPqf+ugCp044AqTGfGlu+dRGKvJ48oRDMdDlg8AMFF50DgQ6nWefuOqpjzh25n1MXtjqI1FFjA2/1qYi269F8BPSUosMUh5sPtVEyJEQlaXeDyE1PA9+PWzHZd/d+xyKOPrrYZsX5jN6CDz+8LkTj5he2PAX1+/+2ujNfjRmDAIzGvuEWY44Ah89Z26ezEXGa0Wn+hfykkpcdKSPi7QIYXHBxVl/5ZgnQ/3Mqk5nL5Wqk2f+XN6fL9P7h2DntnKOPPe7TUJwloLc3LB74WvnfAwFGvvdQ5wPBBYLARCYxUIa40w0Ai86fdXTf3HTzGXizBtTXXrysJS5YzSINlnRJIJJiZCQaakb1MIO6D5dr1OGYOKzGEcOCSLysoPIy9bFmBfGAAJAoB0EQGDawRG9AIEoAv++bW7BRVzsxHKVM62EKKtoIxdp0QOnkJWFww91pm5qL4MCExke1/UcBYUa5Co5y8n0dJDNcdazqDfyvj22r/31Ny9cQxFHdyen3f0p80UbIAAEhgOB9n7FhmM9mAUQGFoE/vX6vS/kydWKKZoCjkXOlioyiL6VOlJIIpRMThj2mSkfrLIwcdAPWTyTFD74eZrOk2d+zeSFn1Mf0hf3x+fYh5Am17PvsxrpKn+FxMSl12jGtD5n8sKH/cwOw/p9fs2kRT/XxmV86HOKOHo8yMvQfm0wMSDgRQAKDC4OILCICHzuMespR2wRCq0dc6uEcFIF2iIK1U3cMgc5CQX1MU/ROFzZmp/lkH/zMx971h7qzN7u/htGn5cDz3yGY65WbHLGcLVdRirQIcJmgTSUKUr0J89irmL8+D0hPUJs3nHl3m0UcfTpfsfH+UAACCw+Ao6/pxZ/EhgRCEwKAt/94dQHT737whNt8iJmI20icpEWTVg0QRFSwp8zieB/i8JSUx3UN37dXpZyup+a89T5vj1xkaOKJHn6c/VlqzPSZoHIiJVEN3p5MHnhg8mLfmaiot9bXhqJmMi8+9t7nwryEoUWDYDA0CIABWZotwYTG0cEHjS3cvZtj5i905iLlGOuTVy0L4tNWlxkwcZKiAi/X5ESISfWcwrOmty42odIjbQPqTNMWqZYQSmfNZmR17mkRs9TFBl5j8oEfJGcdh+Usna0AQJAYDgRAIEZzn3BrMYYgb990uwnH7hi5fm8RCEuIbWlR11RKofLhKSh08Udm0AaJS5KtdH9pxAabp9jcuL2THB8RyrBIfJyJZGXn2uCB84BAkBgeBAAgRmevcBMJgSBC+628pTXPWh2hzjl8rIrc0pJToS0mM8ChEUICj8vp3YHiVDwsxz2v/l9/R6/tg+pZu3bjhjpCH3u860JESVblZF5adUmdOloYkPk5btEXk6ZkEsNywQCY40ACMxYby8WN6wIkDPvz449YupoH3ER0mIrLFUxSMt7bTmZXw6W6oTrte9zGx8hN5rYNCU0UaITkUxi59tzj6kzRF5+TOHS90DE0bB+KzAvIJCHAAhMHl5oDQRaQYBUmHu89bzZ71ZEpXS6lc7lfVFYOGRaH0xIBnEICXL1nUpqXMSjiSojc5gqidkB+rVaQTFc/CzHMnLKPVQ67sYIzdu+vPcB5LT734PADX0CASCw+AiAwCw+5hgRCBgEvvKkuVuOPapzGL+2FRdbafERlmmL2KRAO0/lA/i82jP9EsybAO/uwWRGKzf8iZAYMVfxez6Fxkda2iIz9lptMqMVGSIvCJdOuTjQBgiMEAJIZDdCm4WpjhcCH/7h3ucJeZGQZyYurLYwQTAPUlo0eWHiUT3WOvAQZYaf5WE1E9LjfS7/rJFx9RxWznZ9bGSOPGchXLWq2WWyPHuWOoFez2cmP07xcB0LHKnEyfuob1Zj5MFtbSWGo5r48YkvLLwS4dLj9d3BaoAAIwAFBtcBEFhCBG595VyV2I6nIQ64Qh6m+Rtqm0jaNB+FijaqxPoudcaGzXYIdioz5DTsy3UXU2Yk7w2blJjE6EPMTPyeNjF99dud913wuV0XLeEWY2ggAAQGhAAUmAEBi26BQAoC//ij/X8hEURG3SgVF1FZDHnRaoq+cdvvp/5bT8zXN7fhscsHEyl5GKKllKFKqRHVqHQwFmVGqzKcOM8oMA5wXIn3pJnOIrx8pnuyEBdRZviZVRk+brip83WQl5SrEG2AwGgiAAVmNPcNsx4TBI6fW7Hsuy9ZfdA2E5nl2WTFXjN/zgpKjiLjUlxCKozrM48yE/KZkam3ocpoXxcdli3KDD9fe3Pn6w/48K4zxuQywTKAABBwIAAFBpcFEFhCBH6868Chr/7vwv9n1I3Sv6VHcXH5tej39PwDvi8VKbJ9Y1zKjfTp6k+UGWqjlRntMyOni59M1V3pL9OjynBfjn0QVWYl1aYUR2ft67KyrPnEp4pZicjLt0FelvCixtBAYJEQAIFZJKAxDBDwIfDXN+39La+pyCYQLrKxulRh+NkmM/JZrnnJ5QBsKz3KxMTD+kxM/JlNZPg9m8QY85KHyGjSonPjyPvi9Hv9zs5VRF5OxdUGBIDA+CMAAjP+e4wVDjkCl12x//9dvevQTWaaLrNRjHzo81w+LT5VxvV+iDDJOC5y41BlDHFRvjIuItPjJ1MyGPGTsVUZfp9NSPzMqow+iLxcS5Fdjx/y7cb0gAAQaAkBEJiWgEQ3QKAfBF73hX2/WJGXEAmRQWKkxmcWSnnfHiP139yuIZEx3EiFY5shhcyUL2Uaorrws1ZjiLw86U1f2veVfvYB5wIBIDA6CMCJd3T2CjMdcwQW/pxCql3+Kebu7li8y2nEhZEvbpnb2k66+t8xh9/QuTKPgMOvPdVgGLZag7wUZ14Ov37bl/Y+gsjLp8b8EsHygAAQUAhAgcHlAASGBIF3fmH/G4IqjFIljDqRqsKIY4l+ljX7HHqFNKV87uuL31c5bExOm/KwTUv8ts/h15yinGOEt4kS88nr978G5GVILmJMAwgsIgJQYBYRbAwFBGIILLy7VGGEQMjNW//b7sSnxKQqL3a7kAqT+hnP0VZolBrDH+vkeHYNpmCV7HK+/PSxa/f/4bM+sOcPYrjicyAABMYPASgw47enWNEII/DOT+3/w5oZSSstsi5bUbEdf+XfKcoLt7WVGa26pCgwOqTb5YQs81b+MYaXWYqM3rZg1FJJ2H52Q+e/QV5G+GLH1IFAnwhAgekTQJwOBNpE4Nwzptf/56vW7DJ9CnnRxEVeu3xiUiZiqyJafdGf+d7nMXwqTI4/jaXGcLepigwnw7vuhs7Xtrxr131Slow2QAAIjCcCUGDGc1+xqhFF4Ior53df8b35/69GXkQhSfV58bVjTOwwaa2+6M90QpaYCuMjVT5liNuLb4zDR2aayI1dfVtqRPGpRF6+CfIyohc4pg0EWkQABKZFMNEVEGgDgfd8+sCLKmde8W/xmWlEqXGZi+yscCECpPvRRCdGZHRbF0HyRVVpEqNAY7PSfElqVlFNI01kmMRc87POt4i8nN4GzugDCACB0UYAJqTR3j/MfkwRWPgEOfPaJiStaPRkeLOAYBMQt3E58qY67brMSPJeqrkox+nXY1YSB19SXq498S93HTemW45lAQEgkIkAFJhMwNAcCCwGApf99/631sYJOeYKmdFqiVRsDikzWt1xKTyaJNnj26Yon/NuqkOwKDLKpGREIfoTi1UYIi8/AHlZjCsPYwCB0UEACszo7BVmOmEILFxOKgwfmjyYu7oCIjWZnZxiqy/yb5/TrigoITWG+05x7G2oxlx7XedHx71j14kTtv1YLhAAAhEEoMDgEgECQ4rAFf9v/goveYkpK6zAxNoIGUoJo3b5wvj8Y0JqjGAd8o1R+3H1nkPbQV6G9ALFtIDAEiMAArPEG4DhgYAPAePMqw9tKnIpMTYRsQmMi7D4SA63dZl/fGYlTUxc56YQF018yJRE5GXHXV9/2z1xhQABIAAEXAjAhITrAggMMQI//Ni6m088YtkGM0WteNhkJncN2iTkeh0yLdlmJVf+mH5MSnQuVef+FpGXe+UuC+2BABCYHASgwEzOXmOlI4jA6y7ed1ZFXmT+PvIimW5Dz7oPn0LjUmpEVdHqip2fRs7zqTe6j4BKA/IyghcqpgwElgABKDBLADqGBAI5CCx8oQyp9qkwVuRO1Te/z6HJ8mwPqsOWU1QYlyNvG2qMUmuu/tmhr5PyckYOPmgLBIDAZCIABWYy9x2rHiEELvuP/Rf3TFdUGBd50TWH7Iy3ur1ut5pGiCXDc/m/iJ+MKyTbF6Yti9Gh2/QekZevgbyM0IWJqQKBJUYABGaJNwDDA4EYAu/55wOvjrUxn1vFEnvO0WTGJjK6sctZ2GVusqON7Kgk7tNHevR4pMBcccv8+4i8oLZR0kajERAAAowACAyuAyAw5AhQfaQ9V3x6/iPZ03QpKroTm/Dof8dCsEPqiv4sRmKIBL3zC/t/8yGvueOi7PXhBCAABCYaARCYid5+LH5UEHjPtw/8YdZcfQnu7FBrl3JjExlNQrQ641Jc7KR72sRkExvq97X/tfdXnvWBPZdmrQ2NgQAQAAKEAJx4cRkAgRFBgEKqf3riccuOqcwyTAgcVZ1rZpvUtWkHXe3cK6/tsGrfv+3wadvxt/z31bceuprKJTzzdX+777OpU0Q7IAAEgIBGAAoMrgcgMCIIXPbJ/S81xRldBRodhRBr5MYVWq3XrRUbl3+Mzxxl+8vYye9sJYj+TeTl20ReHg/yMiIXHqYJBIYUASgwQ7oxmBYQcCGw8KUypFqbb2wVxkdGXB26wqybqDG2IuNRYijS6H/v+pzbTsPuAgEgAAT6RQAKTL8I4nwgsIgIXPYv+19XqTAuJSZ3Lj4TlCtMW9rafjS+CCUdpcTKy88OfRXkJXeD0B4IAAEfAiAwuDaAwAghQCHVbzbTFVMSP4v5yPZXyV2XHZWkSYwrBNtFXFxOwkRkXvvRvRcReblv7pTQHggAASAAAoNrAAiMAQIUUn3H1dcd+mGjpejEceKrolUS6VT7wKT4xvB52qSlzrn6jkNXvfZDe3+J/F3e12jOOAkIAAEg4EEAPjC4NIDAiCHwjHNXnvju18/+sCdzrs8XRhMSTVjYT8UmMNp3hXFxlRuIRSmV6tDVOw99866Pue30EYMX0wUCQGBEEIAJaUQ2CtMEAoLAZVfsv7pmQhJzkm1KikHmUl/s91xqjC9KScYjBea1l+39VZCX2AbgcyAABPpBAASmH/RwLhBYIgQu+8z+P+ghMSmKia2wuOavQ6H5cx+JcSg+V//k0Ddee+nes8hk9LElggbDAgEgMCEIwIQ0IRuNZY4fAguXU0g1kw32OZkpn13J7eyIIpfy4oNHE56QOYk+u/r7h75Cqsv9xg9prAgIAIFhRAAKzDDuCuYEBBIQuOL/zf9HhwkGm5D2ls8pUUkpKoyMr8mOq8QAvXf1rkPXvPbivY8CeUnYNDQBAkCgNQR8FVNaGwAdAQEgMBgE3vPpAy8/9z7Tj6h6t/PCMOGQRHXcSL92OfD6pskkxkN6rr6RcrvcH+HRg9lh9AoEgEAIASgwuD6AwIgiQM6837z6mkM/MeSCH6zCyMNWYoTcaDNQH0oMJaX73mtfv/chIC8jevFg2kBgDBAAgRmDTcQSJheB131g368YE5KQGJ3SfxAkhpPSvXrv+URcTiZH3SsmF3msHAgAgaVGAE68S70DGB8I9InAwofK+kiz1JFEEIUce11lAhIce8lJ9+tEXM7oc7o4HQgAASDQCgJQYFqBEZ0AgaVD4J0f2/97RoXZYykxLZmTiLh869eev+feIC9Lt8cYGQgAgV4EoMDgqgACI47AuWdMz/zny9bsqUKqU5UYXrcOu+Z/KyWGiMv2y/5q/8vIVPSvIw4Rpg8EgMAYIgAFZgw3FUuaLASoPtLeK66ev7wKqWYlRtQYCbEWNcaVrVc79tKpRFy+XSou9wR5maxrCasFAqOEABSYUdotzBUIeBCg+kinvfvJs9+ofGBEhWGFZXWptEjBRU56x4fkdaH3Karoqis+Mf/XVO36T4gQLQBoIAAEgMCwIwACM+w7hPkBgUQEfviadT848fhlJ0VJjGTtLZLQfYfMRC8ipeVTicOgGRAAAkBgKBAAgRmKbcAkgED/CJAK86B3P2b2C4bAsOrCz6LEKEWGqkR/+4qvzH+E1JY/gNrSP+7oAQgAgaVBAARmaXDHqEBgIAgsvLmsj2SRGENafmJIy5uJtNw2kMHRKRAAAkAACAABIAAEmiDwt0+a/TUiMXvInPRlev18UmWObdIPzgECQAAIAAEgAASAABAAAkAACAABIAAEgAAQAAJAAAgAASAABIAAEAACQAAIAAEgAASAABAAAkAACAABIAAEgAAQAAJAAAgAASAABIAAEAACQAAIAAEgAASAABAAAkAACAABIAAEgAAQAAJAAAgAASAABIAAEAACQAAIAAEgAASAABAAAkAACAABIAAEgAAQAAJAAAgAASAABIAAEAACQAAIAAEgAASAABAAAkAACAABIAAEgAAQAAJAAAgAASAABIAAEAACQAAIAAEgAASAABAAAkAACAABIDBBCPz/2t1/aV26QsEAAAAASUVORK5CYII=;fontFamily=Times New Roman;" vertex="1" parent="1">
          <mxGeometry x="-1183.9999999999998" y="978" width="170" height="127.5" as="geometry" />
        </mxCell>
      </root>
    </mxGraphModel>
  </diagram>
</mxfile>
